<svg id="Capa_1" data-name="Capa 1" xmlns="http://www.w3.org/2000/svg" viewBox="0 0 120 100"><title>CCS-categories-icons-final</title><g id="Capa_2" data-name="Capa 2"><g id="Capa_1-2" data-name="Capa 1-2"><path d="M20.21,29.33a8.72,8.72,0,0,0-8.66-8.74h0a8.69,8.69,0,0,0-8.72,8.66s0,0.05,0,.08h0A8.69,8.69,0,1,0,20.21,29.33Zm-8.69,3.31a3.31,3.31,0,0,1-2.37-1,3.36,3.36,0,0,1,2.37-5.73h0A3.36,3.36,0,0,1,11.52,32.63Z"/><path d="M106.13,77.07l0.48-.32a20.07,20.07,0,0,0,4.61-5.12,13.33,13.33,0,0,0,2.05-6.37,12.05,12.05,0,0,0-2.4-7.7c-4.8-6.69-4.37-7.12-2.67-8.85l0.27-.32a22.18,22.18,0,0,0,4.37-8.74,26.66,26.66,0,0,0,.69-12.72,16.37,16.37,0,0,0-10.66-12.48,33,33,0,0,0-11.6-2.67,24,24,0,0,0-3.79.32,12,12,0,0,1-1.76.19,10.45,10.45,0,0,1-4.13-1,18.66,18.66,0,0,1-6-4.59C72.7,3.79,69.1.13,62.92,0H62.55A22.87,22.87,0,0,0,50.42,3.57,18.66,18.66,0,0,0,43,12.37l-0.21.56a5.6,5.6,0,0,1-4.53,4.19l-0.67.16a14.24,14.24,0,0,0-7,5,13.57,13.57,0,0,0-3,10.34,2.21,2.21,0,0,1-1.09,2.19l-0.72.53a36.42,36.42,0,0,0-4.56,5.33A20.29,20.29,0,0,0,17.06,54v0.35c0.69,5.12,4.05,9.28,10,12.34s7.38,5.81,7.62,6.69a1,1,0,0,1,0,.8L34.31,75v0.91A15.09,15.09,0,0,0,37.7,85.5L38,85.79a10.66,10.66,0,0,0,8,3.15,20.79,20.79,0,0,0,6.72-1.36,10.4,10.4,0,0,1,3.2-.72c1.09,0,1.55.37,3.52,2.85l1.6,2,0.37,0.37a22.1,22.1,0,0,0,14.74,5.65h0.8A20.47,20.47,0,0,0,88.59,94.4a16,16,0,0,0,6.85-11.76,13.14,13.14,0,0,1,1-4.37H98a16.18,16.18,0,0,0,2.27.16A11.54,11.54,0,0,0,106.13,77.07Zm-7.76-6.66-2.08-.13c-7.49,0-8.42,8-8.82,11.62A8,8,0,0,1,84.22,88a12.29,12.29,0,0,1-7.06,1.95H76.86a13.86,13.86,0,0,1-9.81-3.41L65.8,85a12,12,0,0,0-9.92-5.89h0a17.76,17.76,0,0,0-6,1.28,12.21,12.21,0,0,1-4.08.8,3.17,3.17,0,0,1-2-.69,6.88,6.88,0,0,1-1.41-3.65,8.88,8.88,0,0,0,0-5.52c-1.23-4.29-5.12-8.13-11.6-11.46C27.36,58,25.44,56,25,53.67a12.77,12.77,0,0,1,2.67-8,28.39,28.39,0,0,1,3.36-4,10.29,10.29,0,0,0,4.51-9.73A5.71,5.71,0,0,1,37,27.46a6.4,6.4,0,0,1,3-2.27,13.49,13.49,0,0,0,10.66-9.76,10.66,10.66,0,0,1,4.19-4.88A14.13,14.13,0,0,1,62.47,8h0.37c2.67,0,4.29,1.52,6.9,4.16a26.34,26.34,0,0,0,8.42,6.5,18.66,18.66,0,0,0,7.52,1.76,20.34,20.34,0,0,0,3.25-.32,18.13,18.13,0,0,1,2.19-.19,24.74,24.74,0,0,1,8.74,2h0.27a8.37,8.37,0,0,1,5.57,6.42,19.27,19.27,0,0,1-.53,9.17,14.93,14.93,0,0,1-2.67,5.65c-6.69,6.88-2.29,13,2,19.09a4.19,4.19,0,0,1,.88,2.53,5.33,5.33,0,0,1-.85,2.53,11.73,11.73,0,0,1-2.51,2.88,4,4,0,0,1-1.57.32H98.83Z"/><path d="M53,51.11h0a7.44,7.44,0,0,0-5.33,2.21A7.54,7.54,0,0,0,58.24,64.05L58.31,64l0.21-.21a7.57,7.57,0,0,0-.24-10.45A7.49,7.49,0,0,0,53,51.11ZM54.63,60l-0.32.27a2.13,2.13,0,0,1-2.85-.13,2.19,2.19,0,0,1,0-3.09h0a2.13,2.13,0,0,1,1.49-.64h0A2.19,2.19,0,0,1,54.6,60h0Z"/><path d="M62.92,12.32h0A8.66,8.66,0,0,0,56.79,15a8.8,8.8,0,0,0,0,12.32A8.66,8.66,0,0,0,62.95,30a8.56,8.56,0,0,0,6-2.4l0.32-.29a8.72,8.72,0,0,0-6.29-14.74Zm2.37,11.12h0a3.36,3.36,0,0,1-4.72,0,3.44,3.44,0,0,1,0-4.8,3.28,3.28,0,0,1,2.35-1h0a3.31,3.31,0,0,1,2.37,1A3.37,3.37,0,0,1,65.29,23.43Z"/><path d="M114.61,85.31a8.61,8.61,0,0,0-6.13-2.67h0a8.69,8.69,0,0,0-8.69,8.66h0a8.69,8.69,0,1,0,17.38,0A8.5,8.5,0,0,0,114.61,85.31Zm-6.19,9.33a3.36,3.36,0,1,1,0-6.72h0a3.36,3.36,0,0,1,2.37,1,3.47,3.47,0,0,1,1,2.4A3.36,3.36,0,0,1,108.43,94.64Z"/></g></g></svg>