<svg id="Capa_1" data-name="Capa 1" xmlns="http://www.w3.org/2000/svg" viewBox="0 0 120 100"><title>CCS-categories-icons-final</title><g id="Capa_1-2" data-name="Capa 1-2"><path d="M93,6.92L82.7,1.08A7.29,7.29,0,0,0,79.08,0H78.2A6.83,6.83,0,0,0,74,2.33a7.29,7.29,0,0,0-1.37,2.46,8.79,8.79,0,0,0-1.83,2.12,6.63,6.63,0,0,0-.75,3.54A126.79,126.79,0,0,1,54.45,27.71l-0.25.21c-1.83,1.83-3.58,3.58-5.13,5.42a4.17,4.17,0,0,0-.54.67v0.29A168,168,0,0,0,33.83,64.58a26.81,26.81,0,0,1-2.54,2,22.42,22.42,0,0,0-6.37,6.75A12.75,12.75,0,0,0,23.29,81a14.67,14.67,0,0,0,2.33,6.21l0.21,0.29a43.58,43.58,0,0,0,9.79,7.17H36l2.17,1.17A33.67,33.67,0,0,0,46.91,100h1.83A13.08,13.08,0,0,0,60,93.5a22.17,22.17,0,0,0,2.67-8.33,20.46,20.46,0,0,1,.5-3.5c2.63-3.79,4.62-6.54,6.37-8.79A171.33,171.33,0,0,0,82,53.79a4.17,4.17,0,0,0,.42-1c0.62-2.21,1.25-4.62,1.92-7.21a126.54,126.54,0,0,1,7.17-22.33,7,7,0,0,0,2.62-2.42V20.5a7.71,7.71,0,0,0,.75-2.38,7.5,7.5,0,0,0,1.46-2.54,7.17,7.17,0,0,0,0-5A7.5,7.5,0,0,0,93,6.92ZM53.54,89.83a5.17,5.17,0,0,1-4.79,2.54h-0.5a49.08,49.08,0,0,1-8.54-4.17l-0.38-.29a52.63,52.63,0,0,1-7.42-5A5.46,5.46,0,0,1,31.37,77a16,16,0,0,1,4.17-4.17l1.33-1a10.5,10.5,0,0,0,3.42-3.29l1.46-3.67c0.46-1.21.92-2.33,1.33-3.42L60.7,71.79C59.16,73.92,57.79,76,56.54,78a10.21,10.21,0,0,0-1,4.58V84A15.67,15.67,0,0,1,53.54,89.83ZM44.79,57.08a152.87,152.87,0,0,1,7.63-14.67L72.58,54.17a141.33,141.33,0,0,1-8.79,13.17l-0.42.54Zm18-14-8-4.62c1.5-1.54,3.25-3.25,5-5.08a132.13,132.13,0,0,0,15.46-17l8.33,4.88A136.33,136.33,0,0,0,76.7,43.17c-0.62,2.54-1.25,4.92-1.83,7C70.7,47.83,66.54,45.42,62.62,43h0.12ZM77.41,12.25a3.75,3.75,0,0,0,0-1.62h0A3.46,3.46,0,0,0,78.87,10a2.42,2.42,0,0,0,1-2l8.62,5A2.29,2.29,0,0,0,87.41,15a3.13,3.13,0,0,0,0,1.37,4.17,4.17,0,0,0-1.42.79Z"/></g></svg>