<svg id="Capa_1" data-name="Capa 1" xmlns="http://www.w3.org/2000/svg" viewBox="0 0 120 100"><title>CCS-categories-icons-final</title><path d="M86.83,14.34H68.19L70,7.17H92.2a3.39,3.39,0,0,0,3.58-3.58A3.39,3.39,0,0,0,92.2,0H67.11a3.49,3.49,0,0,0-3.58,2.87L60.66,14.34H33.06A8.86,8.86,0,0,0,31.27,31.9l3.58,64.87A3.54,3.54,0,0,0,38.44,100h43A3.54,3.54,0,0,0,85,96.77l3.58-64.52a9.13,9.13,0,0,0,7.17-10.39A9.51,9.51,0,0,0,86.83,14.34Zm-8.6,78.85H42L38.8,32.26H81.45Zm8.6-68.1H33.06a1.79,1.79,0,1,1,0-3.58H86.83A1.79,1.79,0,0,1,86.83,25.09Z"/></svg>