<svg id="Capa_1" data-name="Capa 1" xmlns="http://www.w3.org/2000/svg" viewBox="0 0 120 100"><title>CCS-categories-icons-final</title><path d="M100.28,18.61a3.23,3.23,0,0,0,.55-3.66A3.56,3.56,0,0,0,97.43,13H89.68l5.84-7h0l0-.11a3.62,3.62,0,0,0-.32-5A3.13,3.13,0,0,0,93-.07h0a3.84,3.84,0,0,0-2.74,1.15l-0.08,0-0.05.25L80.19,13h-58a3.41,3.41,0,0,0-3.3,1.94,3.36,3.36,0,0,0,.51,3.83L56,58.24V93H42.68a3.5,3.5,0,1,0,0,7H77.32a3.5,3.5,0,1,0,0-7H64V58.23Zm-78.39-3.3,0.26,0h0ZM41.6,96a1.32,1.32,0,0,0,1.08.56A1.13,1.13,0,0,1,41.6,96Zm36.8,0a1.13,1.13,0,0,1-1.08.56A1.32,1.32,0,0,0,78.4,96ZM89.24,21L78.63,32H73.37l10-11h5.82ZM41.15,32L30.43,21H73.88l-10,11H41.15Z"/></svg>