<svg id="Capa_1" data-name="Capa 1" xmlns="http://www.w3.org/2000/svg" viewBox="0 0 120 100"><title>CCS-categories-icons-final</title><path d="M87.41,20.23a12,12,0,0,0-9.5-11.63A12,12,0,0,0,66.46,0a11.8,11.8,0,0,0-8.14,3.21A11.91,11.91,0,0,0,45.5,8.41c-0.33,0-.67,0-1,0A11.86,11.86,0,0,0,37.07,29.5c-0.45,9.8.66,19.53,1.73,28.95,1.4,12.27,2.85,25,.68,37.28a3.67,3.67,0,0,0,.77,2.93A3.58,3.58,0,0,0,42.93,100H77.07a3.63,3.63,0,0,0,3.44-4.22c-2.17-12.32-.72-25,0.68-37.31,1.07-9.41,2.18-19.15,1.73-29A11.93,11.93,0,0,0,87.41,20.23ZM73,93H47q0.14-1.5.25-3H72.77Q72.88,91.5,73,93ZM47.58,83c0.12-9-.87-17.17-1.83-25.56S43.81,41,44,32.43c0.17,0,.35.57,0.51,0.57H45v3.57a8,8,0,0,0,16,0V33H75.5c0.17,0,.34-0.45.52-0.46,0.17,8.52-.82,16.74-1.77,25.13S72.3,74,72.42,83H47.58ZM54,28.62v8a1,1,0,0,1-2,0v-8C52,26.69,50.3,26,48.37,26H44.49c-2.71,0-4.91-2.63-4.91-5.33a5.1,5.1,0,0,1,4.91-5.11,4.84,4.84,0,0,1,1.75.21,3.45,3.45,0,0,0,1.25.17,3.58,3.58,0,0,0,3.36-2.56,4.94,4.94,0,0,1,4.72-3.54,4.86,4.86,0,0,1,2.25.54,3.5,3.5,0,0,0,4.53-1.2A5.48,5.48,0,0,1,66.77,7,5.19,5.19,0,0,1,72,11.83v0.05a3.25,3.25,0,0,0,.81,2.56,3.11,3.11,0,0,0,2.22.93h0.19l0.33,0c2.71,0,4.89,2.63,4.89,5.33S78.21,26,75.5,26H57C55.12,26,54,26.69,54,28.62ZM62,8.06a5.9,5.9,0,0,1,1.07-1A5.9,5.9,0,0,0,62,8.06Zm12.9,6.33-0.19,0a2.48,2.48,0,0,0,.38,0H74.87Zm-1.71-.67a2.51,2.51,0,0,0,.4.3A2.51,2.51,0,0,1,73.16,13.72Zm0.54,0.37a2.52,2.52,0,0,0,.3.14A2.51,2.51,0,0,1,73.7,14.09Zm0.48,0.19,0.29,0.07ZM61,9.2l0.12-.11ZM60,9.73h0Zm0.59-.21,0.13-.08Zm-1.14.28h0Zm-0.64-.09,0.16,0ZM47.91,14.86l0.18,0Zm-0.42,0-0.26,0,0.32,0H47.49Zm-0.9-.17a5.89,5.89,0,0,0-2.1-.38,5.89,5.89,0,0,1,2.1.38,2.52,2.52,0,0,0,.48.13A2.52,2.52,0,0,1,46.59,14.75Z"/><circle cx="55.11" cy="55.78" r="3.92"/><circle cx="61.96" cy="69.48" r="5.87"/><circle cx="65.87" cy="46.97" r="2.94"/></svg>