<svg id="Capa_1" data-name="Capa 1" xmlns="http://www.w3.org/2000/svg" viewBox="0 0 120 100"><title>CCS-categories-icons-final</title><path d="M118.17,46h-0.11a2.41,2.41,0,0,0-2-1.22,12.42,12.42,0,0,1-4.84-2.35,5.06,5.06,0,0,1-1.09-1.77c-0.44-.77-1.14-2.52,1.86-6.42V33.94a5.91,5.91,0,0,0-1.79-7,5.44,5.44,0,0,0-2.91-1h-0.18c-1.56,0-3.06-1-4.4-1H102.6a4,4,0,0,0-.59-1.12c-0.31-1.26.13-4.19,2.4-8.22A5.27,5.27,0,0,0,103.2,9,3.82,3.82,0,0,0,100,7.56V7.65A9.79,9.79,0,0,1,98.24,8H98L85.29,13a23.36,23.36,0,0,0-8.54,5.75A21.54,21.54,0,0,0,72,27.08a5.87,5.87,0,0,1-.31,1.18,25.22,25.22,0,0,0-8.46-2.82,22.9,22.9,0,0,0-3.48-.27,25,25,0,0,0-9.07,1.76A23.91,23.91,0,0,0,39.31,36.3a24.55,24.55,0,0,0-2.82,6l-1-.6A18.93,18.93,0,0,0,26.3,39H24.91a22.79,22.79,0,0,0-6.61.93l-2.2.82L3.42,45.8a5.12,5.12,0,0,0-3.37,4,5.88,5.88,0,0,0,1.81,5c0.46,0.38,1,.12,1.56,1.12H3.57c2.36,0,4.59,1.47,6.56,2.93a3.88,3.88,0,0,1,1.08,1,1.82,1.82,0,0,1,.58,1A9.72,9.72,0,0,1,10,65v0.13A4.89,4.89,0,0,0,8.56,69a5.7,5.7,0,0,0,1.76,3.75C11,73.28,11.51,74,12.31,74h0.2a7.2,7.2,0,0,1,4.12,1.4,3.19,3.19,0,0,1,1,1.86,9.56,9.56,0,0,1-1.76,7,5.22,5.22,0,0,0,.22,6.16,5.47,5.47,0,0,0,.88.87,5.37,5.37,0,0,0,3.28,1.12,5.27,5.27,0,0,0,1.92-.36L35,87a23,23,0,0,0,8.54-5.79,21.56,21.56,0,0,0,4.69-8.28c0.15-.51.29-1,0.4-1.56a24.62,24.62,0,0,0,32.13-8,25.39,25.39,0,0,0,2.8-5.84C84,57.77,84.48,58,85,58.3A19,19,0,0,0,94.1,61h1.41a22.86,22.86,0,0,0,8.81-1.86L117,54h0.13c1.61,0,2.7-1.93,2.86-3.7A4.48,4.48,0,0,0,118.17,46Zm-14.05-2a12.93,12.93,0,0,0,3.17,3.57,16.74,16.74,0,0,0,3.85,2.2l-9.47,3.66a15.42,15.42,0,0,1-13.74-.66,21.15,21.15,0,0,1-2.2-1.45A20.88,20.88,0,0,1,81,46.06a22.46,22.46,0,0,0,17.62,1.39,1.3,1.3,0,0,0,.77-1,1.32,1.32,0,0,0-.29-1.21,1.3,1.3,0,0,0-1.26-.2,20.39,20.39,0,0,1-17-2l14.14-5.62a1.37,1.37,0,0,0,.31-2.2,1.32,1.32,0,0,0-1.28-.2L79.94,40.59a19.82,19.82,0,0,1,10.83-13,1.21,1.21,0,0,0,.75-1,1.28,1.28,0,0,0-.42-1.21,1.41,1.41,0,0,0-1.32-.15A21.89,21.89,0,0,0,78,38.17a19.25,19.25,0,0,1,.31-9.23A15.11,15.11,0,0,1,87.76,19l9.54-3.81a15.13,15.13,0,0,0-1.52,9.71,8.17,8.17,0,0,0,3,4.65l0.46,0.35a14.76,14.76,0,0,0,5.53,2.2A11.36,11.36,0,0,0,104.12,44Zm-62,7.18a17.46,17.46,0,0,1,4.14-13.42l12.29,30.1A20.12,20.12,0,0,1,49.16,64h0A18.43,18.43,0,0,1,42.15,51.16ZM24.05,75.83a10.37,10.37,0,0,0-3.72-5.64,14.58,14.58,0,0,0-5-2.44,14.4,14.4,0,0,0,2.36-5.35,8.26,8.26,0,0,0-.95-5.95,11,11,0,0,0-2.82-3.13,21.21,21.21,0,0,0-5-2.84l9.54-3.79a15.42,15.42,0,0,1,13.79.68,16.23,16.23,0,0,1,2.09,1.37l0.13,0.11A20.48,20.48,0,0,1,39,54a22.35,22.35,0,0,0-17.82-1.41,1.32,1.32,0,0,0-.79,1.69h0a1.06,1.06,0,0,0,.37.51,1.32,1.32,0,0,0,1.41.18,20.33,20.33,0,0,1,17,2L25,62.62a1.34,1.34,0,0,0-.68.7,1.39,1.39,0,0,0,0,1,1.08,1.08,0,0,0,.4.48A1.28,1.28,0,0,0,26,65l14.12-5.64A20,20,0,0,1,29.31,72.44a1.32,1.32,0,0,0-.68,1.7,1.59,1.59,0,0,0,.37.48,1.37,1.37,0,0,0,1.32.2,22.15,22.15,0,0,0,11.8-13.32,19.27,19.27,0,0,1-.24,9.62A15.11,15.11,0,0,1,32.44,81l-9.38,3.74A14.16,14.16,0,0,0,24.05,75.83ZM19.16,86.55a1.27,1.27,0,0,0-.25.74,1.27,1.27,0,0,1,.25-0.8A13.57,13.57,0,0,0,21.76,79,13.56,13.56,0,0,1,19.16,86.55ZM39.35,47.89v0Zm9-12.08a19,19,0,0,1,10.15-4L71.62,64a37.94,37.94,0,0,1-4.76,3H66.8c-1.73,0-3.57.93-5.44,1.07Zm12.9-4a18.32,18.32,0,0,1,9.49,3.57L71,35.59A18.05,18.05,0,0,1,77.56,48a19,19,0,0,1-3.94,14H73.56Zm39.82-18.44a21,21,0,0,0-3,8.76,21,21,0,0,1,3-8.81,1.25,1.25,0,0,0,.15-0.42A1.24,1.24,0,0,1,101.08,13.42ZM75,33.79q0,1,.07,1.91h0Q75,34.75,75,33.79Zm-70.24,18a0.77,0.77,0,0,1-.29-0.18A1.39,1.39,0,0,1,4,50.31a1.08,1.08,0,0,1,.73-0.9,1.08,1.08,0,0,0-.68.95,1.39,1.39,0,0,0,.42,1.26,0.77,0.77,0,0,0,.33.15,24.6,24.6,0,0,1,7.62,3.66,8.17,8.17,0,0,1,2.2,2.31,5.42,5.42,0,0,1,.68,4.12,13.9,13.9,0,0,1-3.17,5.84,1.14,1.14,0,0,0-.24.83h0a1.14,1.14,0,0,1,.24-0.88,13.9,13.9,0,0,0,3.13-5.75,5.42,5.42,0,0,0-.68-4.12,8.17,8.17,0,0,0-2.2-2.31A24.6,24.6,0,0,0,4.74,51.78ZM44.31,72a17.07,17.07,0,0,1-3.79,6.74,19.2,19.2,0,0,1-7.09,4.8l-12.75,5H20.59l0.09,0L33.43,83.4a19.2,19.2,0,0,0,7.09-4.8,17.07,17.07,0,0,0,3.79-6.74A20.39,20.39,0,0,0,45.18,66,20.39,20.39,0,0,1,44.31,72Zm58.45-16.3A19.1,19.1,0,0,1,95.38,57H94.24a15.37,15.37,0,0,1-7.47-2.07,18.45,18.45,0,0,1-2.64-1.67,21.47,21.47,0,0,1-3.5-3.42,20.64,20.64,0,0,1-3.35,11.49A19.84,19.84,0,0,1,67.83,69a20.66,20.66,0,0,1-7.62,1.48A21.73,21.73,0,0,1,57,70.28a21.21,21.21,0,0,1-12-6.23s0-.06,0-0.09a21.21,21.21,0,0,0,12,6.23A20.77,20.77,0,0,0,67.83,69a19.82,19.82,0,0,0,9.45-7.71,20.59,20.59,0,0,0,3.35-11.47,21.67,21.67,0,0,0,3.5,3.46A18.88,18.88,0,0,0,86.77,55a17.62,17.62,0,0,0,7.47,2.2,19.14,19.14,0,0,0,8.52-1.43l8.47-3.46Zm13.32-6a1.39,1.39,0,0,0-.48-1.22,0.68,0.68,0,0,0-.4-0.2,16.05,16.05,0,0,1-6.39-2.91,9.69,9.69,0,0,1-2.49-2.77,7.5,7.5,0,0,1-1.09-3.78,7.57,7.57,0,0,0,1.09,3.71,9.69,9.69,0,0,0,2.49,2.77,16.06,16.06,0,0,0,6.39,2.91,0.82,0.82,0,0,1,.42.2A1.43,1.43,0,0,1,116.08,49.7Z"/></svg>