<svg id="Capa_1" data-name="Capa 1" xmlns="http://www.w3.org/2000/svg" viewBox="0 0 120 100"><title>CCS-categories-icons-final</title><path d="M39.16,10.8a7.92,7.92,0,1,0,7.92,7.92A7.93,7.93,0,0,0,39.16,10.8Zm4.2,7.92a4.2,4.2,0,1,1-4.2-4.2A4.21,4.21,0,0,1,43.36,18.72Z"/><path d="M31.9,36.73a7.92,7.92,0,1,0,7.92,7.92A7.93,7.93,0,0,0,31.9,36.73Zm4.2,7.92a4.2,4.2,0,1,1-4.2-4.2A4.21,4.21,0,0,1,36.1,44.66Z"/><path d="M59.45,49.37a7.92,7.92,0,1,0,7.92,7.92A7.93,7.93,0,0,0,59.45,49.37Zm4.2,7.92a4.2,4.2,0,1,1-4.2-4.2A4.21,4.21,0,0,1,63.65,57.29Z"/><path d="M75.84,61.33a7.92,7.92,0,1,0,7.92,7.92A7.93,7.93,0,0,0,75.84,61.33ZM80,69.25a4.2,4.2,0,1,1-4.2-4.2A4.21,4.21,0,0,1,80,69.25Z"/><path d="M70.47,72.21a7.92,7.92,0,1,0,7.92,7.92A7.93,7.93,0,0,0,70.47,72.21Zm4.2,7.92a4.2,4.2,0,1,1-4.2-4.2A4.21,4.21,0,0,1,74.67,80.13Z"/><path d="M47.06,29.36a6.32,6.32,0,0,0-6.31,6.31,3.08,3.08,0,1,0,6.15,0,0.15,0.15,0,0,1,.16-0.16A3.07,3.07,0,1,0,47.06,29.36Z"/><path d="M56.77,14.5a3.07,3.07,0,1,0,0,6.14,0.15,0.15,0,0,1,.16.16A3.07,3.07,0,0,0,60,23.86a3.11,3.11,0,0,0,3.09-3A6.32,6.32,0,0,0,56.77,14.5Z"/><path d="M27.63,32.27a3.07,3.07,0,0,0,3.09-3,6.32,6.32,0,0,0-6.31-6.31,3.07,3.07,0,0,0,0,6.14,0.15,0.15,0,0,1,.16.16A3.07,3.07,0,0,0,27.63,32.27Z"/><path d="M82.8,84.2a3.08,3.08,0,0,0,6.15,0A0.15,0.15,0,0,1,89.11,84a3.07,3.07,0,1,0,0-6.14A6.32,6.32,0,0,0,82.8,84.2Z"/><path d="M90.74,71.12a0.15,0.15,0,0,1,.16.16A3.07,3.07,0,0,0,94,74.34a3.11,3.11,0,0,0,3.09-3A6.32,6.32,0,0,0,90.74,65,3.07,3.07,0,0,0,90.74,71.12Z"/><path d="M71.33,48.46a0.15,0.15,0,0,1,.16.16,3.07,3.07,0,0,0,3.07,3.07,3.11,3.11,0,0,0,3.09-3,6.32,6.32,0,0,0-6.31-6.31A3.07,3.07,0,0,0,71.33,48.46Z"/><path d="M55.31,76.12a3.07,3.07,0,0,0,3.07,3.07,3.11,3.11,0,0,0,3.09-3,6.32,6.32,0,0,0-6.31-6.31,3.07,3.07,0,1,0,0,6.14A0.15,0.15,0,0,1,55.31,76.12Z"/><path d="M109.81,61.16A3.07,3.07,0,0,0,108.61,59a3.16,3.16,0,0,0-2.3-.59,7.06,7.06,0,0,1-1,.08,6.64,6.64,0,0,1-6.57-5.78,3.06,3.06,0,0,0-2.3-2.61A9.88,9.88,0,0,1,89,40.48v0c0-.11,0-0.21,0-0.21a3.05,3.05,0,0,0-2.06-3,1.77,1.77,0,0,1-1.2-1.66,1.88,1.88,0,0,1,.2-0.78,3.1,3.1,0,0,0,0-2.57,3.15,3.15,0,0,0-2-1.67c-1.18-.32-2.37-0.56-3.56-0.77A35.42,35.42,0,0,0,10,35.67,35.27,35.27,0,0,0,39.61,70.61,35.44,35.44,0,0,0,110,64.81C110,63.7,109.94,62.51,109.81,61.16ZM45.27,64.79A29.31,29.31,0,0,1,74.55,35.51c0.76,0,1.52,0,2.29.1l0.43,0c0.76,0.08,1.53.18,2.29,0.32a7.92,7.92,0,0,0,3.31,6.14c0.59,6.05,5.07,11.16,10.74,13.34C95.05,60.35,100,64,105,64.55v0.24c0,16.14-13.72,29.28-29.86,29.28S45.27,80.93,45.27,64.79ZM73.4,29.39l-0.93,0-0.79.06-1,.09L70,29.66l-1.12.16-0.53.09-1.22.23-0.38.09c-0.45.1-.89,0.21-1.34,0.32l-0.22.06c-0.49.13-1,.28-1.46,0.43h0A35.49,35.49,0,0,0,39.13,64.26,29.28,29.28,0,1,1,74,29.36Z"/></svg>