<svg id="Capa_1" data-name="Capa 1" xmlns="http://www.w3.org/2000/svg" viewBox="0 0 120 100"><title>CCS-categories-icons-final</title><path d="M60.51,0C40.65,1.54,22.11,7.7,5.24,20A3,3,0,0,0,4,22.4V73.16a3.08,3.08,0,0,0,2.33,2.89l106,23.89A3.12,3.12,0,0,0,116,97V34.35a3.05,3.05,0,0,0-1.45-2.57L62.29,0.43A3,3,0,0,0,60.51,0h0ZM50.44,7.33C48.84,13.18,45,18.71,34.12,23.75l-19.17-3A97.42,97.42,0,0,1,50.44,7.33h0Zm19,4.34,7.42,4.43c-4.09,2.29-9.46,1.51-13.29,1.17A25.36,25.36,0,0,0,69.47,11.67ZM55.1,22.4a125.61,125.61,0,0,0,15.58,1.21c3.23,1.75,6.32,4.14,7.51,7L48.06,25.94c2.46-1.14,4.8-2.36,7-3.55h0ZM10,26.08L110,41.62v11.8L10,37.93V26.08Zm84.56,0.61L109,35.37,84.67,31.59c1.26-4.63,6.12-5.56,9.89-4.9h0ZM10,61.92L110,77.45V93.27L10,70.73V61.92Z"/></svg>