<svg id="Capa_1" data-name="Capa 1" xmlns="http://www.w3.org/2000/svg" viewBox="0 0 120 100"><title>CCS-categories-icons-final</title><path d="M48,2H8a8,8,0,0,0-8,8V90a8,8,0,0,0,8,8H48a8,8,0,0,0,8-8V10a8,8,0,0,0-8-8h0ZM5.33,20.67H50.67V79.33H5.33V20.67ZM8,7.33H48A2.67,2.67,0,0,1,50.67,10v5.33H5.33V10A2.67,2.67,0,0,1,8,7.33H8ZM48,92.67H8A2.67,2.67,0,0,1,5.33,90V84.67H50.67V90A2.67,2.67,0,0,1,48,92.67h0Z"/><path d="M28,28.67a12,12,0,0,0-12,12V59.33a12,12,0,1,0,24,0V40.67a12,12,0,0,0-12-12h0Zm6.67,22.24L21.33,56.63V49.09l13.33-5.72v7.53ZM28,34a6.67,6.67,0,0,1,6,3.85L21.33,43.29V40.67A6.67,6.67,0,0,1,28,34h0Zm0,32a6.67,6.67,0,0,1-6-3.85l12.69-5.44v2.63A6.67,6.67,0,0,1,28,66h0Z"/><path d="M120,90V10a7.92,7.92,0,0,0-2-5.19,1,1,0,0,0-.15-0.19,1.34,1.34,0,0,1-.11-0.15l-0.12-.11,0,0h0A7.93,7.93,0,0,0,112,2H72a7.92,7.92,0,0,0-5.61,2.32h0a0,0,0,0,1,0,0l-0.12.11-0.11.13-0.16.2A8,8,0,0,0,64,10V90a7.92,7.92,0,0,0,2,5.19l0.16,0.2,0.11,0.13,0.12,0.11,0,0h0A7.88,7.88,0,0,0,72,98h40a7.88,7.88,0,0,0,5.61-2.33,0,0,0,0,0,0,0h0l0.13-.12,0.11-.13c0.05-.07.11-0.12,0.16-0.2A7.91,7.91,0,0,0,120,90h0ZM69.33,11.61l7.35,8.17a2.68,2.68,0,0,0,2,.88h9.56l2.67,2.67-3.45,3.45a2.67,2.67,0,0,0,0,3.77L90.89,34l-3.45,3.45a2.67,2.67,0,0,0,0,3.77l3.45,3.44-3.45,3.45A2.66,2.66,0,0,0,86.67,50a2.62,2.62,0,0,0,.79,1.88l3.44,3.45-3.45,3.45a2.67,2.67,0,0,0,0,3.77L90.89,66l-3.45,3.45a2.67,2.67,0,0,0,0,3.77l3.45,3.44-2.67,2.67H78.67a2.68,2.68,0,0,0-2,.88l-7.35,8.17V11.61Zm10.52,3.72-7.2-8h38.69l-7.2,8H79.85Zm0,69.33h24.29l7.2,8H72.65Zm27.47-4.45a2.67,2.67,0,0,0-2-.88H95.77l0.79-.79a2.67,2.67,0,0,0,0-3.77l-3.45-3.44,3.45-3.45a2.67,2.67,0,0,0,0-3.77l-3.45-3.44,3.45-3.45a2.66,2.66,0,0,0,.77-1.88,2.62,2.62,0,0,0-.79-1.88L93.11,50l3.45-3.45a2.67,2.67,0,0,0,0-3.77l-3.45-3.44,3.45-3.45a2.67,2.67,0,0,0,0-3.77l-3.45-3.44,3.45-3.45a2.67,2.67,0,0,0,0-3.77l-0.79-.77h9.56a2.68,2.68,0,0,0,2-.88l7.35-8.17V88.39Z"/></svg>