<svg id="Capa_1" data-name="Capa 1" xmlns="http://www.w3.org/2000/svg" viewBox="0 0 120 100"><title>CCS-categories-icons-final</title><path d="M102.07,47.89l0,0a10,10,0,0,0-3.84-3.11C99.65,35.32,97.84,27,92.83,20,82.64,5.52,62.54,1.09,56.61.08L56.32,0a2.89,2.89,0,0,0-3.18,2,2.94,2.94,0,0,0,1.55,3.49c1.9,1,4.35,4.21,3.87,7.43-0.49,3.5-5,6.24-12.31,7.51C28.14,23.56,24.6,38.77,23.92,43.85A10.53,10.53,0,0,0,18,47.64a6.77,6.77,0,0,0-1,6.59L31.72,97.71A3.25,3.25,0,0,0,34.48,100H85.59a3.25,3.25,0,0,0,2.76-2.28L103,54.58A7.68,7.68,0,0,0,102.07,47.89ZM47.23,27h0c13-2,16.5-8.4,17.16-12.89a13.32,13.32,0,0,0-.69-6.18C74.9,11.45,83.25,16.71,88,23.42c4,5.69,5.48,12.42,4.42,20.11a12.39,12.39,0,0,0-8.11,2.83,12.38,12.38,0,0,0-8.13-2.76A12.85,12.85,0,0,0,68,46.4a13.18,13.18,0,0,0-16.23,0,12.33,12.33,0,0,0-8.18-2.78A13.39,13.39,0,0,0,37.44,45a2,2,0,0,0,.52-0.8,2.1,2.1,0,0,0-1.29-2.48l-0.89-.3a2,2,0,1,0-1.19,3.77l0.89,0.3a1.26,1.26,0,0,0,.6.1,1.94,1.94,0,0,0,.48-0.07,10,10,0,0,0-1.06.78,10.94,10.94,0,0,0-5.79-2.25C31,37,35.14,29,47.23,27ZM39,51.07c1-1.06,3.29-1.72,5.25-1.72,2.89,0,5.75,1.41,5.75,2.7v0.52L51.69,94H47L42,69.4,38.58,52.49A1.91,1.91,0,0,1,39,51.07ZM55.39,51a7.31,7.31,0,0,1,9.23,0,1.89,1.89,0,0,1,.57,1.32L62.81,88l-0.41,6H57.66L56.47,77.44,54.78,52.31A2,2,0,0,1,55.39,51ZM69.14,73.72L70,52.58V52.05c0-1.31,2.8-2.7,5.73-2.7,2,0,4.08.68,5,1.74a2.24,2.24,0,0,1,.54,1.48L72.9,94H68.19ZM22.7,51.18a6.23,6.23,0,0,1,4.74-1.82c2.68,0,4.8,1.32,5,2.56l0.39,1.64,5.86,29L41,94H36.38L22.45,52.71A2,2,0,0,1,22.7,51.18ZM79,94L87.2,53.85,87.61,52c0.22-1.18,2.35-2.53,5-2.53a6.31,6.31,0,0,1,4.74,1.81,2,2,0,0,1,.14,1.37L83.56,94H79Z"/><path d="M67.63,18.33a1.84,1.84,0,0,0,1.69,1,1.31,1.31,0,0,0,1-.3,1.87,1.87,0,0,0,.7-2.68l-0.79-1.29a2,2,0,1,0-3.38,2Z"/><path d="M83.11,28.56a1.6,1.6,0,0,0,.89.3h0a1.2,1.2,0,0,0,1.19-.69L87,25.58a1.5,1.5,0,0,0-2.48-1.69l-1.79,2.58A1.56,1.56,0,0,0,83.11,28.56Z"/><path d="M76.5,22.6A1.54,1.54,0,0,0,78,21.11V17.44a1.5,1.5,0,0,0-3,0v3.67A1.54,1.54,0,0,0,76.5,22.6Z"/><path d="M36.27,37.59a1.39,1.39,0,0,0,.89-0.3l2.48-1.89A1.49,1.49,0,1,0,37.85,33l-2.48,1.89a1.45,1.45,0,0,0-.3,2.08A1.55,1.55,0,0,0,36.27,37.59Z"/><path d="M57.21,42.33A1.9,1.9,0,0,0,58.6,44H59c0.79,0,1.29-1.57,1.09-2.36l-0.7-2.87a1.58,1.58,0,0,0-1.79-1.24,1.71,1.71,0,0,0-1.09,2Z"/><path d="M43.71,38.08a1.44,1.44,0,0,0,0,2.08l2.18,2.08a1.15,1.15,0,0,0,1,.4,2.08,2.08,0,0,0,1.09-.4,1.44,1.44,0,0,0,0-2.08l-2.18-2.08A1.44,1.44,0,0,0,43.71,38.08Z"/><path d="M81.82,42.85a1.43,1.43,0,0,0,1.29.79c0.3,0,.5-0.1.69-0.1a1.43,1.43,0,0,0,.7-2l-1-2.08a1.49,1.49,0,0,0-2.68,1.29Z"/><path d="M88.37,37.49a1.26,1.26,0,0,0,.6.1,1.48,1.48,0,0,0,1.39-.79l0.89-1.89a1.49,1.49,0,0,0-2.68-1.29L87.68,35.5A1.39,1.39,0,0,0,88.37,37.49Z"/><path d="M61.48,25.48a1.6,1.6,0,0,0,1.09.5h0a1.92,1.92,0,0,0,1-.3,1.44,1.44,0,0,0,.1-2.08L62.27,22a1.48,1.48,0,1,0-2.18,2Z"/><path d="M73.39,30.34l2.28,1a1.87,1.87,0,0,0,.79.2,2,2,0,0,0,1.89-1.19,2.12,2.12,0,0,0-1-2.68l-2.28-1A2,2,0,1,0,73.39,30.34Z"/><path d="M52.44,33.41L53.73,34h0.1c1,0,1.89-1.28,1.89-2.37a2.31,2.31,0,0,0-1.89-2.33l-1.19-.22a2.15,2.15,0,0,0-2.08,2.07A2.24,2.24,0,0,0,52.44,33.41Z"/><path d="M67.83,36a1.92,1.92,0,0,0-.1,2.78l1.19,1.29a2.19,2.19,0,0,0,1.49.6h0a2.09,2.09,0,0,0,1.29-.5,1.92,1.92,0,0,0,.1-2.78L70.61,36.1A1.92,1.92,0,0,0,67.83,36Z"/><path d="M45.5,32c1.09,0,2.5-.89,2.5-2v-1c0-1.09-1.41-2-2.5-2s-2.5.89-2.5,2v1C43,31.14,44.41,32,45.5,32Z"/><path d="M61.57,29.65a2,2,0,0,0,.7,2.68l0.89,0.5a1.68,1.68,0,0,0,1,.3,2,2,0,0,0,1.69-1,2,2,0,0,0-.7-2.68L64.25,29A2,2,0,0,0,61.57,29.65Z"/></svg>