<svg id="Capa_1" data-name="Capa 1" xmlns="http://www.w3.org/2000/svg" viewBox="0 0 120 100"><title>CCS-categories-icons-final</title><g id="Capa_2" data-name="Capa 2"><g id="Capa_1-2" data-name="Capa 1-2"><path d="M119,23.19c-1.19-1.8-2.49-3.36-3.74-4.93a10.14,10.14,0,0,0-5.2-3.52h0a9.79,9.79,0,0,0-1.87-.21H108a28,28,0,0,0-3.08,0,33.62,33.62,0,0,1-8.51-1.21c-1.05-.27-2.12-0.62-3.2-1a13.7,13.7,0,0,1-1.76-.78,19.15,19.15,0,0,0-3-1.19H88a12.21,12.21,0,0,0-7.44.8l-1.83.66a13.7,13.7,0,0,1-7.6,1.26,3.47,3.47,0,0,0-1.76,0L65.73,14l0.5,2.1-0.84-2L61.62,15a6.51,6.51,0,0,1-3.36.18,4.57,4.57,0,0,1-2-1.26,9.31,9.31,0,0,0-4-2.28,8.61,8.61,0,0,0-5.39.32,6.35,6.35,0,0,1-1.85.34,20.09,20.09,0,0,0-8.74,2.53,29.2,29.2,0,0,0-6.28,4.57,17.28,17.28,0,0,1-6.85,3.72,11.78,11.78,0,0,0-3.68,2.05,12.17,12.17,0,0,0-3.79,10.64,21.82,21.82,0,0,1-1.83,9,7.4,7.4,0,0,0,1.69,9.36c0.66,0.66,1.3,1.37,2,2.1-0.8.32-1.62,0.62-2.44,0.87a28.33,28.33,0,0,1-2.92.64l-2.28.53A7.58,7.58,0,0,0,5.24,60.4a5.48,5.48,0,0,1-.91.87,14.72,14.72,0,0,0-1.51,1.42A12.9,12.9,0,0,0,.9,66.06l-0.23.5a5.34,5.34,0,0,0,0,2.1,2.83,2.83,0,0,1,0,.62V70L1.15,70.6C1.31,70.79,1.45,71,1.49,71a5.78,5.78,0,0,0,3.42,2.88H5.35a7.9,7.9,0,0,0,4.86-.82,2.81,2.81,0,0,0,1-.23,14.24,14.24,0,0,1,7.35-.55,13.49,13.49,0,0,0,6.6-.94,10.41,10.41,0,0,0,3.54,6.51L28.86,78a30.11,30.11,0,0,1,8.67,8.9,5.91,5.91,0,0,0,3.68,2.74,7.69,7.69,0,0,0,1.76.21,7.56,7.56,0,0,0,4-1.16l0.66-.41a11.87,11.87,0,0,1,2.74-1.48,15.34,15.34,0,0,1,9.13-.3L61,86.95a6.14,6.14,0,0,0,2.94.14,12.78,12.78,0,0,0,6-2.67c0.64-.43,1.3-0.87,2-1.26a6.85,6.85,0,0,0,3-2.28c0.23-.32.43-0.66,0.64-1,0.87-1.46,1.1-1.58,1.76-1.55A2.28,2.28,0,0,0,79,77.61l3.45-2.28L83,75l2.88-1.83h0.3a6.12,6.12,0,0,0,6-3.47,9.82,9.82,0,0,1,3.47-4.57l0.68-.43,0.16,0.07a28.81,28.81,0,0,0,3-2.08l0.43-.37a13.24,13.24,0,0,0,4.57-5.43l0.16-.46a2.28,2.28,0,0,1,1.35-1.71,24.42,24.42,0,0,0,4.57-2.81l1.48-1.07a11.62,11.62,0,0,0,5-6.44,24.08,24.08,0,0,0,.39-2.47,18.26,18.26,0,0,1,.41-2.12l0.55-2.28c0.53-2.28,1-4.57,1.71-6.85A8.24,8.24,0,0,0,119,23.19Zm-10.64,16.6L108,39l-3.61-1.85-0.94,2.05-1.26,2.6L102,42c-0.89,1.83-1.89,3.88-2.74,6.12a9.93,9.93,0,0,0-.48,3.61,15.55,15.55,0,0,1-.16,1.69A5.2,5.2,0,0,1,96.54,57c0-1.8.18-3.58,0.25-5.41V50.45l-0.91-.68a4.34,4.34,0,0,0-1.26-.64,3.1,3.1,0,0,0-3.72,2A12.49,12.49,0,0,0,90.24,53c-0.59,2.28-1.19,4.45-1.89,6.71A36.86,36.86,0,0,1,87,63.32c-0.34.87-.73,1.76-1,2.47A2.28,2.28,0,0,1,84.19,67H83.9q-1.1.32-2.12,0.68c0.34-1.39.57-2.81,0.82-4.2a32.6,32.6,0,0,1,1-4.91A3.13,3.13,0,0,0,84.08,56V55.17l-1.62-1.26-0.91.21a2.76,2.76,0,0,0-1.73,1.05l-0.14.21L78.4,57.45a40.84,40.84,0,0,0-3.26,5.8,89.66,89.66,0,0,0-3.38,9.34,3.65,3.65,0,0,1-.64,1.12l-0.55.82-0.18.34a2.28,2.28,0,0,0-.27.62c-0.94,2.67-3.1,3.29-6.57,4.06l-0.78.18a2.42,2.42,0,0,1-1.19,0l-0.87-.3L59.24,79a20.27,20.27,0,0,0-13.7,1.94l-1.32.59-0.62.27h0l-0.27-.34a29.54,29.54,0,0,0-1.92-2.28,24.14,24.14,0,0,1-1.87-2.28,22.21,22.21,0,0,0-5.66-5.27c-0.39-.25-0.48-0.43-0.53-1.87v-5.5a4.18,4.18,0,0,0-1.48-2.65,16.12,16.12,0,0,1-5.41-9.75,9.7,9.7,0,0,0-.14-1.78l2.28-8.33-6.09,6.55-0.14.14c-0.62-.41-1.28-0.87-1.89-1.35V46.59a8.15,8.15,0,0,1,.41-1.92A30.11,30.11,0,0,0,22.63,34a3.93,3.93,0,0,1,3.65-4.11h0.37a17.26,17.26,0,0,0,9.36-6l1.19-1.23V22.51a6.39,6.39,0,0,1,3-2.28A12.85,12.85,0,0,1,42.35,20H42.7A4,4,0,0,0,44,19.84l2-.23,3.24-.5a6.23,6.23,0,0,1,1.94.18,4.57,4.57,0,0,1,1.35.62,4,4,0,0,0,2.58,2.53h0.32a6.25,6.25,0,0,0,2.53,0h0.48c1.42-.23,2.85-0.55,4.34-0.84a48.67,48.67,0,0,1,5.07-.94,20,20,0,0,1,7.9,0h0.5a8.38,8.38,0,0,0,1.69.25,4.57,4.57,0,0,1,.84,0c0.59,0.16,1.16.37,1.89,0.64S82,22,82.57,22.16l1,0.32c0.78,0.27,1.58.57,2.28,0.78a11,11,0,0,0,1.73.34,9.61,9.61,0,0,1,1.37.25,7.19,7.19,0,0,1,4,2.81,8,8,0,0,0,2.28,2.28l0.71,0.34h0.62a3.93,3.93,0,0,0,1.78-.18h0.37l3.2-.43-1.64-2.78h0a4.88,4.88,0,0,0-1-1.62c-0.5-.53-1-1-1.53-1.48A16.76,16.76,0,0,1,95.93,21l-0.59-.64,1.42,0.37c1.23,0.32,2.53.66,3.83,0.87q1.21,0.18,2.4.27a17.12,17.12,0,0,1,2.05.23h1.07a13.33,13.33,0,0,1,2.28.32,2.28,2.28,0,0,1,.5.18,8.58,8.58,0,0,1,4.2,8.49,71.79,71.79,0,0,1-4.57,13.35V44.6l-0.34.27c0.3-.91.57-1.89,0.8-2.92A5.52,5.52,0,0,0,108.32,39.79Z"/><path d="M85.47,28.74A2.08,2.08,0,0,0,84,28.6c-2.74,1.19-5.5,2.49-7.94,3.49-2.12-2.1-4-4.13-5.93-5.93a4,4,0,0,0-2.28-.87,37.64,37.64,0,0,0-6.21.37,5.82,5.82,0,0,0-2.28,1.05,2.76,2.76,0,0,0,.21.71c2.9,0.11,5.5.32,8.13,0.53h0a1.55,1.55,0,0,1,.91,0c1.87,1.51,3.72,3.17,5.62,4.68a6.46,6.46,0,0,1-.34.82c-2.47-.3-4.91-0.68-7.26-0.94a1.39,1.39,0,0,1-.23.32,8.33,8.33,0,0,0,1.92,1.42c1.37,0.62,2.76,1.12,4.27,1.64a2.69,2.69,0,0,0,1.53,0,54,54,0,0,0,5.14-2.58,7.26,7.26,0,0,1,8.72-.21,15.61,15.61,0,0,0,4.57,1.6,2.41,2.41,0,0,0,1.37-.8c0.37-.41-0.14-0.91-0.46-1.14C90.77,31.32,88.19,30,85.47,28.74Z"/><path d="M48.61,59.74a3.58,3.58,0,0,0,1.3-1.37,14.77,14.77,0,0,0,0-7.3,28.78,28.78,0,0,0-5.07-8.26,27.39,27.39,0,0,1-2-3.45c-1.26,1.26-1.26,1.26-.82,4,0.43,2.28.3,4.86,2.47,6.64a9.91,9.91,0,0,1,3.4,7.9A5.39,5.39,0,0,0,48.61,59.74Z"/><path d="M75.09,48.46a1.54,1.54,0,0,0-.87.59h0a15.13,15.13,0,0,1-3.58,6.3c-2.49,2.67-5.09,5.3-7.78,7.78a18.26,18.26,0,0,1-3.58,2.28c3.1,0.82,5.46-.8,7.85-3.13s4.31-5.52,7.69-7A2.28,2.28,0,0,0,76,53.71a30.5,30.5,0,0,0-.16-4.34A1.28,1.28,0,0,0,75.09,48.46Z"/><path d="M56.6,70.69a12.42,12.42,0,0,1-6.71-.27c-3.54-.82-7-1.89-10.55-2.83h0a2.34,2.34,0,0,0-.68-0.18c-0.25.07-1.19,0.18-1.71,0.3A4.58,4.58,0,0,0,38,69c1.12,0.55,2.47.66,3.45,1.19,2,0.91,4,2.05,6,3.1C48.61,73.84,50,75.21,51,74.85a30.73,30.73,0,0,0,6.28-3.24,2.82,2.82,0,0,0,.27-0.55A1.35,1.35,0,0,0,56.6,70.69Z"/><path d="M52.17,25.68c0.39,0,.66-1.12.8-1.64a5.79,5.79,0,0,0-1.69-.62,6.85,6.85,0,0,0-2.4.64,22.83,22.83,0,0,0-8.35,4.84,27.8,27.8,0,0,1-7.69,5.18c-2,1.14-4.18,1.69-6.48,2.74,2.81,2.63,10.66-.32,13.08-2.44C43.31,31,46.53,26.59,52.17,25.68Z"/></g></g></svg>