<svg id="Capa_1" data-name="Capa 1" xmlns="http://www.w3.org/2000/svg" viewBox="0 0 120 100"><title>CCS-categories-icons-final</title><path d="M7.73,82.86a7.3,7.3,0,0,0,2-.26,7.68,7.68,0,0,0,13.12,3.22,7.72,7.72,0,0,0,11.83-6.51,7,7,0,0,0-.14-1.45A7.53,7.53,0,0,0,36,77.14a7.71,7.71,0,0,0,7.43,5.72,8.35,8.35,0,0,0,2-.26,7.68,7.68,0,0,0,13.12,3.22A7.63,7.63,0,0,0,62.58,87a7.73,7.73,0,0,0,7.72-7.7,6.71,6.71,0,0,0-.14-1.43,7.66,7.66,0,0,0,5.06-7.21,7.6,7.6,0,0,0,5.84,3,7.71,7.71,0,0,0,4.45,4.23,7,7,0,0,0-.14,1.43,7.7,7.7,0,0,0,11.81,6.51,7.68,7.68,0,0,0,13.12-3.22,7.48,7.48,0,0,0,2,.26,7.7,7.7,0,0,0,2.5-15,7.7,7.7,0,0,0-11.87-8.56A7.63,7.63,0,0,0,96,55a7.54,7.54,0,0,0-2.34.4A7.66,7.66,0,0,0,90.73,50a7.83,7.83,0,0,0,.87-4.19,7.73,7.73,0,0,0-8.28-7.09,6.76,6.76,0,0,0-1.41.26,7.73,7.73,0,0,0-5.4-4.35,7.69,7.69,0,0,0-4.65-10.21A7.7,7.7,0,0,0,60,15.91a7.64,7.64,0,0,0-6.89-4.25,7.73,7.73,0,0,0-7.72,7.7v0.18a7.77,7.77,0,0,0-7.88,7.68,7.61,7.61,0,0,0,1.09,3.89,7.68,7.68,0,0,0-5.2,5.6,7.39,7.39,0,0,0-2.8-.54,7.68,7.68,0,0,0-7.68,7.64,7.54,7.54,0,0,0,1.41,4.43,7.62,7.62,0,0,0-3.63,6.51,8.53,8.53,0,0,0,.08,1,7.69,7.69,0,0,0-3.67,3.55A7.71,7.71,0,0,0,5.2,67.85,7.68,7.68,0,0,0,0,75.12a7.76,7.76,0,0,0,7.73,7.74h0ZM69,75.1a7.61,7.61,0,0,0-2.38-2.32,1.48,1.48,0,1,0-1.57,2.52,4.64,4.64,0,0,1,1.83,2.08s0,0,0,0a4.85,4.85,0,0,1,.4,1.87,4.73,4.73,0,0,1-7.33,4,7.7,7.7,0,0,0,.46-2.6,7.44,7.44,0,0,0-.24-1.83,1.49,1.49,0,0,0-1.81-1.07,1.47,1.47,0,0,0-1.07,1.81,4.44,4.44,0,0,1,.14,1.09,4.74,4.74,0,0,1-.58,2.26,0.07,0.07,0,0,0,0,0,4.64,4.64,0,0,1-4.09,2.4,4.71,4.71,0,0,1-4.27-6.65,1.48,1.48,0,1,0-2.7-1.23,7.81,7.81,0,0,0-.58,2,4.64,4.64,0,0,1-1.83.44,4.75,4.75,0,0,1-4.75-4.75A4.39,4.39,0,0,1,38.8,74a5,5,0,0,1,.38-1s0,0,0-.06a4.69,4.69,0,0,1,3.24-2.38A7.72,7.72,0,0,0,47,73.11a0.9,0.9,0,0,0,.22,0,1.51,1.51,0,0,0,1.47-1.27,1.48,1.48,0,0,0-1.25-1.69,4.75,4.75,0,0,1-3.22-2l0,0a4.91,4.91,0,0,1-.75-2.6A4.57,4.57,0,0,1,44.22,63l0.06-.08a0.07,0.07,0,0,1,0,0A4.58,4.58,0,0,1,49.54,61a4.65,4.65,0,0,1,2.4,1.69v0a7.56,7.56,0,0,0,1.75,4.84A1.49,1.49,0,1,0,56,65.69a4.6,4.6,0,0,1-1.07-3,2.45,2.45,0,0,1,0-.38v0A4.68,4.68,0,0,1,59.65,58a4.74,4.74,0,0,1,4.75,4.73,5.43,5.43,0,0,1-.12,1,7.72,7.72,0,0,0-3.65,3.67,1.5,1.5,0,0,0,.73,2,1.39,1.39,0,0,0,.62.14,1.49,1.49,0,0,0,1.35-.87,4.65,4.65,0,0,1,2.6-2.42,0.22,0.22,0,0,1,.1,0,4,4,0,0,1,1.51-.28,4.74,4.74,0,0,1,4.73,4.73A4.69,4.69,0,0,1,69,75.1h0Zm31.71-12.75h0a2.58,2.58,0,0,1,0,.38,4.71,4.71,0,0,1-1.07,3,1.51,1.51,0,0,0,.22,2.11,1.54,1.54,0,0,0,.93.34,1.44,1.44,0,0,0,1.15-.56,7.56,7.56,0,0,0,1.75-4.84v0a4.65,4.65,0,0,1,3.73-1.91,4.74,4.74,0,0,1,4.73,4.73,4.86,4.86,0,0,1-.77,2.6,4.75,4.75,0,0,1-3.22,2,1.49,1.49,0,0,0,.22,3,0.76,0.76,0,0,0,.22,0,7.7,7.7,0,0,0,4.63-2.58A4.69,4.69,0,0,1,117,75.14a4.74,4.74,0,0,1-4.73,4.73,4.8,4.8,0,0,1-1.83-.42,7.28,7.28,0,0,0-.58-2,1.48,1.48,0,1,0-2.7,1.23,5,5,0,0,1,.44,1.91v0a4.72,4.72,0,0,1-4.71,4.73,4.65,4.65,0,0,1-4.11-2.4,0.07,0.07,0,0,1,0,0,4.74,4.74,0,0,1-.58-2.26,4.45,4.45,0,0,1,.14-1.09,1.49,1.49,0,0,0-2.9-.71,7.41,7.41,0,0,0-.24,1.81,7.7,7.7,0,0,0,.46,2.6,4.72,4.72,0,0,1-7.31-4,4.81,4.81,0,0,1,.4-1.89,4.55,4.55,0,0,1,1.83-2.08A1.48,1.48,0,1,0,89,72.8a7.61,7.61,0,0,0-2.38,2.32,4.72,4.72,0,0,1,1.49-9.19,4.14,4.14,0,0,1,1.51.26,0.18,0.18,0,0,0,.1,0,4.65,4.65,0,0,1,2.62,2.44,1.52,1.52,0,0,0,1.35.87,1.33,1.33,0,0,0,.62-0.14,1.5,1.5,0,0,0,.73-2,7.72,7.72,0,0,0-3.65-3.67,4,4,0,0,1-.12-1A4.74,4.74,0,0,1,96,58a4.69,4.69,0,0,1,4.72,4.32h0Zm-21.46-22a7.63,7.63,0,0,0-2.12,2.56,1.5,1.5,0,0,0,.64,2,1.41,1.41,0,0,0,.68.16,1.52,1.52,0,0,0,1.33-.81,4.73,4.73,0,0,1,3.79-2.54,4.72,4.72,0,0,1,4.49,7,7.35,7.35,0,0,0-2.62-.26,6.72,6.72,0,0,0-1.79.38,1.5,1.5,0,0,0-.93,1.89,1.48,1.48,0,0,0,1.89.93,4.72,4.72,0,0,1,1.07-.24,4.66,4.66,0,0,1,2.32.42l0,0a4.64,4.64,0,0,1,2.7,3.91,4.4,4.4,0,0,1-.16,1.53,7.65,7.65,0,0,0-2.24,5.42v0.18a7.71,7.71,0,0,0-7.88,7.62,4.77,4.77,0,0,1-3.83-4,1.5,1.5,0,0,0-.91-1.19,1.54,1.54,0,0,0-1.49.2,4.47,4.47,0,0,1-.62.38,7.59,7.59,0,0,0-6.27-3V62.71a7.53,7.53,0,0,0-.46-2.5,4.77,4.77,0,0,1,1.31-1.91h0a7.57,7.57,0,0,0,4.69-2.12,1.49,1.49,0,1,0-2-2.16A4.65,4.65,0,0,1,68,55.32a2.45,2.45,0,0,1-.38,0A4.74,4.74,0,0,1,64,47.54a4.62,4.62,0,0,1,3.22-1.63,4.14,4.14,0,0,1,1,.06,7.63,7.63,0,0,0,4,3.36,1.59,1.59,0,0,0,.52.1,1.49,1.49,0,0,0,1.39-1,1.48,1.48,0,0,0-.87-1.91,4.67,4.67,0,0,1-2.66-2.48v0a4.81,4.81,0,0,1-.38-1.49,4.69,4.69,0,0,1,4.35-5.06,4.77,4.77,0,0,1,4.72,2.9h0Zm-34-17.85a4.41,4.41,0,0,1,1.51.28,0.26,0.26,0,0,0,.12,0,4.67,4.67,0,0,1,2.58,2.42,1.52,1.52,0,0,0,1.35.87A1.33,1.33,0,0,0,51.4,26a1.48,1.48,0,0,0,.73-2,7.63,7.63,0,0,0-3.65-3.67,4,4,0,0,1-.12-1,4.73,4.73,0,0,1,9.45-.42v0c0,0.12,0,.26,0,0.38a4.71,4.71,0,0,1-1.07,3A1.51,1.51,0,0,0,57,24.41a1.54,1.54,0,0,0,.93.34,1.44,1.44,0,0,0,1.15-.56,7.56,7.56,0,0,0,1.75-4.84,4.59,4.59,0,0,1,3.73-1.91,4.74,4.74,0,0,1,4.73,4.73,4.89,4.89,0,0,1-.75,2.6,0,0,0,0,0,0,0,4.75,4.75,0,0,1-3.22,2,1.49,1.49,0,0,0,.22,3,0.76,0.76,0,0,0,.22,0,7.7,7.7,0,0,0,4.63-2.58,4.7,4.7,0,0,1,3.79,4.59,4.79,4.79,0,0,1-1.09,3,7.45,7.45,0,0,0-4,2.44,7.71,7.71,0,0,0-1.83,5.62,0.35,0.35,0,0,0,0,.14H67.09a7.7,7.7,0,0,0-5.56,12.31A7.3,7.3,0,0,0,59.67,55a7.75,7.75,0,0,0-4.53,1.47,7.56,7.56,0,0,0,.32-4.78,6.89,6.89,0,0,0-.5-1.35,7.71,7.71,0,0,0-.5-13,7.61,7.61,0,0,0-5.84-.77l-0.2.06a0.59,0.59,0,0,1,0-.2,7.67,7.67,0,0,0-1.93-3.36,4.62,4.62,0,0,1,1.27-1.21,1.48,1.48,0,0,0-1.57-2.52,7.81,7.81,0,0,0-2.16,2,7.24,7.24,0,0,0-1.65-.52,4.79,4.79,0,0,1-1.81-3.67,4.67,4.67,0,0,1,4.69-4.69h0ZM26.69,50.46a7.63,7.63,0,0,0,4,1.17,9.15,9.15,0,0,0,1.27-.1,1.49,1.49,0,1,0-.48-2.94,4.74,4.74,0,0,1-3.67-.91s0,0,0-.06a4.68,4.68,0,0,1,2.84-8.42,4.77,4.77,0,0,1,2.8,1c0,0.1,0,.2.06,0.28a7.56,7.56,0,0,0,2.94,4.23,1.43,1.43,0,0,0,.87.28,1.52,1.52,0,0,0,1.21-.62,1.5,1.5,0,0,0-.34-2.08,4.61,4.61,0,0,1-1.81-2.6,2.47,2.47,0,0,1-.08-0.38s0,0,0-.06V39.08a4.68,4.68,0,0,1,3.47-5.2,4.69,4.69,0,0,1,5.76,3.34,5.85,5.85,0,0,1,.14,1,7.65,7.65,0,0,0-2.58,4.49,1.49,1.49,0,0,0,1.21,1.73,1.15,1.15,0,0,0,.26,0A1.51,1.51,0,0,0,46,43.19a4.69,4.69,0,0,1,1.91-3L48,40.11a3.79,3.79,0,0,1,1.37-.62A4.64,4.64,0,0,1,53,40a4.73,4.73,0,0,1,.22,8,7.66,7.66,0,0,0-2.9-1.65,1.51,1.51,0,0,0-1.87,1,1.49,1.49,0,0,0,1,1.87,4.67,4.67,0,0,1,2.28,1.53v0a4.45,4.45,0,0,1,.87,1.73A4.71,4.71,0,0,1,49.86,58a7.12,7.12,0,0,0-1.59-.2,7.62,7.62,0,0,0-1.67.2,9.83,9.83,0,0,0-.28-2.48,7.58,7.58,0,0,0-.69-1.69A1.49,1.49,0,1,0,43,55.28a4,4,0,0,1,.42,1,7.93,7.93,0,0,1,0,3.2A7.83,7.83,0,0,0,42,61a4.55,4.55,0,0,1-2,1.07,4.7,4.7,0,0,1-3.57-.5,4.61,4.61,0,0,1-2.16-2.88s0,0,0-.06a4.82,4.82,0,0,1-.08-1.93A1.47,1.47,0,0,0,33,55a1.49,1.49,0,0,0-1.71,1.21,8,8,0,0,0,0,2.18,4.2,4.2,0,0,1-1.75.89,4.77,4.77,0,0,1-5.6-3,5.06,5.06,0,0,1-.24-1.49,4.56,4.56,0,0,1,3-4.31h0ZM6.79,70.55a7.64,7.64,0,0,0,4.63,2.58,0.9,0.9,0,0,0,.22,0,1.51,1.51,0,0,0,1.47-1.27,1.48,1.48,0,0,0-1.25-1.69,4.75,4.75,0,0,1-3.22-2v0a4.67,4.67,0,0,1-.77-2.6,4.69,4.69,0,0,1,8.46-2.82v0a7.56,7.56,0,0,0,1.75,4.84,1.49,1.49,0,1,0,2.3-1.89,4.6,4.6,0,0,1-1.07-3,2,2,0,0,1,0-.34v0a4.68,4.68,0,0,1,2.44-3.73,7.65,7.65,0,0,0,6.65,3.83,6.82,6.82,0,0,0,1.85-.24,7.41,7.41,0,0,0,2-.79A7.55,7.55,0,0,0,35,64.16a7.67,7.67,0,0,0,3.87,1.05A7.5,7.5,0,0,0,40.61,65a4.59,4.59,0,0,0,0,.52,7.78,7.78,0,0,0,.36,2.34,7.62,7.62,0,0,0-4.31,3.67A7,7,0,0,0,36,72.93a4.64,4.64,0,0,1-2.64,2.14A7.69,7.69,0,0,0,31,72.77a1.48,1.48,0,1,0-1.57,2.52,4.64,4.64,0,0,1,1.83,2.08,4.94,4.94,0,0,1,.4,1.89A4.74,4.74,0,0,1,27,84a4.69,4.69,0,0,1-2.58-.77,7.7,7.7,0,0,0,.46-2.6,7.41,7.41,0,0,0-.24-1.81,1.52,1.52,0,0,0-1.81-1.09,1.5,1.5,0,0,0-1.09,1.81,4.44,4.44,0,0,1,.14,1.09,4.66,4.66,0,0,1-.58,2.24l-0.06.06a4.64,4.64,0,0,1-4.09,2.4,4.74,4.74,0,0,1-4.69-4.84,5,5,0,0,1,.42-1.83,1.48,1.48,0,1,0-2.7-1.23,8.09,8.09,0,0,0-.58,2,4.51,4.51,0,0,1-1.83.4A4.74,4.74,0,0,1,3,75.09a4.65,4.65,0,0,1,3.77-4.54h0Z"/></svg>