<svg id="Capa_1" data-name="Capa 1" xmlns="http://www.w3.org/2000/svg" viewBox="0 0 120 100"><title>CCS-categories-icons-final</title><path d="M33.56,93C28,93,22.74,90.61,17.93,85.8c-4.5-4.5-6.68-9.6-6.48-15.16C11.87,59.32,22.13,50.33,22.57,50a2.27,2.27,0,0,1,3,3.44h0c-0.09.08-9.22,8.1-9.55,17.44-0.15,4.24,1.58,8.19,5.15,11.76,4.35,4.35,9,6.31,13.91,5.83,7.94-.78,14-7.57,14.89-8.87a2.27,2.27,0,0,1,3.78,2.52C52.44,84,45.16,92,35.5,92.94Q34.53,93,33.56,93Z"/><path d="M60.31,99.36c-9.15,0-17.07-9-17.42-9.38a2.27,2.27,0,0,1,3.43-3c0.12,0.13,7.77,8.78,15.24,7.73,3.86-.54,7.19-3.73,9.89-9.47l0.39-.84,0.86-.32c9.31-3.49,11.2-9.85,11.13-14.56-0.11-7.9-5.9-16.55-12.65-18.87a2.27,2.27,0,0,1,1.48-4.3c8.54,2.94,15.59,13.31,15.72,23.11C88.46,74.41,86.8,83.27,75.17,88c-3.35,6.71-7.72,10.48-13,11.21A13.48,13.48,0,0,1,60.31,99.36Z"/><path d="M16.6,62.75a2.26,2.26,0,0,1-1.06-.26c-0.36-.19-8.72-4.68-11-12.73-1.22-4.24-.55-8.62,2-13,3-5.15,6.92-8.23,11.68-9.16,8.14-1.58,15.57,3.8,17,4.89a2.27,2.27,0,0,1-2.79,3.59c-0.69-.54-7-5.25-13.32-4-3.42.66-6.31,3-8.62,7C8.54,42.31,8,45.49,8.88,48.5c1.78,6.21,8.72,9.93,8.79,10A2.27,2.27,0,0,1,16.6,62.75Z"/><path d="M54.09,35.65a2.27,2.27,0,0,1-2.15-1.54c0-.13-3.7-10.6-10.53-11.79-5.39-.94-11.09,4.54-14.9,9.31A2.27,2.27,0,0,1,23,28.8c6.67-8.34,13.14-12,19.25-10.95,9.49,1.67,13.86,14.27,14,14.8A2.27,2.27,0,0,1,54.09,35.65Z"/><path d="M21.79,31.11a2.25,2.25,0,0,1-1.73-.8C17,26.72,13.52,17.6,22,8.75A2.27,2.27,0,0,1,25.45,9c7.47,10.36,5.93,15.9,5.73,16.5a2.27,2.27,0,0,1-4.31-1.44h0s0.71-3.29-3.44-9.94c-4.78,6.94-.44,12.58.12,13.26A2.27,2.27,0,0,1,21.79,31.11Z"/><path d="M44.15,23A2.27,2.27,0,0,1,42,20.08c1.47-4.92,7-13.71,17.57-13C70-3.37,76.21-.18,81.23,2.39l1,0.5a2.27,2.27,0,0,1-2,4.06l-1-.52C74.39,4,70.63,2.07,62.05,11a2.27,2.27,0,0,1-1.93.68c-10.33-1.32-13.66,9.24-13.8,9.69A2.28,2.28,0,0,1,44.15,23Z"/><path d="M91.58,28.43A2.27,2.27,0,0,1,91,23.95c2.55-.64,6.7-3.24,8-7,1-2.91.09-6.08-2.63-9.43C94.43,5.1,92.42,4,90.28,4.13c-4.72.26-9.57,6.26-11,8.55a2.27,2.27,0,0,1-3.83-2.45C75.67,9.81,82,0,90-.41c3.69-.22,7,1.48,9.88,5,4.68,5.77,4.44,10.65,3.41,13.73-1.93,5.77-7.74,9.15-11.17,10A2.27,2.27,0,0,1,91.58,28.43Z"/><path d="M41.45,77.21l-0.27,0a2.27,2.27,0,0,1-2-2.52c0-.1.48-4.8-2.22-7.63-1.65-1.73-4.27-2.49-7.79-2.26a2.27,2.27,0,1,1-.29-4.54c4.94-.32,8.78.92,11.4,3.69,4.18,4.41,3.46,11,3.42,11.27A2.27,2.27,0,0,1,41.45,77.21Z"/><path d="M83,59.27l-1.32-4.35-0.1,0s3.38-1.54,2.13-10.65a2.27,2.27,0,0,1,2-2.57c4.82-.47,11-1.88,12.8-5.93,2.31-5.06-2.63-12.1-2.68-12.17A2.27,2.27,0,0,1,99.52,21c0.27,0.37,6.52,9.22,3.13,16.68-2,4.41-6.78,7.2-14.23,8.31C89.22,57,83.66,59.06,83,59.27Z"/><path d="M69,42.43A2.27,2.27,0,0,1,67.73,42c-3.64-2.43-5.76-5.5-6.28-9.12C60.76,28.17,62.87,22.82,67.7,17a2.27,2.27,0,0,1,3.68.27c4.11,6.73,5.5,12.66,4.13,17.62A12.07,12.07,0,0,1,70,42.17,2.27,2.27,0,0,1,69,42.43Zm0.15-19.81c-2.49,3.64-3.59,6.94-3.2,9.66a8,8,0,0,0,3,5,7.93,7.93,0,0,0,2.17-3.73C71.94,30.63,71.25,26.88,69.15,22.62Z"/><path d="M68.06,79.06a17.49,17.49,0,0,1-10-2.69,12.06,12.06,0,0,1-5.15-7.49,2.27,2.27,0,0,1,.85-2.15c3.46-2.68,7-3.71,10.64-3.06,4.73,0.86,9.14,4.55,13.1,11a2.27,2.27,0,0,1-1.43,3.41A36.23,36.23,0,0,1,68.06,79.06ZM57.85,69.42a7.93,7.93,0,0,0,2.85,3.24c2.56,1.68,6.33,2.21,11,1.58-2.66-3.52-5.44-5.61-8.14-6.1A8,8,0,0,0,57.85,69.42ZM55.17,67h0Z"/><path d="M70.8,61.85a2.27,2.27,0,0,1-2.08-1.35c-0.19-.42-4.47-10.11-14.07-10.11-0.1,0-.2-0.39-0.29-0.39h0c-1.23,0-2.25-.6-2.27-1.84A2.11,2.11,0,0,1,54.27,46c0.13,0,.27.09,0.4,0.09,12.6,0,18,12,18.22,12.48A2.33,2.33,0,0,1,70.8,61.85Z"/></svg>