<svg id="Capa_1" data-name="Capa 1" xmlns="http://www.w3.org/2000/svg" viewBox="0 0 120 100"><title>CCS-categories-icons-final</title><path d="M103.16,1.86A5.27,5.27,0,0,0,99.5,0H20.15a5.85,5.85,0,0,0-3.92,1.86A6.11,6.11,0,0,0,14.57,6V91.39a8.54,8.54,0,0,0,2.74,6.19A9,9,0,0,0,23.82,100h72a8.39,8.39,0,0,0,6.26-2.42,8.3,8.3,0,0,0,2.48-6.19V6A5.88,5.88,0,0,0,103.16,1.86ZM19.57,91.39V25h79V91.39c0,1,.08,1.87-0.61,2.57a2.64,2.64,0,0,1-2.13,1h-72a4.34,4.34,0,0,1-2.89-1A3.91,3.91,0,0,1,19.57,91.39ZM98.57,6V20h-79V6h79Z"/><path d="M32.61,90.82A12,12,0,0,0,40,88.76a10.33,10.33,0,0,0,1.83.17,9.26,9.26,0,0,0,1.3-.1,9.94,9.94,0,0,0,2.42-.77c0.25,0.2.51,0.39,0.78,0.57a9.42,9.42,0,0,0,5.37,1.48H52.3a11.42,11.42,0,0,0,7.16,3.17c0.38,0,.77-0.26,1.16-0.26h0a11.75,11.75,0,0,0,7.93-2.7,8.48,8.48,0,0,0,5.75-1.05,4.34,4.34,0,0,0,2.32.18c2.33,1.33,3.93,2.08,5.93,2.08h0a13.32,13.32,0,0,0,6.91-1.81c2.09-1.53,3.77-3.83,3.72-6.25A9.89,9.89,0,0,0,94.57,82a10.16,10.16,0,0,0,1.09-8.1,9.75,9.75,0,0,0-2.84-4.21,7.65,7.65,0,0,0,3.3-2.61,10.5,10.5,0,0,0,1.06-9.42,11,11,0,0,0-7-6.17,11.27,11.27,0,0,0-2.53-11.41C85.9,38.31,84,38,81.59,38H81.51A9,9,0,0,0,75,33.61c-5.3-.67-9.6,1.33-12.2,6.09a9.92,9.92,0,0,0-1.7-.23,11.25,11.25,0,0,0-3.76.75,10.44,10.44,0,0,0-1.23-1.58,7.29,7.29,0,0,0-6.6-2.3,9.13,9.13,0,0,0-7.12-2.75,10.21,10.21,0,0,0-8.27,4.84,8.12,8.12,0,0,0-2,1.09,10.26,10.26,0,0,0-4,6.81,11,11,0,0,0,.68,5.35,11.13,11.13,0,0,0-2,3,10.39,10.39,0,0,0-1.39.74A9.56,9.56,0,0,0,21.51,60a9.19,9.19,0,0,0,1,8.39,8.34,8.34,0,0,0,2.87,2.32,9.16,9.16,0,0,0-1.24,3.4,8.4,8.4,0,0,0-2.58,8.8A7.5,7.5,0,0,0,27,88.13,8.72,8.72,0,0,0,32.61,90.82Zm4.46-47.38a2.72,2.72,0,0,0,3.07-3.6A5,5,0,0,1,42.64,39a4,4,0,0,1,3.95,2.58,2.74,2.74,0,0,0,4.8.22,2.83,2.83,0,0,1,.79.59,4.56,4.56,0,0,1,.65.86,10.07,10.07,0,0,0-1.33,1.85,10.92,10.92,0,0,0-6,5.86,9.31,9.31,0,0,0-2.08-1.42,9.52,9.52,0,0,0-4-1,6.37,6.37,0,0,0-3.64,1.08,6.81,6.81,0,0,0-2-.26A5.67,5.67,0,0,1,33.53,47a4.72,4.72,0,0,1,1.84-3.11A2.2,2.2,0,0,1,37.07,43.44Zm37.23-4.9c1.56,0.2,3.79,2.38,5,4.85a2.73,2.73,0,0,0,3.64,1.31,2.71,2.71,0,0,0,1.14-1,6.91,6.91,0,0,1,1.28,4.57,10.32,10.32,0,0,0-3.26-1.05,10.83,10.83,0,0,0-1.7-.14,9,9,0,0,0-3.67.75,8.48,8.48,0,0,0-1-2,7.15,7.15,0,0,0-7.18-3.06,10.58,10.58,0,0,0-.87-0.91A6,6,0,0,1,74.3,38.54ZM65.6,85.88A6.84,6.84,0,0,1,60,88.15a6.61,6.61,0,0,1-4.91-3.31,2.71,2.71,0,0,0-2.36-1.37,2.77,2.77,0,0,0-.62.07,2.72,2.72,0,0,0-1.58,1,3.28,3.28,0,0,1-1.24-.48c-1.9-1.26-2-3.06-1.9-4.67A2.73,2.73,0,0,0,46,76.78a3.68,3.68,0,0,1-1.68-3.42,3.43,3.43,0,0,1,2.22-2.88,2.71,2.71,0,0,0,2-2.08,4.33,4.33,0,0,1,2.46-3.09,3.5,3.5,0,0,1,3.48.62,2.73,2.73,0,0,0,4.19-.83c0.7-1.37,2.92-2.4,5-2.35,1.31,0,4,1,5.51,4.25a2.77,2.77,0,0,0,2.06,1.57,5.46,5.46,0,0,1,4,4,5,5,0,0,1-.51,3.07,2.41,2.41,0,0,1-1.73,1.07,2.73,2.73,0,0,0-2.51,2.93h0a2.74,2.74,0,0,0,2.32,2.48,3.69,3.69,0,0,1-.56,1.74c-0.09.13-.52,0.68-0.57,0.74-0.22.22-.91,0.88-3.43,0.4A2.75,2.75,0,0,0,65.6,85.88ZM36.17,82.8a2.73,2.73,0,0,0-1,2.27,5.14,5.14,0,0,1-2.11.31,3.59,3.59,0,0,1-2.56-1.53,2.71,2.71,0,0,0-2.12-1,2,2,0,0,1-1.65-1.53,3.14,3.14,0,0,1,1.54-3.55,2.72,2.72,0,0,0,1.18-2.31,3.57,3.57,0,0,1,.59-2c1.25,1.17,2.81,1.4,4.73,1.88C35.44,75.5,36.08,75,36.73,75h0c0.79,0,1.56.45,2.31,0.23a9.9,9.9,0,0,0,2.88,5.09,12.11,12.11,0,0,0,.41,2.78,3.74,3.74,0,0,1-2.5-.23A2.78,2.78,0,0,0,36.17,82.8ZM86.46,66.86a2.73,2.73,0,0,0,.08,1.72,4.53,4.53,0,0,1-1.26.66,3.15,3.15,0,0,1-2.47-.32,2.74,2.74,0,0,0-3.32-.08,11.24,11.24,0,0,0-2.59-3.28,11.85,11.85,0,0,0,1.56-2.36c1.24-2.36,1-6.57-.88-9.35a3.62,3.62,0,0,1,3.64-1.24,3.06,3.06,0,0,1,2.58,1.52,4.79,4.79,0,0,0,3.75,2.37,5.68,5.68,0,0,1,4.57,3.16,5.1,5.1,0,0,1-.4,4.26,2.55,2.55,0,0,1-2.51,1h0A2.73,2.73,0,0,0,86.46,66.86ZM78,80.09a8.08,8.08,0,0,0,1.17-1.38A9.4,9.4,0,0,0,80.51,75a7,7,0,0,0,1.11-.65,8.5,8.5,0,0,0,5.57,0c0.62-.22,1.22-1.27,1.78-1.6A10,10,0,0,0,90.58,74h0a6.16,6.16,0,0,1-.41,4.4C89.7,79.16,88.92,80,88.26,80a2.9,2.9,0,0,0-1.36,5.49c-1.48.81-4,.92-7.22-1.14a2.72,2.72,0,0,0-1.48-.41l-0.26,0A9.23,9.23,0,0,0,78,80.09ZM61.25,44.81h0c2-.07,3.51,1.31,4.57,4.06A2.73,2.73,0,0,0,71,48.63a2,2,0,0,1,.24.3,3.64,3.64,0,0,1,.25,3.1,4,4,0,0,0,1.32,4.59c1,0.75,1.16,3.41.83,4a4,4,0,0,1-1.06,1.51,11.09,11.09,0,0,0-8.85-4.85H63.36a11.54,11.54,0,0,0-7.85,3,9.18,9.18,0,0,0-4-.64,6.49,6.49,0,0,1-1.44-4.25,5.56,5.56,0,0,1,4.25-5.53,2.74,2.74,0,0,0,1.78-1.76C56.51,46.87,58.91,44.87,61.25,44.81Zm-29,14.66a2.73,2.73,0,0,0,3.2-4,2.72,2.72,0,0,0,3.06-1c0.54-.75,1.82-0.29,2.54.05a4.32,4.32,0,0,1,2.11,3.71,2.74,2.74,0,0,0,1.72,2.6A2.64,2.64,0,0,1,46.13,62a10.12,10.12,0,0,0-2.56,3.77,8.43,8.43,0,0,0-2.49,1.92,2.75,2.75,0,0,0-.69.59c-1.55,1.86-2.76,2.64-4,2.32-1.48-.37-2.81-1-2.81-2.06h0c-1-.42-0.69-0.88-0.84-1.36A2.9,2.9,0,0,0,28.24,66,3.08,3.08,0,0,1,26.85,65a3.9,3.9,0,0,1-.25-3,4.16,4.16,0,0,1,1.7-2A4.64,4.64,0,0,1,32.29,59.46Z"/></svg>