<svg id="Capa_1" data-name="Capa 1" xmlns="http://www.w3.org/2000/svg" viewBox="0 0 120 100"><defs><style>.cls-1{fill:#fff;}</style></defs><title>CCS-categories-icons-final</title><path class="cls-1" d="M102.84,58.58a53.72,53.72,0,0,0-23.58,4,56.07,56.07,0,0,0-8,4.33A61.38,61.38,0,0,0,82.12,54.57,67.4,67.4,0,0,0,92.27,27.1,71,71,0,0,0,70.6,47c-1.81,2.89-3.25,5.78-4.73,8.3a71.52,71.52,0,0,0,1.44-13.14A71,71,0,0,0,59.7,11.21a73,73,0,0,0-7.62,30.94A84.34,84.34,0,0,0,53.53,56.6a47.15,47.15,0,0,0-5.09-9.39A66.86,66.86,0,0,0,26.77,27.32,67.4,67.4,0,0,0,36.92,54.79,61.38,61.38,0,0,0,47.75,67.1a79.17,79.17,0,0,0-8-4.33,54.16,54.16,0,0,0-23.58-4A53.94,53.94,0,0,0,35.4,72.92a43.32,43.32,0,0,0,8.34,2.53,2.2,2.2,0,0,0-1.44.36,43.65,43.65,0,0,0-18.05,7.94,48,48,0,0,0,19.93,1.08,45.09,45.09,0,0,0,13.07-4.69V95h4.37V80.53a36.5,36.5,0,0,0,13.07,4.69,48,48,0,0,0,19.93-1.08A43.65,43.65,0,0,0,76.56,76.2a2.17,2.17,0,0,1-1.44-.36c2.53-.72,5.45-1.44,8.34-2.53A56,56,0,0,0,102.84,58.58Z"/><path d="M59.7,11.21a71,71,0,0,1,7.62,30.94A71.52,71.52,0,0,1,65.87,55.3c1.48-2.53,2.92-5.42,4.73-8.3A71,71,0,0,1,92.27,27.1,67.41,67.41,0,0,1,82.12,54.57,61.38,61.38,0,0,1,71.29,66.89a56.06,56.06,0,0,1,8-4.33,53.72,53.72,0,0,1,20.49-4.06q1.54,0,3.09.09A56,56,0,0,1,83.46,73.31c-2.89,1.08-5.81,1.81-8.34,2.53a2.17,2.17,0,0,0,1.22.37h0.23a43.65,43.65,0,0,1,18.05,7.94,48,48,0,0,1-19.93,1.08,36.5,36.5,0,0,1-13.07-4.69V95H57.25V80.14a45.09,45.09,0,0,1-13.07,4.69,48,48,0,0,1-19.93-1.08A43.65,43.65,0,0,1,42.3,75.8a2.2,2.2,0,0,1,1.22-.37h0.22a43.32,43.32,0,0,1-8.34-2.53A53.94,53.94,0,0,1,16.2,58.8q1.51-.08,3-0.08a54.16,54.16,0,0,1,20.56,4.06,79.17,79.17,0,0,1,8,4.33A61.38,61.38,0,0,1,36.92,54.79,67.41,67.41,0,0,1,26.77,27.32,66.86,66.86,0,0,1,48.44,47.21a47.15,47.15,0,0,1,5.09,9.39,84.34,84.34,0,0,1-1.44-14.44A73,73,0,0,1,59.7,11.21M59.67,0L55.2,9a78.57,78.57,0,0,0-7.92,28.65A72.37,72.37,0,0,0,29.28,23l-8.85-5.08L21.79,28a73,73,0,0,0,9.29,26.89,59.08,59.08,0,0,0-11.87-1.2c-1.09,0-2.2,0-3.29.09l-10.23.57,6.71,7.74A59.37,59.37,0,0,0,28.62,75.17a48.56,48.56,0,0,0-7.38,4.55L13,85.91l10,2.69a53,53,0,0,0,22,1.2H45l0.09,0a50.1,50.1,0,0,0,7.09-1.91V100H66.64V88.39a41.51,41.51,0,0,0,7.28,1.81,53,53,0,0,0,22-1.2l10-2.69-8.26-6.18a48.58,48.58,0,0,0-7.47-4.6,61.44,61.44,0,0,0,16.53-13.7l6.49-7.68-10-.58c-1.12-.06-2.26-0.1-3.38-0.1A58.66,58.66,0,0,0,88,54.66a73,73,0,0,0,9.28-26.88l1.39-10.28-8.93,5.28A75.53,75.53,0,0,0,72.1,37.12,76.5,76.5,0,0,0,64.19,8.95L59.67,0h0Z"/></svg>