<svg id="Capa_1" data-name="Capa 1" xmlns="http://www.w3.org/2000/svg" viewBox="0 0 120 100"><title>CCS-categories-icons-final</title><path d="M93.29,73.26A85.94,85.94,0,0,0,113.24,41.2,2.61,2.61,0,0,0,110,37.93,86,86,0,0,0,77.74,57.57c-1.9,1.88-3.57,3.85-5.2,5.72a23.64,23.64,0,0,0-2.87,5.33,41.24,41.24,0,0,0,1.87-5.54A95.32,95.32,0,0,0,73,46.5,108.24,108.24,0,0,0,62.6,1.42a2.61,2.61,0,0,0-4.64,0A108.26,108.26,0,0,0,47.58,46.5,95.34,95.34,0,0,0,49,63.08a41.24,41.24,0,0,0,1.87,5.54A23.65,23.65,0,0,0,48,63.29c-1.63-1.87-3.3-3.84-5.2-5.72A86,86,0,0,0,10.57,37.93,2.61,2.61,0,0,0,7.33,41.2,86,86,0,0,0,27.28,73.26a77.78,77.78,0,0,0,7.84,6.64,32.29,32.29,0,0,0,5.41,2.4S36.25,80.79,35,80.8a52.66,52.66,0,0,0-25.6,7.39,2.61,2.61,0,0,0,0,4.41A53.87,53.87,0,0,0,35.52,100a53.24,53.24,0,0,0,22.42-5.38,5.41,5.41,0,0,1,4.7,0A53.23,53.23,0,0,0,85.05,100a53.87,53.87,0,0,0,26.16-7.4,2.61,2.61,0,0,0,0-4.41,52.68,52.68,0,0,0-25.6-7.39c-1.29,0-5.58,1.49-5.58,1.49a32.3,32.3,0,0,0,5.41-2.4,78,78,0,0,0,7.84-6.64h0ZM35.51,94.79a47.67,47.67,0,0,1-19.1-4.38A47.81,47.81,0,0,1,35.51,86a47.68,47.68,0,0,1,19.1,4.38,47.81,47.81,0,0,1-19.1,4.39h0ZM51,83.38c-5.31-2.66-13.16-7-20.07-13.82A81.36,81.36,0,0,1,14.38,44.94,81.59,81.59,0,0,1,39.16,61.27,78.59,78.59,0,0,1,52,78.29a39.8,39.8,0,0,1,2.62,5.6l0.39,1a22.42,22.42,0,0,1-4-1.52h0ZM52.8,46.5c0-16,4.58-30.11,7.48-37.41h0c2.9,7.3,7.48,21.37,7.48,37.41s-4.58,30.09-7.48,37.4c-2.9-7.31-7.48-21.4-7.48-37.4h0ZM85.05,86a47.8,47.8,0,0,1,19.1,4.39,47.69,47.69,0,0,1-19.1,4.38A47.82,47.82,0,0,1,66,90.4,47.68,47.68,0,0,1,85.05,86ZM69.54,83.38a22.6,22.6,0,0,1-4,1.52l0.39-1a39.86,39.86,0,0,1,2.62-5.6,78.57,78.57,0,0,1,12.89-17,81.57,81.57,0,0,1,24.78-16.33A81.38,81.38,0,0,1,89.62,69.55c-6.91,6.84-14.76,11.17-20.07,13.82h0Z"/></svg>