<svg id="Capa_1" data-name="Capa 1" xmlns="http://www.w3.org/2000/svg" viewBox="0 0 120 100"><title>CCS-categories-icons-final</title><path d="M17,100l4.44-4.54A66.11,66.11,0,0,1,36.85,84.34l-2.73-.55A79.44,79.44,0,0,1,8,72.93l-5.1-3.51L9,68.18a75.53,75.53,0,0,1,27.87.49c1.37,0.29,2.73.6,4.07,0.92-2.58-3-5.23-6.32-7.85-9.81A122,122,0,0,1,15.62,26.5l-2.11-6.75,6,3.73A108.14,108.14,0,0,1,45.91,48.42c2.19,2.91,4.27,5.83,6.2,8.68-0.19-3.75-.28-7.7-0.28-11.74a130,130,0,0,1,5.79-38L60.11,0,62.6,7.34a130,130,0,0,1,5.79,38c0,4.24-.11,8.39-0.31,12.32,2.09-2.93,4.36-5.92,6.74-8.91a107,107,0,0,1,27-24.05L108,21.2l-2.28,6.65A121.19,121.19,0,0,1,87.34,60.54c-2.51,3.14-5,6.13-7.51,8.87,1.09-.26,2.2-0.5,3.31-0.74A75.53,75.53,0,0,1,111,68.18l6.06,1.23L112,72.93A79.31,79.31,0,0,1,85.89,83.79l-2.69.57a65.88,65.88,0,0,1,15.38,11.1L103,100l-6.34-.07a60.14,60.14,0,0,1-21.47-5A80.94,80.94,0,0,1,60,86.51a80.88,80.88,0,0,1-15.19,8.43,60.31,60.31,0,0,1-21.47,5ZM60,79.53l1.78,1.64c2.68,2.46,8.78,6,15.54,9a54.79,54.79,0,0,0,10.75,3.42,58,58,0,0,0-10.3-6c-1.56-.69-3.16-1.35-4.9-2l-10-3.84L73.51,80.5c3.57-.41,7.37-1,11.29-1.86l0.45-.09a73.87,73.87,0,0,0,16.87-6.05,71,71,0,0,0-17.9,1.33A123.86,123.86,0,0,0,72.15,77L61.46,80.41l8-7.82A169.66,169.66,0,0,0,83.23,57.25a116.43,116.43,0,0,0,14.09-23A105.93,105.93,0,0,0,78.93,52.05,177.4,177.4,0,0,0,66.88,68.93l-6.16,10L62,67.25a201.31,201.31,0,0,0,1.1-21.9,127.94,127.94,0,0,0-3-26.86,128,128,0,0,0-3,26.86,200.22,200.22,0,0,0,1.1,21.87L59.6,79.72,53.3,68.85A177.77,177.77,0,0,0,41.71,51.59,107,107,0,0,0,23.83,33.16,117.44,117.44,0,0,0,37.29,56.62,168.85,168.85,0,0,0,50.93,72.76l7.49,7.67L48.24,77.1a122.17,122.17,0,0,0-12.45-3.28A71,71,0,0,0,17.9,72.5a73.79,73.79,0,0,0,17.31,6.14c3.89,0.82,7.69,1.45,11.29,1.86l10.75,1.24L47.13,85.58c-1.54.58-3.19,1.26-4.89,2a58.2,58.2,0,0,0-10.3,5.95,55,55,0,0,0,10.75-3.42c6.76-3,12.86-6.5,15.53-9Z"/></svg>