<svg id="Capa_1" data-name="Capa 1" xmlns="http://www.w3.org/2000/svg" viewBox="0 0 120 100"><title>CCS-categories-icons-final</title><path d="M113.54,62.49l-1.87-.38c-10-2-17.62-2.35-26.48-1a82.44,82.44,0,0,0,15.53-35.16L101.1,24l-1.74.79c-11.08,5-19,10.41-26.84,18.34-0.47-15-3.9-29.21-10-41.09l-0.16-.36A2.34,2.34,0,0,0,60,0,2.26,2.26,0,0,0,57.63,1.7c-0.05.13-.11,0.27-0.17,0.39-6.08,11.87-9.51,26-10,41.11-7.84-7.95-15.77-13.35-26.84-18.36L18.9,24l0.37,1.87A82.26,82.26,0,0,0,34.81,61.08c-8.86-1.33-16.51-1-26.47,1l-1.87.38,1.4,1.3c10,9.23,19.78,14.63,32.49,17.85a48.5,48.5,0,0,0-6.74,7.9L32.51,91h1.91c9.36,0,16.2-1.62,23.11-5.79L57.46,97.52A2.42,2.42,0,0,0,59.93,100a2.39,2.39,0,0,0,2.47-2.43l0.08-12.34C69.37,89.37,76.2,91,85.58,91h1.91l-1.11-1.46a48.58,48.58,0,0,0-6.74-7.95c12.71-3.22,22.52-8.6,32.5-17.83ZM49.6,80.61l2.16-1.54-2.25-.43c-10.59-2-21.8-5-32.37-13.16A68.56,68.56,0,0,1,40.22,67l0.69,0.16L43,63.64l-0.46-.54A82.18,82.18,0,0,1,25.73,32.64,81.84,81.84,0,0,1,48.07,50.88l0.45,0.52,3.78-1.46,0-.69C51.93,34.27,54.59,20,60,8,65.39,20,68.05,34.27,67.7,49.24l0,0.69,3.79,1.46,0.45-.52A81.91,81.91,0,0,1,94.25,32.64,81.65,81.65,0,0,1,77.4,63.1l-0.46.54,2.14,3.53L79.77,67a68.65,68.65,0,0,1,23.1-1.53C92.28,73.61,81.08,76.62,70.49,78.64l-2.26.43,2.1,1.49A60.05,60.05,0,0,1,77,85.77a39.4,39.4,0,0,1-14.82-6.42L62,79.25a4.5,4.5,0,0,0-4,0l-0.19.1A38.8,38.8,0,0,1,43,85.78,59.12,59.12,0,0,1,49.6,80.61Z"/></svg>