<svg id="Capa_1" data-name="Capa 1" xmlns="http://www.w3.org/2000/svg" viewBox="0 0 120 100"><title>CCS-categories-icons-final</title><g id="Capa_2" data-name="Capa 2"><g id="Capa_1-2" data-name="Capa 1-2"><path d="M84.6,0H70.11V1.94A10.11,10.11,0,0,1,60.17,12.2H60A10.11,10.11,0,0,1,50,2.29V0H35.51L0,20.29,10.8,50l13.69-4.57V100H95.63V45.46L109.29,50,120,20.29ZM87,33.46v58H33.14v-58L16,39.17l-5.37-15L37.8,8.57h4.74a18.66,18.66,0,0,0,8.57,9.77A18.77,18.77,0,0,0,65.4,19.83,18.74,18.74,0,0,0,77.57,8.57h4.74l27.17,15.54-5.46,15Z"/></g></g></svg>