<svg id="Capa_1" data-name="Capa 1" xmlns="http://www.w3.org/2000/svg" viewBox="0 0 120 100"><title>CCS-categories-icons-final</title><path d="M120,62.73c-0.24-13.73-.44-24.58-6.78-32.51-4.88-6.09-13.31-10.14-26.54-12.6A2.81,2.81,0,0,0,86,17.5c-4.64-.83-9.85-1.47-15.7-1.94-15.68-1.25-27.37,2.37-34.74,10.79-5,5.76-8,13.81-8.44,23.28a58.82,58.82,0,0,0,.48,10.87c-5.68,2.05-20,7.68-25.9,14.29C1,75.5-.89,77.64.48,79.91c1.53,2.53,4.28,1.85,11,.19,9.58-2.37,25.61-6.76,36.46-1.24A51.67,51.67,0,0,0,72.53,85h0a39.09,39.09,0,0,0,31.79-15.2c2.72-.4,5.45.59,8.16,1.18,0.41,0.08.83,1,1.25,1h0c1.66,0,3.29-1.48,4.45-2.67A7.26,7.26,0,0,0,120,64.44ZM88.16,76.34c-10.65,5.55-23,5-36.61-1.69l-1-.5c-12-6.12-28.12-2.67-38.67-.09,7.45-4.54,17.77-8.18,19.54-8.78,3.21-.31,26.77-2.35,36.35,2.45,7.71,3.85,19.93,3.82,28,3.26A35.55,35.55,0,0,1,88.16,76.34ZM39.87,30.15c6.11-7,16.19-10,29.94-8.84,5.52,0.44,10.34,1,14.56,1.71,1.31,1.45,7.38,10,6.38,42.37-6.84.19-15.16-.25-20.36-2.85-9.79-4.9-29.85-3.82-37.15-3.24C32.5,53.6,31.71,39.46,39.87,30.15Zm62.52,34.33h0c-0.07,0-2.37.33-5.79,0.6C97.2,42.78,94.65,30.9,92,24.61c21.61,5.58,21.82,17,22.2,38.23l0,1.32a0.47,0.47,0,0,1-.18.37,0.43,0.43,0,0,1-.37.1A28.53,28.53,0,0,0,102.39,64.48Z"/><path d="M47,55.61a2.88,2.88,0,0,0,3,.64l7-2.51,6,4.33,0,0L62.6,59.3,64.7,60h0c0.78,0,1.53-1,2.07-1.58A3.78,3.78,0,0,0,67.59,56l-0.23-7.59,6-4.49A2.94,2.94,0,0,0,74.46,41a2.9,2.9,0,0,0-2-2.29L65.3,36.65,63,29.6a2.87,2.87,0,0,0-2.34-2,2.9,2.9,0,0,0-2.79,1.23L53.66,35l-7.42,0a2.87,2.87,0,0,0-2.58,1.62,2.91,2.91,0,0,0,.32,3l4.55,5.86-2.25,7.07A2.91,2.91,0,0,0,47,55.61Zm14.6-5.66-2.5-1.8a2.87,2.87,0,0,0-1.68-.54h0a2.87,2.87,0,0,0-1,.18l-2.91,1,0.94-2.94A2.89,2.89,0,0,0,54,43.24L52.12,40.8l3.08,0a2.89,2.89,0,0,0,2.37-1.27L59.31,37l1,2.93a2.89,2.89,0,0,0,1.94,1.86l3,0.86L62.7,44.45a2.89,2.89,0,0,0-1.18,2.42Z"/></svg>