<svg id="Capa_1" data-name="Capa 1" xmlns="http://www.w3.org/2000/svg" viewBox="0 0 120 100"><title>CCS-categories-icons-final</title><path d="M104.12,18.66h0c-5.93-6.69-12.47-6.6-20.06-6.49l-2.22,0c-2-4.9-8.52-8.68-18.6-10.69a90.49,90.49,0,0,0-30.37-.43C18.81,3.34,10.84,8.56,11,15.38c0,0.39,8.1,69.06,8.18,69.63,0.31,8.54,12.51,15,27.91,15S75,93.56,75,85V84.82a77,77,0,0,1,.72-9A11.33,11.33,0,0,1,79.63,71a10.82,10.82,0,0,1,5.93-2h1.85a19.06,19.06,0,0,0,19.24-16.82l2.21-18.35A19.28,19.28,0,0,0,104.12,18.66ZM82.59,27.36a5.13,5.13,0,0,1,3-.94h1.11c2.54,0,4.21-.06,5.8,1.73s1.57,2.67.28,13c-0.32,2.54-.71,5.64-1.15,9.43a5.15,5.15,0,0,1-5.12,4.55l-2.05,0c-3.11.06-4.91,0.09-6.5-1.44l2.81-24A5.13,5.13,0,0,1,82.59,27.36Zm17.27,5.53a11.22,11.22,0,0,0-2.77-8.79c-3.52-3.8-7.49-3.77-10.68-3.73H85.56a11.23,11.23,0,0,0-3.77.66l0.33-2.79,2.18,0c6.19-.12,11.1-0.2,15.29,4.53a13.34,13.34,0,0,1,3.27,10.41l-2.21,18.39A13.31,13.31,0,0,1,96.23,60,13.44,13.44,0,0,1,87.4,63.3a17.91,17.91,0,0,0-10.82,2.58l0.66-5.58c2.24,1,4.31.92,7.2,0.88l2.09,0A11.16,11.16,0,0,0,94,58.36M68.17,84.48c0,0.2,0-.09,0,0.07C67.21,90.63,55,93,46.73,93h0c-7.31,0-21.12-3-21.5-10h0s0,0.09-.1-0.45c-0.11-1-.33-2.38-0.72-5.74-0.88-7.4-2.64-22.15-6.18-52.26,13.9,7.71,43.15,7.8,57.06.1-3.44,29.23-5.87,49.69-7,59.16,0,0.17,0,.36-0.05.52l0,0.13h0ZM46.73,24h0a83,83,0,0,1-17.85-1.89c-7.22-1.74-11.42-4.17-11.83-7,0.21-3.77,11.78-9.14,29.68-9.14s29.56,5.31,29.68,9C75.51,21.39,56.35,24,46.73,24Z"/></svg>