<svg id="Capa_1" data-name="Capa 1" xmlns="http://www.w3.org/2000/svg" viewBox="0 0 120 100"><title>CCS-categories-icons-final</title><path d="M118.05,57.52h0c-0.26-3.85-6.91-5.58-13.52-5.58S91.29,53.66,91,57.49h0L89.35,69.61a1.94,1.94,0,0,1-1.92,1.69H72a5.75,5.75,0,0,0-9,.46,11.26,11.26,0,0,0-13.13-.55,5.78,5.78,0,0,0-10.87.09H34.48a5.77,5.77,0,0,0-10.87-.09A11.28,11.28,0,0,0,9.48,72.64,5.77,5.77,0,0,0,0,77.11v7.74A5.77,5.77,0,0,0,9.47,89.3,11.27,11.27,0,0,0,23.6,90.72a5.77,5.77,0,0,0,10.88-.07h4.58a5.77,5.77,0,0,0,10.87.08A11.15,11.15,0,0,0,63,90.16a5.75,5.75,0,0,0,9,.5h32.65a15.6,15.6,0,0,0,15.19-17.52ZM94.31,61.78a25.88,25.88,0,0,0,10.21,1.78,26,26,0,0,0,10.14-1.74L114.91,64a29.56,29.56,0,0,1-10.39,1.52A29,29,0,0,1,94,63.92Zm10.21-6c5.35,0,8.59,1.22,9.5,1.94-0.91.71-4.15,1.94-9.5,1.94s-8.6-1.22-9.5-1.94C95.92,57,99.16,55.81,104.52,55.81ZM38.71,75.17V86.78H34.84V75.17h3.87Zm-31,9.68a1.94,1.94,0,1,1-3.87,0V77.11a1.94,1.94,0,0,1,3.87,0v7.74Zm4.44,1.7-0.67-.67a5.6,5.6,0,0,0,.1-1V77.11a5.65,5.65,0,0,0-.1-1l0.67-.67a7.59,7.59,0,0,1,10.48,0L23.23,76V86l-0.57.57h0a7.59,7.59,0,0,1-10.48,0h0ZM31,88.72a1.94,1.94,0,0,1-3.87,0V73.23a1.94,1.94,0,1,1,3.87,0V88.72Zm15.48,0a1.94,1.94,0,0,1-3.87,0V73.23a1.94,1.94,0,1,1,3.87,0V88.72Zm4.44-2.17L50.32,86V76l0.57-.57a7.59,7.59,0,0,1,10.48,0L61.94,76V86l-0.57.57a7.59,7.59,0,0,1-10.48,0h0Zm16.85,2.17a1.94,1.94,0,0,1-1.94-1.94V75.17a1.94,1.94,0,1,1,3.87,0V86.78A1.94,1.94,0,0,1,67.74,88.72Zm45.48-5.95a11.75,11.75,0,0,1-8.73,4h-31V75.17H87.43a5.81,5.81,0,0,0,5.76-5.06l0.3-2.25a35.6,35.6,0,0,0,11,1.51,36.17,36.17,0,0,0,10.85-1.45L116,73.6a11.74,11.74,0,0,1-2.81,9.17h0Z"/><path d="M77.42,30.65a24.87,24.87,0,0,0,4.5-.4,18.26,18.26,0,0,0,11.14,4.21,11.61,11.61,0,0,0,5.65,8.17v5.44h3.87V41.45a1.94,1.94,0,0,0-1.16-1.77,7.74,7.74,0,0,1-4.65-7.08,1.94,1.94,0,0,0-1.94-1.94c-4.66,0-8.89-1.47-10.76-3.75a1.93,1.93,0,0,0-1.94-.65,20.69,20.69,0,0,1-4.72.53c-6.84,0-11.61-3.06-11.61-5.81,0-2.43,3.59-4.81,8.36-5.55a1.94,1.94,0,0,0,1.52-1.22c0.9-2.35,5.2-4.84,11.42-4.84,4.66,0,8.89,1.47,10.76,3.75a1.92,1.92,0,0,0,1.94.65,20.8,20.8,0,0,1,4.72-.53c6.84,0,11.61,3.06,11.61,5.81,0,1.85-2.13,3.75-5.42,4.84a1.94,1.94,0,0,0-.75,3.21,7.73,7.73,0,0,1-2.36,12.58,1.93,1.93,0,0,0-1.16,1.77v6.63h3.87V42.63a11.6,11.6,0,0,0,4.1-16.1C118,24.73,120,22,120,19c0-5.42-6.8-9.68-15.48-9.68a24.64,24.64,0,0,0-4.5.4A19.16,19.16,0,0,0,87.1,5.49c-6.61,0-12.36,2.54-14.54,6.29C66.16,13,61.94,16.67,61.94,21c0,5.42,6.8,9.68,15.48,9.68h0Z"/><path d="M17.42,77.1a3.87,3.87,0,1,0,2.74,1.13A3.87,3.87,0,0,0,17.42,77.1Z"/><path d="M56.13,77.1a3.87,3.87,0,1,0,2.74,1.13A3.87,3.87,0,0,0,56.13,77.1Z"/></svg>