<svg id="Capa_1" data-name="Capa 1" xmlns="http://www.w3.org/2000/svg" viewBox="0 0 120 100"><title>CCS-categories-icons-final</title><path d="M72.22,0A15.57,15.57,0,0,0,59.37,6.81,14.41,14.41,0,0,0,36.74,24.44H13.33A3.46,3.46,0,0,0,10,27.78v20a3.46,3.46,0,0,0,3.33,3.33h3.33V96.67A3.46,3.46,0,0,0,20,100h80a3.46,3.46,0,0,0,3.33-3.33V51.11h3.33A3.46,3.46,0,0,0,110,47.78v-20a3.46,3.46,0,0,0-3.33-3.33H85A15.53,15.53,0,0,0,72.22,0h0Zm0,6.67a8.89,8.89,0,0,1,0,17.78H63.33V15.56A8.84,8.84,0,0,1,72.22,6.67ZM48.89,8.89a7.73,7.73,0,0,1,7.78,7.78v7.78H48.89A7.78,7.78,0,1,1,48.89,8.89ZM16.67,31.11h40V44.44h-40V31.11Zm46.67,0h40V44.44h-40V31.11Zm-40,20H56.67V93.33H23.33V51.11Zm40,0H96.67V93.33H63.33V51.11Z"/></svg>