<svg id="Capa_1" data-name="Capa 1" xmlns="http://www.w3.org/2000/svg" viewBox="0 0 120 100"><title>CCS-categories-icons-final</title><path d="M33.34,25.46V7.26a7.26,7.26,0,0,0-14.53,0v18.2a4.74,4.74,0,0,0-1.72,1.07,4.5,4.5,0,0,0,0,6.39A4.27,4.27,0,0,0,18.81,34V63.39a7.2,7.2,0,0,0,.92,3.51,7.54,7.54,0,0,0,1.84,2.17V76a4.44,4.44,0,0,0,1.33,3.18A4.52,4.52,0,0,0,30.61,76V69.07a7.28,7.28,0,0,0,1.84-2.17,7.2,7.2,0,0,0,.92-3.51V34a4.58,4.58,0,0,0,1.72-1.07,4.5,4.5,0,0,0,0-6.39,4.94,4.94,0,0,0-1.74-1.09h0ZM21.74,7.26a4.33,4.33,0,1,1,8.65,0v18H21.74v-18ZM30.41,63.4a4.17,4.17,0,0,1-.55,2.09A4.38,4.38,0,0,1,28.42,67a1.47,1.47,0,0,0-.76,1.29V76a1.53,1.53,0,0,1-.47,1.11,1.57,1.57,0,0,1-1.11.47A1.53,1.53,0,0,1,25,77.13,1.57,1.57,0,0,1,24.49,76V68.32a1.52,1.52,0,0,0-.68-1.25,4.54,4.54,0,0,1-1.52-1.58,4.17,4.17,0,0,1-.55-2.09V34.25h8.67V63.4ZM33,30.85a1.57,1.57,0,0,1-1.11.47H20.28a1.53,1.53,0,0,1-1.11-.47,1.57,1.57,0,0,1-.47-1.11,1.61,1.61,0,0,1,.47-1.13,1.57,1.57,0,0,1,1.11-.47h11.6a1.53,1.53,0,0,1,1.11.47,1.58,1.58,0,0,1,.47,1.13A1.53,1.53,0,0,1,33,30.85Z"/><path d="M102.09,31.4a14.13,14.13,0,0,0-4.9-4.71V14.32a4.6,4.6,0,0,0-4.57-4.59H72.48a4.58,4.58,0,0,0-3.24,1.35,4.63,4.63,0,0,0-1.35,3.24V26.7A14,14,0,0,0,63,31.4a13.8,13.8,0,0,0-2.13,7.36V95.41a4.54,4.54,0,0,0,1.35,3.24A4.63,4.63,0,0,0,65.45,100H99.65a4.58,4.58,0,0,0,3.24-1.35,4.63,4.63,0,0,0,1.35-3.24V38.76A14,14,0,0,0,102.09,31.4ZM65.47,33A10.92,10.92,0,0,1,69.71,29H95.39A10.92,10.92,0,0,1,99.63,33a10.43,10.43,0,0,1,1.56,4.33H63.91A11,11,0,0,1,65.47,33h0Zm35.81,62.45a1.72,1.72,0,0,1-.49,1.17,1.64,1.64,0,0,1-1.15.49H65.45a1.67,1.67,0,0,1-1.66-1.66V87.25h37.49v8.16Zm0-43.86V84.32H63.79V40.23h37.49V51.55Z"/><path d="M27.13,84.16a1.47,1.47,0,0,0-2.13,0,25.68,25.68,0,0,0-3.73,5,10,10,0,0,0-1.39,4.65,6.09,6.09,0,0,0,1.82,4.37A6.24,6.24,0,0,0,26.08,100a6.09,6.09,0,0,0,4.37-1.82,6.15,6.15,0,0,0,1.82-4.37,9.79,9.79,0,0,0-1.41-4.65,25.28,25.28,0,0,0-3.73-5h0Zm1.25,11.93a3.26,3.26,0,0,1-5.57-2.3,7.08,7.08,0,0,1,1-3.24,21,21,0,0,1,2.23-3.18,20.05,20.05,0,0,1,2.23,3.18,7.09,7.09,0,0,1,1,3.24,3.26,3.26,0,0,1-1,2.3h0Z"/><path d="M88.78,68.88c-1.18.25-2.31,0.43-3.31,0.55,0.46,0.18.95,0.37,1.44,0.59A18.24,18.24,0,0,1,92,73.5a16.61,16.61,0,0,1-5.87-1.37,19.34,19.34,0,0,1-4.67-2.71,19.32,19.32,0,0,1-4.67,2.71A16.67,16.67,0,0,1,71,73.5,18.3,18.3,0,0,1,76.09,70c0.49-.22,1-0.42,1.44-0.59-1-.12-2.13-0.3-3.31-0.55a22.23,22.23,0,0,1-7.22-3,21.08,21.08,0,0,1,7.7.14,35.61,35.61,0,0,1,3.65,1,49.43,49.43,0,0,1-4-4.71,34.6,34.6,0,0,1-4.9-9.33,30.55,30.55,0,0,1,7.37,7,51.91,51.91,0,0,1,3.38,5,58.37,58.37,0,0,1-.32-6.37A36.92,36.92,0,0,1,81.53,47.9a36.91,36.91,0,0,1,1.62,10.68A58.73,58.73,0,0,1,82.83,65,51.77,51.77,0,0,1,86.35,60,30.24,30.24,0,0,1,93.9,53.3a34.36,34.36,0,0,1-5.14,9.16,49.55,49.55,0,0,1-4,4.47A36.07,36.07,0,0,1,88.3,66a21.08,21.08,0,0,1,7.7-.14,22.19,22.19,0,0,1-7.22,3h0Z"/></svg>