<svg id="Capa_1" data-name="Capa 1" xmlns="http://www.w3.org/2000/svg" viewBox="0 0 120 100"><title>CCS-categories-icons-final</title><path d="M85.58,2.53l-0.74-.39a10.83,10.83,0,0,0-8-.9,9.88,9.88,0,0,0-6.21,4.94L62.43,21.81a9.12,9.12,0,0,0-2.81-.46,4.43,4.43,0,0,0-4.06,2.15L51,32.24c-1.3,2.47.51,5.8,4.2,7.75L29.29,89.07a6.52,6.52,0,0,0,.11,6A10.48,10.48,0,0,0,34,99.56a10.85,10.85,0,0,0,5,1.29h0a6.83,6.83,0,0,0,6.27-3.36l25.87-48c1.52,0.8,3.14,2.34,4.6,2.34h0.12c1.88,0,3.36-1.92,4.06-3.26l4.6-9.29A4.94,4.94,0,0,0,84,34.46a9.59,9.59,0,0,0-2-2.19l8.24-15.7A10.51,10.51,0,0,0,85.58,2.53ZM69.24,22L76.1,9A3.81,3.81,0,0,1,78.5,7.15,4.73,4.73,0,0,1,82,7.57L82.71,8A4.74,4.74,0,0,1,85,10.56a3.81,3.81,0,0,1-.18,3.07L78,26.64ZM40.82,95.15c-0.4.76-2.36,1.13-4.53,0s-3-3-2.57-3.73L59.17,43.11l7.11,3.74ZM76.49,45.63c-0.32.2-1.76,0.29-3.57-.66L73,44.76l-16-8.41L57,36.56A5,5,0,0,1,54.38,34l4.55-8.67a1.47,1.47,0,0,1,.78-0.15,6.24,6.24,0,0,1,2.82.79l15.94,8.4a5,5,0,0,1,2.59,2.53Z"/></svg>