<svg id="Capa_1" data-name="Capa 1" xmlns="http://www.w3.org/2000/svg" viewBox="0 0 120 100"><title>CCS-categories-icons-final</title><path d="M53.42,33H65.84C67.9,33,70,32,70,30h0V23.07C70,21.94,67.89,21,65.84,21H53.42c-2.06,0-4.42.94-4.42,2.07v6.8C49,31,51.36,33,53.42,33Z"/><path d="M59.92,0H59.34C55.69,0,52,3,52,6.43V19H67V6.43C67,3,63.57,0,59.92,0ZM64,16H55V6.43C55,4.5,57.23,3,59.34,3h0.58C62,3,64,4.5,64,6.43V16Z"/><path d="M78,55.19C78,52.34,72.77,42.3,69.52,38a2.56,2.56,0,0,0,1.58-2.35A2.73,2.73,0,0,0,68.23,33H51a2.71,2.71,0,0,0-2.84,2.62,2.51,2.51,0,0,0,1.68,2.5C46.48,42.51,41,52.38,41,55.19V91.8c0,3.52,3.61,8.2,7.06,8.2H72a5.44,5.44,0,0,0,4.45-3A10.83,10.83,0,0,0,78,91.8V55.19ZM44.76,51c0.39-.87.85-1.82,1.35-2.79-0.5,1-1,1.92-1.35,2.79s-0.73,1.66-1,2.33C44,52.66,44.37,51.87,44.76,51ZM69.13,35.76h0A0.83,0.83,0,0,0,68.23,35h0A0.83,0.83,0,0,1,69.13,35.76ZM72,97h-24C46.38,97,44,94.07,44,91.8V55.19c0-2,7.14-15.66,9.82-17.11,0.56-.3.4-1.07,0.07-2.07H65.77c-0.33,1-.62,1.85-0.06,2.16,2.57,1.41,9.29,15,9.29,17V91.8C75,94.05,73.58,97,72,97Zm1.6-48.09c0.23,0.48.45,0.95,0.65,1.4C74.05,49.86,73.83,49.39,73.61,48.91ZM69.7,41.69c-0.27-.43-0.54-0.85-0.8-1.24a10.74,10.74,0,0,0-2.73-3.12,0.55,0.55,0,0,1-.28-0.44,0.55,0.55,0,0,0,.28.44,10.75,10.75,0,0,1,2.73,3.12c0.26,0.39.53,0.81,0.8,1.24,0.68,1.09,1.37,2.29,2,3.53C71.07,44,70.38,42.78,69.7,41.69ZM51,34.78h0a1,1,0,0,0-.63.22,0.7,0.7,0,0,0-.26.53h0A0.7,0.7,0,0,1,50.39,35,1,1,0,0,1,51,34.78Zm2.46,2.55a0.55,0.55,0,0,0,.24-0.26,0.55,0.55,0,0,1-.24.26c-1.67.91-4.68,5.7-7,10.14C48.81,43,51.82,38.24,53.49,37.33ZM43.39,54.62c0.05-.23.13-0.5,0.23-0.8C43.52,54.12,43.44,54.39,43.39,54.62ZM70.07,36.56A2.3,2.3,0,0,1,68.23,38h0a2.3,2.3,0,0,0,1.84-1.44,1.74,1.74,0,0,0,.16-0.72A1.74,1.74,0,0,1,70.07,36.56Zm-20.89,0A2.51,2.51,0,0,1,49,35.69a3,3,0,0,0,.16.95A2.22,2.22,0,0,0,51,38h0A2.3,2.3,0,0,1,49.18,36.56Zm26.51,60a9.61,9.61,0,0,0,1-2.34A9.61,9.61,0,0,1,75.69,96.51Z"/><path d="M73,61V89.17C73,91.63,71.28,95,69,95H50.93C48.66,95,46,91.35,46,88.89V61H73Z"/></svg>