<svg id="Capa_1" data-name="Capa 1" xmlns="http://www.w3.org/2000/svg" viewBox="0 0 120 100"><title>CCS-categories-icons-final</title><g id="Capa_2" data-name="Capa 2"><g id="Capa_1-2" data-name="Capa 1-2"><circle cx="55.37" cy="54.66" r="1.77"/><path d="M105.63,6.22a2.43,2.43,0,0,1-1.86-1.91A5.28,5.28,0,0,0,98.84,0H98.47a5.34,5.34,0,0,0-5.11,3.94,10.42,10.42,0,0,1-6.08,6.62H86.42a7,7,0,0,0-4.8,1.94l-3.14,3a10.3,10.3,0,0,0-5.71,2.85L12.18,79,12,79.15v0.14a8.56,8.56,0,0,0-1.23,9.19,18.67,18.67,0,0,0,4.28,6.39,15.78,15.78,0,0,0,10,5h0.6a7.48,7.48,0,0,0,5.19-2.08L58.51,70.07l33.11-33a10.56,10.56,0,0,0,2.85-5.71l2.85-2.85h0a7.16,7.16,0,0,0,2.11-5.71,10.59,10.59,0,0,1,6.79-6.25,5.31,5.31,0,0,0-.6-10.3V6.22ZM26.23,83.75a14.27,14.27,0,0,0-4.82-3.31H21.12L44.81,56.74a1.14,1.14,0,0,1,.69-0.2,4.17,4.17,0,0,1,1.31.29,12.87,12.87,0,0,1,6.76,6.74c0.37,1.06.31,1.77,0,2L29.68,89.14A13.19,13.19,0,0,0,26.23,83.75Zm-7.22,0a12.47,12.47,0,0,1,4.28,2.85c2.85,2.85,3.54,5.71,2.85,6.37a1,1,0,0,1-.69.23A9.53,9.53,0,0,1,19.75,90a12,12,0,0,1-2.85-4.25c-0.4-1.11-.34-1.88,0-2.11a0.91,0.91,0,0,1,.71-0.2h0a3.94,3.94,0,0,1,1.4.37V83.75ZM52.8,57.09a14.79,14.79,0,0,0-5.25-3.51H47.09l4.51-4.51a1,1,0,0,1,.69-0.2A9.7,9.7,0,0,1,58,52a12.19,12.19,0,0,1,2.85,4.28c0.4,1.11.31,1.86,0,2.11l-4.34,4.37A14.41,14.41,0,0,0,52.8,57.09ZM61,48.92a14.27,14.27,0,0,0-5.71-3.65L75,25.69a3.6,3.6,0,0,1,2.63-1,7.71,7.71,0,0,1,5.28,2.43c2.51,2.51,3.2,6.14,1.46,7.91L64.67,54.72V54.49a0.21,0.21,0,0,1-.17-0.23A14.79,14.79,0,0,0,61,48.92H61ZM83.48,20l2.85-2.85a0.46,0.46,0,0,1,.29,0,6.68,6.68,0,0,1,4,2.25c2.06,2.06,2.45,4,2.2,4.22l-2.85,2.85A11.59,11.59,0,0,0,83.48,20ZM92,15.07a12.64,12.64,0,0,0,6.62-6.19h0a9,9,0,0,0,2.45,2.54A12.76,12.76,0,0,0,95,18a12.16,12.16,0,0,0-1.37-1.63A17.13,17.13,0,0,0,92,15.1Z"/></g></g></svg>