<svg id="Capa_1" data-name="Capa 1" xmlns="http://www.w3.org/2000/svg" viewBox="0 0 120 100"><title>CCS-categories-icons-final</title><path d="M110.82,15.27L95.48,1.59a6.28,6.28,0,0,0-9.33,8.26L64.85,33.27c-11.53-1-18.41,2.52-24.52,6.69-2.19-4.33-3.79-7.89-4.85-10.56C34,25.75,31.95,25,30.44,25A4.82,4.82,0,0,0,28,25.7a5.15,5.15,0,0,1-2.81-1.79,3,3,0,0,1-.4-2.17l2-1.56a4,4,0,0,0,.7-5.59l-0.28-.36a4,4,0,0,0-3.15-1.54h0a4,4,0,0,0-2.44.84l-13,10.1a4,4,0,0,0-.7,5.59L8.2,29.58a4,4,0,0,0,5.59.7l1.58-1.23A5.57,5.57,0,0,1,18.63,31a2.76,2.76,0,0,1,.44,1.6,4.93,4.93,0,0,0-1.92,3.23c-0.22,1.93.83,3.76,3.13,5.42,2.69,1.94,6.7,5.18,11,9.08-2.32,2.43-4.61,8.94-4.61,17.27,0,22.16,19.21,31.06,23.06,32.44l22.65-.08A34.45,34.45,0,0,0,86.49,44.45L103.09,25a6.31,6.31,0,0,0,3.55,1.19A6.24,6.24,0,0,0,110.82,15.27ZM12.37,28.44A1.66,1.66,0,0,1,10,28.15l-0.28-.36A1.66,1.66,0,0,1,10,25.46l13-10.1a1.66,1.66,0,0,1,2.33.29L25.66,16a1.66,1.66,0,0,1-.29,2.33Zm5.21-1.1,4.95-3.84a5,5,0,0,0,.74,1.72,6.55,6.55,0,0,0,2.68,2.17l-2,1.58L23,29.69l-1.78,1.38a5,5,0,0,0-.66-1.42A6.74,6.74,0,0,0,17.58,27.34Zm4.07,12c-3.52-2.55-2-4.34-.86-5.15l8-6.22a2.81,2.81,0,0,1,1.63-.63c0.94,0,2,.68,2.88,2.94,1.12,2.83,3,6.89,5.26,11.42a28.9,28.9,0,0,0-6,6.59C28.29,44.45,24.35,41.27,21.65,39.32ZM60,79.48c1-.62,2.19-1.56,3.09-2.23,2.25,2.87,3.66,4.91,3.66,4.91s1.88,2.92.24,4.13C65.12,87.69,62.36,82.49,60,79.48Zm-2.83-3.66c-2.42-3.13-5.35-6.87-8.49-10.82A130.25,130.25,0,0,0,36.92,52.3a22.64,22.64,0,0,1,4.45-5.36,132.41,132.41,0,0,0,10,15.79c3.13,4.13,6.12,8,8.6,11.18C59.1,74.58,58.17,75.22,57.22,75.81ZM46.9,66.44c3,3.82,5.89,7.46,8.27,10.54-5.59,2.93-13,4.14-22.24.92C30.45,73.63,29.6,61.64,34.55,53A156.61,156.61,0,0,1,46.9,66.44ZM73.26,95.08l-24.91,0c-3.05-2-7.87-3.4-14.28-13.42,3.05,0.79,7.31,2,9.92,2a28.06,28.06,0,0,0,14-3.37c2.17,2.83,3.59,4.92,3.85,5.25,0.43,0.64,3.46,3.95,5.9,2.38,1.39-.89,3.74-3,0.47-7.35-0.31-.39-1.62-2-3.55-4.45,1.23-1,2.4-1.93,3.53-2.88,0.55-.46,1.09-1,1.63-1.41,6.28-5.17,17.24-3.28,21.25-2.39C90.46,74.8,89,87.19,73.26,95.08Zm6.27-51.32A31.05,31.05,0,0,1,91.14,64.87C85.57,63.81,74,62.48,66.9,68.34l-1.65,1.38c-1.12.93-2.24,1.87-3.39,2.78-2.49-3.19-5.47-7.06-8.6-11.17-3.61-4.76-7.35-12.52-10.31-17.94C54.17,34.58,67.55,38,67.55,38L90.21,13.39,98.14,21Zm28.15-22.88a1.4,1.4,0,0,1-1.36.4l0.05-.06L95,11.4,90.38,7.31a1.39,1.39,0,0,1,1.85-2.08l15.34,13.68A1.41,1.41,0,0,1,107.68,20.88Z"/></svg>