<svg id="Capa_1" data-name="Capa 1" xmlns="http://www.w3.org/2000/svg" viewBox="0 0 120 100"><title>CCS-categories-icons-final</title><path d="M48.11,81v0.44a2.19,2.19,0,0,1-.67,1.56,0.59,0.59,0,0,1-.33.22c-0.11.11-.22,0.11-0.33,0.22a2.53,2.53,0,0,1-.44.11H45.89a2.28,2.28,0,0,1-2.22-2.22V80.84c0-.11.11-0.33,0.11-0.44A0.59,0.59,0,0,1,44,80.06c0.11-.11.11-0.22,0.22-0.33a0.59,0.59,0,0,1,.33-0.22c0.11-.11.22-0.11,0.33-0.22a2.53,2.53,0,0,1,.44-0.11,2.65,2.65,0,0,1,2,.56,0.59,0.59,0,0,1,.22.33c0.11,0.11.11,0.22,0.22,0.33a1,1,0,0,1,.33.55h0Zm10.22,1.89c-0.11-.11-0.22-0.11-0.33-0.22a2.53,2.53,0,0,0-.44-0.11H56.67a2.53,2.53,0,0,1-.44.11,1.65,1.65,0,0,1-.44.22,0.59,0.59,0,0,1-.33.22,2.22,2.22,0,1,0,3.11,0l-0.22-.22h0ZM94.56,57.17L80.33,71.28A28.25,28.25,0,0,1,69.22,92.51v5.56A2.23,2.23,0,0,1,67,100.28H38.11a2.23,2.23,0,0,1-2.22-2.22V92.51a27.83,27.83,0,0,1,4.44-47.22V15.84H38.11a2.23,2.23,0,0,1-2.22-2.22V2.51A2.23,2.23,0,0,1,38.11.28H67a2.23,2.23,0,0,1,2.22,2.22V13.62A2.23,2.23,0,0,1,67,15.84H64.78V45.28a29.5,29.5,0,0,1,10.56,9l8.22-8.22a2.15,2.15,0,0,1,3.11,0L94.56,54a2.28,2.28,0,0,1,0,3.22h0ZM40.33,11.39H64.78V4.73H40.33v6.67ZM75.78,72.51H29.33a23.33,23.33,0,0,0,10,17,2.45,2.45,0,0,1,1,1.78v4.44H64.78V91.28a1.88,1.88,0,0,1,1-1.78,23,23,0,0,0,10-17h0Zm14-16.89-4.67-4.67-8.56,8.56a2.35,2.35,0,0,1-1.89.67A2.51,2.51,0,0,1,73,59.06,23.59,23.59,0,0,0,61.78,48.95a2.19,2.19,0,0,1-1.33-2V15.84H44.89V46.73a2.19,2.19,0,0,1-1.33,2A23.29,23.29,0,0,0,29.44,67.95H77.33Z"/></svg>