<svg id="Capa_1" data-name="Capa 1" xmlns="http://www.w3.org/2000/svg" viewBox="0 0 120 100"><title>CCS-categories-icons-final</title><path d="M88.6,29.43a2,2,0,0,0-1-1.37L77,22.6a2,2,0,0,0-1.72-.06,2,2,0,0,0-1.15,1.29L71.3,33.49A3.09,3.09,0,0,0,70,39.33l0.76,0.39L69.87,41.5a3,3,0,0,0-4,1.32l-0.17.34a2.91,2.91,0,0,0,.17,2.46l-2,3.83a2,2,0,0,0,.53,2.5l-1.38,2.66A18.48,18.48,0,0,0,61,53.38L58.31,42.76a6.7,6.7,0,0,0,1.47-5.46l0-.2a6.71,6.71,0,0,0-3.87-4.17L49.38,7a2.12,2.12,0,0,0,.31-0.39A4.15,4.15,0,0,0,45.13.41L34.5,3.06a4.14,4.14,0,0,0-1.13,7.58l0.14,0.07,0.2,0.09,6.43,25.76a7,7,0,0,0-1.82,5.86l0.06,0.26A7,7,0,0,0,42.74,47l1.7,6.81a18.3,18.3,0,0,0-9.58,16.08,17.92,17.92,0,0,0,7.4,14.29c-5.33,1.82-6.17,4.61-6.17,6.17a2,2,0,0,0,.2.86,4.71,4.71,0,0,0-.2,1.35c0,5.08,8.57,7.74,17,7.74a32.09,32.09,0,0,0,11.6-1.93c3.5-1.41,5.42-3.48,5.42-5.82a4.55,4.55,0,0,0-.21-1.33,2,2,0,0,0,.21-0.87c0-2.59-2.2-4.75-6.22-6.14A17.62,17.62,0,0,0,68.4,60l2.47-4.78,0.54,0.09a2,2,0,0,0,1.8-1.1l1.89-3.65A3,3,0,0,0,77.38,49l0.1-.19a3,3,0,0,0-1.21-4L77.18,43,78,43.42A3.09,3.09,0,0,0,82,39l6.24-7.9A2,2,0,0,0,88.6,29.43Zm-5.09,1.1-4.93,6.25L75.08,35l2.24-7.64ZM47.26,56.9l0.65-.41a2,2,0,0,0,.83-2.17L46.4,44.92a2.73,2.73,0,0,0-1.5-1.48l-0.14,0a3.13,3.13,0,0,1-2.47-1.86,3.12,3.12,0,0,1,1.31-2.8l0.13-.1a1.57,1.57,0,0,0,.5-0.94,1.57,1.57,0,0,0,.11-1.06L37.88,10.76l7.79-1.94L52.2,35l0,0.06a2,2,0,0,0,1.68,1.43,2.8,2.8,0,0,1,1.93,1.68,2.88,2.88,0,0,1-1,2.53l-0.11.1a1.56,1.56,0,0,0-.44.9,1.57,1.57,0,0,0-.09,1L57.26,55.3a2,2,0,0,0,1.18,1.38l0.35,0.15a14.06,14.06,0,0,1,2.44,1.39l-9.31,18a2,2,0,0,0-.13,1.54,2.05,2.05,0,0,0,.27.55c-3,.11-6.17.74-8,2.18a13.91,13.91,0,0,1-5.19-10.64A14.24,14.24,0,0,1,47.26,56.9Zm5.88,27.15a13.75,13.75,0,0,1-5.06-1.11,18.28,18.28,0,0,1,5-.6,18.39,18.39,0,0,1,5.05.62A13.59,13.59,0,0,1,53.15,84.05ZM47,89V86.69a16.53,16.53,0,0,0,6.37,1.42,17.22,17.22,0,0,0,6.5-1.45L59.82,89a4,4,0,0,0,2.76,3.61A29.46,29.46,0,0,1,53.12,94a28.12,28.12,0,0,1-9-1.3A4.27,4.27,0,0,0,47,89Zm15-8.41A9,9,0,0,0,58.62,79l7.56-14.63a14.08,14.08,0,0,1,1.13,5.51A13.92,13.92,0,0,1,62,80.55Zm7.14-32.43,2.07,1.07-0.72,1.39-2.07-1.07Z"/></svg>