<svg id="Capa_1" data-name="Capa 1" xmlns="http://www.w3.org/2000/svg" viewBox="0 0 120 100"><title>CCS-categories-icons-final</title><g id="Capa_2" data-name="Capa 2"><g id="Capa_1-2" data-name="Capa 1-2"><g id="Group_15" data-name="Group 15"><path id="Shape" d="M110.1,93.74L86,78.06h0L19.79,35h0L3.19,24.15C-0.55,21.64-1.08,16.07,2,11.29A11.73,11.73,0,0,1,7.81,6.57,7.33,7.33,0,0,1,14.09,7h0.15L73.15,51.61h0L98,70.37l0.48,0.33a27.63,27.63,0,0,1,3.34,2.51l17.58,13.34a1.81,1.81,0,0,1,.48,2.11A2.19,2.19,0,0,1,118,90.12l-4.07.33-1.28,2.34a2.26,2.26,0,0,1-1.23,1A1.56,1.56,0,0,1,110.1,93.74Zm-5.85-13.09a13,13,0,0,1,0,4.52l6.36,4.14,0.8-1.46a2.24,2.24,0,0,1,1.36-1.08ZM82.64,63.59l1.26,2.94A30,30,0,0,1,87.19,73l17.06,12.18a14.52,14.52,0,0,0-5-8.79ZM62.29,48.52h0A18.71,18.71,0,0,1,65.38,59.8L85.08,72.63a25.35,25.35,0,0,0-5.7-9.55,59.84,59.84,0,0,0-8.59-8ZM31.15,23.4l2.76,4.32c3.94,6.28,8,12.26,7.54,16.2L62.87,58.64c-1-4-.3-7.94-2.94-11.1a65.14,65.14,0,0,0-10.2-9.62Zm-8.62-5.25-6.2-3.74c2.51,5,6.43,11.91,6.08,17.43L38.66,42.49A34.54,34.54,0,0,0,33,30.76a87.92,87.92,0,0,0-8.79-11Zm-4.87-1-3-2A12.21,12.21,0,0,1,13,18.8a11.73,11.73,0,0,1-4.42,4l13.84,9c-0.55-5.2-5.22-12.18-7.81-16.7ZM5.8,19.28c0.5,0.38,1.31.93,1,1.46a8.59,8.59,0,0,0,3.67-2.34,1.31,1.31,0,0,1,0-1.61,1.33,1.33,0,0,1,1.43-.6,11.08,11.08,0,0,0,.68-4.25c-0.35.58-1.33-.25-1.91-0.58S9,10,9.42,9.43a6.76,6.76,0,0,0-3.69,2.71,1.26,1.26,0,0,1,0,1.61,1.33,1.33,0,0,1-1.51.58,7.54,7.54,0,0,0-.6,5C4,18.75,5.27,19,5.8,19.28Z"/><circle id="Oval" cx="7.43" cy="16.09" r="1.03"/><circle id="Oval-2" cx="8.64" cy="12.67" r="1.03"/></g></g></g></svg>