<svg id="Capa_1" data-name="Capa 1" xmlns="http://www.w3.org/2000/svg" viewBox="0 0 120 100"><title>CCS-categories-icons-final</title><path d="M107,44.51l0.12-.58a20.5,20.5,0,0,0-.37-7,13.61,13.61,0,0,0-3.12-6.08A12.3,12.3,0,0,0,96.3,27C88,25.63,88,25,88,22.53l0-.42a22.65,22.65,0,0,0-3.16-9.47A27.22,27.22,0,0,0,76.11,3,16.71,16.71,0,0,0,59.41,1.64a33.7,33.7,0,0,0-10.3,6.45,24.5,24.5,0,0,0-2.5,3,12.28,12.28,0,0,1-1.14,1.41,10.67,10.67,0,0,1-3.7,2.27,19.05,19.05,0,0,1-7.64,1c-4.22,0-9.45-.06-14,4.31l-0.27.27a23.36,23.36,0,0,0-6.18,11.34,19.05,19.05,0,0,0,1,11.68l0.25,0.56a5.72,5.72,0,0,1-.25,6.29l-0.37.6a14.54,14.54,0,0,0-1.41,8.64,13.86,13.86,0,0,0,5.29,9.64A2.26,2.26,0,0,1,19,71.45l-0.13.9a37.18,37.18,0,0,0,.56,7.14A20.72,20.72,0,0,0,26,92.17l0.25,0.25c4.2,3.2,9.62,3.77,16.13,1.69s9.53-1.14,10.34-.67a1.06,1.06,0,0,1,.58.58l0.29,0.83,0.65,0.65a15.41,15.41,0,0,0,9.39,4.5h0.42a10.89,10.89,0,0,0,8-3.5A21.23,21.23,0,0,0,76,90.66a10.62,10.62,0,0,1,1.79-2.83c0.79-.79,1.39-0.85,4.6-0.48L85,87.64h0.54a22.57,22.57,0,0,0,14.72-6.56l0.58-.58a20.91,20.91,0,0,0,6-10.82,16.33,16.33,0,0,0-3.54-13.44,13.42,13.42,0,0,1-2.46-3.85l0.85-.85,0.29-.29a16.52,16.52,0,0,0,1.75-1.52A11.79,11.79,0,0,0,107,44.51Zm-10.41.79L95,46.7c-5.41,5.41-.31,11.86,2,14.76a8.17,8.17,0,0,1,2,6.74,12.55,12.55,0,0,1-3.7,6.51l-0.21.21a14.15,14.15,0,0,1-9.55,4.62l-2-.21a12.28,12.28,0,0,0-11.41,2.91h0a18.13,18.13,0,0,0-3.41,5.25A12.47,12.47,0,0,1,66.35,91a3.24,3.24,0,0,1-2,1,7,7,0,0,1-3.66-1.62,9.06,9.06,0,0,0-4-4c-4-2.21-9.57-2.18-16.65.1q-5.63,1.76-8.58-.31a13,13,0,0,1-3.85-7.7,29,29,0,0,1-.46-5.31,10.51,10.51,0,0,0-3.77-10.28,5.83,5.83,0,0,1-2.23-4.23,6.53,6.53,0,0,1,.5-3.77,13.77,13.77,0,0,0,.65-14.74,10.89,10.89,0,0,1-.5-6.54,14.43,14.43,0,0,1,3.71-7.41l0.27-.27c1.92-1.92,4.2-2,8-2A26.89,26.89,0,0,0,44.6,22.53a19.05,19.05,0,0,0,6.7-4.16,20.77,20.77,0,0,0,2.12-2.58,18.51,18.51,0,0,1,1.44-1.71,25.26,25.26,0,0,1,7.76-4.87L62.81,9a8.55,8.55,0,0,1,8.66.62,19.68,19.68,0,0,1,6.24,7,15.24,15.24,0,0,1,2.16,6C80,32.44,87.62,33.71,95.11,35a4.27,4.27,0,0,1,2.46,1.19,5.44,5.44,0,0,1,1.21,2.44,12,12,0,0,1,.27,3.89,4.11,4.11,0,0,1-.9,1.37L97,45Z"/><path d="M60.8,16.4h0a7.59,7.59,0,0,0-2.25,5.45,7.7,7.7,0,0,0,15.4.1s0-.07,0-0.1V21.54a7.73,7.73,0,0,0-7.72-7.37A7.65,7.65,0,0,0,60.8,16.4Zm9.4,5.12-0.07.76a3.89,3.89,0,0,1-3.86,3.51,4,4,0,0,1-4-4h0A3.89,3.89,0,0,1,63.38,19h0a4,4,0,0,1,6.78,2.51Z"/><path d="M66.64,33.73h0a7.59,7.59,0,0,0-2.25,5.45,7.7,7.7,0,0,0,15.4.1s0-.07,0-0.1V38.87a7.73,7.73,0,0,0-7.72-7.37A7.65,7.65,0,0,0,66.64,33.73ZM76,38.85L76,39.61a3.89,3.89,0,0,1-3.86,3.51,4,4,0,0,1-4-4h0a3.89,3.89,0,0,1,1.1-2.75h0A4,4,0,0,1,76,38.88Z"/><path d="M28.27,31.08h0A7.59,7.59,0,0,0,26,36.52a7.7,7.7,0,0,0,15.4.1s0-.07,0-0.1V36.22a7.73,7.73,0,0,0-7.72-7.37A7.65,7.65,0,0,0,28.27,31.08Zm9.4,5.12L37.6,37a3.89,3.89,0,0,1-3.86,3.51,4,4,0,0,1-4-4h0a3.89,3.89,0,0,1,1.1-2.75h0a4,4,0,0,1,6.78,2.51Z"/><path d="M27.56,51.94h0a7.59,7.59,0,0,0-2.25,5.45,7.7,7.7,0,0,0,15.4.1s0-.07,0-0.1V57.08A7.73,7.73,0,0,0,33,49.71,7.65,7.65,0,0,0,27.56,51.94ZM37,57.06l-0.07.76A3.89,3.89,0,0,1,33,61.33a4,4,0,0,1-4-4h0a3.89,3.89,0,0,1,1.1-2.75h0a4,4,0,0,1,6.78,2.51Z"/><path d="M46.83,67.5h0a7.59,7.59,0,0,0-2.25,5.45A7.7,7.7,0,0,0,60,73s0-.07,0-0.1V72.64a7.73,7.73,0,0,0-7.72-7.37A7.65,7.65,0,0,0,46.83,67.5Zm9.4,5.12-0.07.76a3.89,3.89,0,0,1-3.86,3.51,4,4,0,0,1-4-4h0a3.89,3.89,0,0,1,1.1-2.75h0a4,4,0,0,1,6.78,2.51Z"/><path d="M81.31,62.2h0a7.59,7.59,0,0,0-2.25,5.45,7.7,7.7,0,0,0,15.4.1s0-.07,0-0.1V67.33A7.73,7.73,0,0,0,86.74,60,7.65,7.65,0,0,0,81.31,62.2Zm9.4,5.12-0.07.76a3.89,3.89,0,0,1-3.86,3.51,4,4,0,0,1-4-4h0a3.89,3.89,0,0,1,1.1-2.75h0a4,4,0,0,1,6.78,2.51Z"/><path d="M44.79,54.69h0a5.26,5.26,0,0,0-1.56,3.77,5.33,5.33,0,0,0,10.66.07s0,0,0-.07V58.24a5.35,5.35,0,0,0-5.34-5.1A5.29,5.29,0,0,0,44.79,54.69Zm6.5,3.54,0,0.52a2.69,2.69,0,0,1-2.67,2.43,2.76,2.76,0,0,1-2.76-2.76h0a2.7,2.7,0,0,1,.76-1.91h0a2.76,2.76,0,0,1,4.69,1.74Z"/><path d="M40.55,41.78h0A5.26,5.26,0,0,0,39,45.55a5.33,5.33,0,0,0,10.66.07s0,0,0-.07V45.34a5.35,5.35,0,0,0-5.34-5.1A5.29,5.29,0,0,0,40.55,41.78Zm6.5,3.54,0,0.52a2.69,2.69,0,0,1-2.67,2.43,2.76,2.76,0,0,1-2.76-2.76h0a2.7,2.7,0,0,1,.76-1.91h0A2.76,2.76,0,0,1,47,45.35Z"/><path d="M84.4,38.24h0A5.26,5.26,0,0,0,82.84,42a5.33,5.33,0,0,0,10.66.07s0,0,0-.07V41.8a5.35,5.35,0,0,0-5.34-5.1A5.29,5.29,0,0,0,84.4,38.24Zm6.5,3.54,0,0.52a2.69,2.69,0,0,1-2.67,2.43A2.76,2.76,0,0,1,85.42,42h0a2.7,2.7,0,0,1,.76-1.91h0a2.76,2.76,0,0,1,4.69,1.74Z"/><path d="M43.91,25.69h0a5.26,5.26,0,0,0-1.56,3.77A5.33,5.33,0,0,0,53,29.53s0,0,0-.07V29.25a5.35,5.35,0,0,0-5.34-5.1A5.29,5.29,0,0,0,43.91,25.69Zm6.5,3.54,0,0.52a2.69,2.69,0,0,1-2.67,2.43,2.76,2.76,0,0,1-2.76-2.76h0a2.7,2.7,0,0,1,.76-1.91h0a2.76,2.76,0,0,1,4.69,1.74Z"/><path d="M52,35.06h0a5.26,5.26,0,0,0-1.56,3.77,5.33,5.33,0,0,0,10.66.07s0,0,0-.07V38.62a5.35,5.35,0,0,0-5.34-5.1A5.29,5.29,0,0,0,52,35.06Zm6.5,3.54,0,0.52a2.69,2.69,0,0,1-2.67,2.43,2.76,2.76,0,0,1-2.76-2.76h0a2.7,2.7,0,0,1,.76-1.91h0a2.76,2.76,0,0,1,4.69,1.74Z"/><path d="M57.17,48.68h0a5.26,5.26,0,0,0-1.56,3.77,5.33,5.33,0,0,0,10.66.07s0,0,0-.07V52.23a5.35,5.35,0,0,0-5.34-5.1A5.29,5.29,0,0,0,57.17,48.68Zm6.5,3.54,0,0.52A2.69,2.69,0,0,1,61,55.17a2.76,2.76,0,0,1-2.76-2.76h0A2.7,2.7,0,0,1,59,50.5h0a2.76,2.76,0,0,1,4.69,1.74Z"/><path d="M64.47,64.19h0a6.79,6.79,0,0,0-2,4.87,6.89,6.89,0,0,0,13.78.09s0-.06,0-0.09V68.79a6.92,6.92,0,0,0-6.91-6.6A6.84,6.84,0,0,0,64.47,64.19Zm8.41,4.58-0.06.68a3.48,3.48,0,0,1-3.45,3.14A3.57,3.57,0,0,1,65.79,69h0a3.48,3.48,0,0,1,1-2.46h0a3.57,3.57,0,0,1,6.07,2.25Z"/><path d="M79.81,50.8h0a4,4,0,0,0-1.19,2.88,4.08,4.08,0,0,0,8.15.05s0,0,0-.05V53.53a4.09,4.09,0,0,0-4.09-3.9A4,4,0,0,0,79.81,50.8Zm5,2.71,0,0.4a2.06,2.06,0,0,1-2,1.86,2.11,2.11,0,0,1-2.11-2.11h0a2.06,2.06,0,0,1,.58-1.46h0a2.11,2.11,0,0,1,3.59,1.33Z"/><path d="M32.59,74.67h0A5.39,5.39,0,0,0,31,78.39a4.91,4.91,0,0,0,5.08,5.08,5.48,5.48,0,0,0,5.33-5.26V77.93a4.93,4.93,0,0,0-5.1-4.86A5.43,5.43,0,0,0,32.59,74.67ZM38.86,78l-0.06.51a2.79,2.79,0,0,1-2.66,2.44,2.55,2.55,0,0,1-2.63-2.63h0a2.76,2.76,0,0,1,.79-1.88h0a2.7,2.7,0,0,1,3.81-.07A2.56,2.56,0,0,1,38.84,78Z"/><path d="M59.64,80.7h0a4.71,4.71,0,0,0,.22,3.53,4.29,4.29,0,0,0,6,1.94A4.79,4.79,0,0,0,67.89,80l0-.05-0.08-.16A4.3,4.3,0,0,0,61.9,78,4.74,4.74,0,0,0,59.64,80.7Zm6.19,0.09L66,81.22a2.44,2.44,0,0,1-1.11,3,2.22,2.22,0,0,1-3.09-1h0a2.41,2.41,0,0,1-.13-1.78h0a2.36,2.36,0,0,1,2.94-1.56,2.24,2.24,0,0,1,1.22,1v0Z"/><path d="M68.13,54.35h0a4.71,4.71,0,0,0,.22,3.53,4.29,4.29,0,0,0,6,1.94,4.79,4.79,0,0,0,2.07-6.21l0-.05-0.08-.16a4.3,4.3,0,0,0-5.89-1.77A4.74,4.74,0,0,0,68.13,54.35Zm6.19,0.09,0.16,0.42a2.44,2.44,0,0,1-1.11,3,2.22,2.22,0,0,1-3.09-1h0A2.41,2.41,0,0,1,70.15,55h0a2.36,2.36,0,0,1,2.94-1.56,2.24,2.24,0,0,1,1.22,1v0Z"/></svg>