<svg id="Capa_1" data-name="Capa 1" xmlns="http://www.w3.org/2000/svg" viewBox="0 0 120 100"><title>CCS-categories-icons-final</title><path d="M15.11,100.12a2.79,2.79,0,0,1-1.88-.73L11,97.33a2.8,2.8,0,0,1-.09-4l7.51-7.52,2-9.52a2.8,2.8,0,0,1,.84-1.49C47.84,50.21,98.55,3.44,99.91,2.11A6.36,6.36,0,0,1,104.47,0a5.86,5.86,0,0,1,4.24,2.25A5.12,5.12,0,0,1,110,6.14a6.65,6.65,0,0,1-2.27,4.17L36,89.2a2.8,2.8,0,0,1-1.55.87L24.24,92l-7.13,7.27A2.79,2.79,0,0,1,15.11,100.12ZM33.88,87h0Zm-8.21-8.73L24,86.35l8.45-1.61L103.75,6.41a2.83,2.83,0,0,1,.32-0.3,2,2,0,0,0,.28-0.32l-0.08-.08a3.93,3.93,0,0,0-.41.37C102.58,7.36,36.18,68.58,25.68,78.27Z"/></svg>