<svg id="Capa_1" data-name="Capa 1" xmlns="http://www.w3.org/2000/svg" viewBox="0 0 120 100"><defs><style>.cls-1{fill:#fff;}</style></defs><title>CCS-categories-icons-final</title><path d="M9,39.41a4.5,4.5,0,0,1,4-.43L13.12,39c1.31,0.52,7.77,3.05,14.22,5.71l1.25,0.52,14.91,6.21c21.47,8.94,48.6,20.24,61,25.2h0c3,1.2,3.86,4.21,3.81,6.91a19.19,19.19,0,0,1-2.56,8.61,16.71,16.71,0,0,1-6.37,6.68,8.73,8.73,0,0,1-9.2-.39L21.24,57.1,8.71,49.83a5.67,5.67,0,0,1-2.81-3.67,6,6,0,0,1,.53-4A6.7,6.7,0,0,1,9,39.41H9ZM95.35,77.25c-13.93-5.69-35.49-14.67-53.22-22,2.75,2.59,5.33,5.4,7.89,8.23l1.27,1.41c4.53,5,9.08,10.09,14.53,14.41L92.25,95.13l0,0a6,6,0,0,0,1,.51,1.48,1.48,0,0,1,1.07-1.73l6.77-1.81c0.29-.4.58-0.81,0.84-1.25l-9.78,2.62a1.48,1.48,0,1,1-.77-2.87l12.2-3.27c0.13-.38.24-0.75,0.34-1.11l-12.8,3.43a1.49,1.49,0,0,1-.77-2.87l13.39-3.59a1.47,1.47,0,0,1,.59,0,5.59,5.59,0,0,0-.17-1.31,1.46,1.46,0,0,1-.67.39L92,85.32a1.49,1.49,0,1,1-.77-2.87l10.19-2.73-0.26-.11-0.65-.27-0.61-.24-5.1,1.37A1.49,1.49,0,1,1,94,77.6ZM26.19,48.57a4.3,4.3,0,0,0-2.06,1.93,5.67,5.67,0,0,0-.73,3.27l30.47,18.3c-1.62-1.73-3.19-3.47-4.73-5.18l-1.32-1.46C42.75,59.81,37.87,54.64,32,51ZM91.76,0c6.43,0,10.79,1,13.69,2.6s4.43,3.84,4.79,6a9.65,9.65,0,0,1-.27,4.72,8.06,8.06,0,0,1-2.3,3.44,18.77,18.77,0,0,1-6.95,3.45L99,20.74a28.56,28.56,0,0,0-4.54,1.63c-1.54.78-2,1.49-2,2.38A3,3,0,0,0,93,26.63,5,5,0,0,0,94.79,28a29.45,29.45,0,0,0,5.35,1.87l1.78,0.51a22.91,22.91,0,0,1,8.19,3.82,11.43,11.43,0,0,1,4.12,9.34,10.73,10.73,0,0,1-3.36,7.84,29.36,29.36,0,0,1-6.56,4.54l-0.65.36a32.09,32.09,0,0,0-5.15,3.25,4.89,4.89,0,0,0-2.09,3.78,2.06,2.06,0,0,1,0,.43v0a2,2,0,0,1-.27.65l-0.07.1a2,2,0,0,1-.64.55,2,2,0,0,1-.56.2l-0.08,0a2,2,0,0,1-.65,0h0A1.94,1.94,0,0,1,93.3,65l-0.13-.1a1.88,1.88,0,0,1-.41-0.46l0-.08a2.07,2.07,0,0,1-.18-0.42,7.69,7.69,0,0,1,.33-6.54,10.8,10.8,0,0,1,3.87-3.52l0.44-.27c2.63-1.62,4.19-2.58,4.19-5.1a1.3,1.3,0,0,0-.73-1.09A11.38,11.38,0,0,0,97.21,46c-1.58-.45-3.43-0.84-5.49-1.24l-0.91-.18c-1.78-.35-3.67-0.72-5.54-1.16-4.33-1-8.92-2.47-12.2-5.18a12.35,12.35,0,0,1-3.84-5.3,14.58,14.58,0,0,1-.52-7.51c0.63-3.77,3.09-6.19,6-7.8a40.74,40.74,0,0,1,9.8-3.33l1.54-.37a53.67,53.67,0,0,0,7.49-2.13c2.49-1,3.58-2.08,3.86-3.31S96.52,4,91.46,4a2,2,0,0,1-.05-4h0.36ZM22.93,47.23c-5.35-2.18-10.15-4.07-11.27-4.5l-0.17-.07a0.63,0.63,0,0,0-.51.14,2.79,2.79,0,0,0-1,1.13,2.11,2.11,0,0,0-.22,1.36,1.75,1.75,0,0,0,.94,1.11l9.78,5.67A8.84,8.84,0,0,1,21.55,49a8.09,8.09,0,0,1,1.38-1.8h0Z"/><path class="cls-1" d="M100.75,5a13.76,13.76,0,0,1,2.83,1.1c2.07,1.11,2.63,2.36,2.76,3.14a5.75,5.75,0,0,1-.12,2.81,4.12,4.12,0,0,1-1.2,1.77,15.11,15.11,0,0,1-5.49,2.61l-1.46.45a34.39,34.39,0,0,0-5.43,2c-0.31.16-.62,0.33-0.93,0.52a28.81,28.81,0,0,0-5.78,2.35c-2.59,1.47-4.86,3.68-4.86,7a7.71,7.71,0,0,0,1.38,4.55,9.82,9.82,0,0,0,3.42,2.9,38.23,38.23,0,0,0,8.73,2.91l0.46,0.12c3.27,0.82,6.26,1.61,8.45,2.91a7.14,7.14,0,0,1,2.43,2.21,5.73,5.73,0,0,1,.87,3.21,4.29,4.29,0,0,1-1.12,3L105,51a8.48,8.48,0,0,0,.34-2.45,5.22,5.22,0,0,0-2.36-4.3,15.14,15.14,0,0,0-4.66-2c-1.75-.5-3.76-0.91-5.81-1.32l-0.92-.18C89.78,40.33,88,40,86.17,39.55c-4.27-1-8.06-2.29-10.58-4.38a8.43,8.43,0,0,1-2.64-3.61,10.67,10.67,0,0,1-.33-5.49c0.36-2.17,1.73-3.71,4-5a37.11,37.11,0,0,1,8.83-3l1.47-.35a57.91,57.91,0,0,0,8.13-2.33c2.78-1.12,5.51-2.9,6.23-6.12A6.54,6.54,0,0,0,100.75,5h0Z"/><path class="cls-1" d="M88.57,23.7a6.24,6.24,0,0,0-.09,1.06A7,7,0,0,0,89.8,29,8.92,8.92,0,0,0,93,31.54a34.48,34.48,0,0,0,6.32,2.23l1.52,0.44a19.22,19.22,0,0,1,6.79,3.08,7.49,7.49,0,0,1,2.68,6.29,6.55,6.55,0,0,1-.57,2.74,8.36,8.36,0,0,0-1.27-3.6,10.12,10.12,0,0,0-3.4-3.15c-2.64-1.57-6.08-2.45-9.25-3.24l-0.28-.07a36.69,36.69,0,0,1-8.22-2.69,6.91,6.91,0,0,1-2.41-2A4.74,4.74,0,0,1,84,28.71c0-1.72,1.12-3.14,3.36-4.41Q88,24,88.57,23.7h0Z"/></svg>