<svg id="Capa_1" data-name="Capa 1" xmlns="http://www.w3.org/2000/svg" viewBox="0 0 120 100"><title>CCS-categories-icons-final</title><path d="M108.37,10.22L99.19,1A3.45,3.45,0,0,0,96.8,0a2.1,2.1,0,0,0-2,2L94.52,8.6a4.91,4.91,0,0,0-.65-0.1l-6.54-.63a6.49,6.49,0,0,0-5.5,1.83L11.57,86.6a4,4,0,0,0-.84,3.85,8.12,8.12,0,0,0,2.21,3.74l3.43,3.43a7.35,7.35,0,0,0,5,2.39,3.69,3.69,0,0,0,2.57-1L99.78,27.58a6.4,6.4,0,0,0,1.78-5.46l-0.64-6.59a5.52,5.52,0,0,0-.12-0.67l6.57-.2a2.09,2.09,0,0,0,2.06-2.1A3.4,3.4,0,0,0,108.37,10.22ZM88.07,13.34L94.5,14,94.74,14a1.46,1.46,0,0,1,.5.39,1,1,0,0,1,.24.44l0.62,6.56a2.13,2.13,0,0,1-.51,1.81l-49.89,47a2.58,2.58,0,0,0-.42-0.06,8.12,8.12,0,0,1-3.42-2.51l-0.1-.11a8.18,8.18,0,0,1-2-2.87L86.2,13.85A2.22,2.22,0,0,1,88.07,13.34ZM36.29,68.46a20.75,20.75,0,0,0,2,2.39l0.52,0.52a20,20,0,0,0,3,2.49L20,94.44a1.22,1.22,0,0,1-.27-0.21l-3.47-3.47a1.18,1.18,0,0,1-.15-0.19Z"/></svg>