<svg id="Capa_1" data-name="Capa 1" xmlns="http://www.w3.org/2000/svg" viewBox="0 0 120 100"><title>CCS-categories-icons-final</title><g id="Capa_2" data-name="Capa 2"><g id="Capa_1-2" data-name="Capa 1-2"><path d="M14.94,22.13L58.43,0.39a3.37,3.37,0,0,1,3.14,0l43.49,21.75a3.51,3.51,0,0,1,2.46,3.57V74.28a3.31,3.31,0,0,1-2.09,3.14L61.94,99.29a4.77,4.77,0,0,1-2.11.71,2.51,2.51,0,0,1-1.74-.71L14.59,77.54a3.34,3.34,0,0,1-2.11-3.26v-49A3.89,3.89,0,0,1,14.94,22.13ZM60.17,7.42L24.39,25.31,60.17,43.19,95.95,25.31Zm40,23.83L63.68,49.51V90.17l36.49-18.23V31.25ZM56.31,49.51L19.85,31.25V71.94L56.31,90.17V49.51Z"/></g></g></svg>