<svg id="Capa_1" data-name="Capa 1" xmlns="http://www.w3.org/2000/svg" viewBox="0 0 120 100"><title>CCS-categories-icons-final</title><path d="M61.63,53.88L53,49.35,39.43,42.16l-3.11-1.65,1.61,2.79V16.59l-4.86,2.79,8.59,4.54,13.61,7.2,3.11,1.65L56.77,30v26.7a3.23,3.23,0,1,0,6.47,0V30a3.21,3.21,0,0,0-1.61-2.79L53,22.64l-13.61-7.2-3.11-1.65a3.26,3.26,0,0,0-4.86,2.79V43.3a3.21,3.21,0,0,0,1.61,2.79l8.59,4.54,13.61,7.19,3.11,1.65a3.23,3.23,0,1,0,3.25-5.58h0Z"/><path d="M83.7,40.51L75.11,45,61.49,52.24l-3.11,1.65,4.86,2.79V30l-1.61,2.79,8.59-4.54L83.84,21,87,19.38l-4.86-2.79V43.3a3.23,3.23,0,1,0,6.47,0V16.59a3.26,3.26,0,0,0-4.86-2.79l-8.59,4.54-13.62,7.2-3.11,1.65A3.24,3.24,0,0,0,56.77,30v26.7a3.26,3.26,0,0,0,4.86,2.79l8.59-4.54,13.62-7.19L87,46.09a3.26,3.26,0,0,0,1.16-4.42,3.29,3.29,0,0,0-4.42-1.16h0Z"/><path d="M83.7,13.78l-8.59,4.54-13.62,7.2-3.11,1.65h3.27L53,22.63l-13.61-7.2-3.11-1.65v5.58l8.59-4.54L58.52,7.64,61.64,6H58.37L67,10.53l13.62,7.19,3.11,1.65A3.23,3.23,0,0,0,87,13.78L78.28,9.2,64.66,2c-1-.53-2-1.07-3-1.58a3.49,3.49,0,0,0-3.32,0L58,0.59c-0.52.27-1,.54-1.54,0.82l-13,6.86c-3.42,1.81-6.88,3.57-10.27,5.42L33,13.78a3.26,3.26,0,0,0,0,5.58l8.68,4.58,13.62,7.2c1,0.53,2,1.08,3,1.58a3.49,3.49,0,0,0,3.32,0L62,32.56l1.54-.82,13-6.86c3.42-1.81,6.88-3.57,10.27-5.42l0.16-.09a3.26,3.26,0,0,0,1.16-4.42,3.3,3.3,0,0,0-4.41-1.16h0Z"/><path d="M71,7.1l-8.58,4.54-13.61,7.2-3.11,1.65a3.26,3.26,0,0,0-1.16,4.42A3.31,3.31,0,0,0,49,26.07l8.58-4.54,13.61-7.2,3.11-1.65a3.26,3.26,0,0,0,1.16-4.42A3.31,3.31,0,0,0,71,7.1Z"/><path d="M36.3,94l-8.58-4.53L14.11,82.25,11,80.6l1.61,2.79V56.69L7.74,59.48,16.32,64l13.61,7.2L33,72.86l-1.61-2.79V96.76a3.23,3.23,0,0,0,6.47,0V70.07a3.21,3.21,0,0,0-1.61-2.79l-8.58-4.54-13.61-7.2L11,53.89a3.26,3.26,0,0,0-4.86,2.79v26.7a3.21,3.21,0,0,0,1.61,2.79l8.58,4.53L29.93,97.9,33,99.55A3.23,3.23,0,1,0,36.3,94h0Z"/><path d="M58.37,80.6l-8.59,4.53L36.16,92.31,33,94l4.86,2.79V70.06L36.3,72.85l8.59-4.54,13.62-7.2,3.11-1.65-4.86-2.79V83.39a3.23,3.23,0,0,0,6.47,0V56.68a3.26,3.26,0,0,0-4.86-2.79l-8.59,4.54-13.62,7.2L33,67.27a3.24,3.24,0,0,0-1.61,2.79V96.75a3.26,3.26,0,0,0,4.86,2.79L44.89,95l13.62-7.19,3.11-1.65a3.26,3.26,0,0,0,1.16-4.42,3.3,3.3,0,0,0-4.42-1.16h0Z"/><path d="M58.37,53.88l-8.59,4.54-13.62,7.2L33,67.27h3.27l-8.58-4.54-13.61-7.2L11,53.88v5.58l8.59-4.54,13.61-7.2,3.11-1.65H33.06l8.59,4.54,13.61,7.19,3.11,1.65a3.23,3.23,0,0,0,3.25-5.58L53,49.29l-13.62-7.2c-1-.53-2-1.08-3-1.58a3.49,3.49,0,0,0-3.32,0l-0.32.17-1.54.82-13,6.86c-3.42,1.81-6.88,3.57-10.27,5.43l-0.16.09a3.26,3.26,0,0,0,0,5.58L16.41,64,30,71.25c1,0.53,2,1.08,3,1.58a3.49,3.49,0,0,0,3.32,0l0.32-.17,1.54-.82L51.2,65c3.42-1.81,6.88-3.57,10.27-5.43l0.16-.09A3.26,3.26,0,0,0,62.79,55a3.3,3.3,0,0,0-4.42-1.15h0Z"/><path d="M45.7,47.21l-8.58,4.54-13.61,7.2L20.4,60.6A3.26,3.26,0,0,0,19.23,65a3.31,3.31,0,0,0,4.42,1.16l8.58-4.54,13.61-7.2L49,52.8a3.26,3.26,0,0,0,1.16-4.42,3.29,3.29,0,0,0-4.42-1.16h0Z"/><path d="M87,94l-8.59-4.53L64.74,82.25,61.63,80.6l1.61,2.79V56.67l-4.86,2.79L67,64l13.62,7.2,3.11,1.65-1.61-2.79V96.75a3.23,3.23,0,0,0,6.47,0V70.06A3.21,3.21,0,0,0,87,67.27l-8.59-4.54-13.62-7.2-3.11-1.65a3.26,3.26,0,0,0-4.86,2.79V83.39a3.21,3.21,0,0,0,1.61,2.79L67,90.71,80.58,97.9l3.11,1.65A3.23,3.23,0,0,0,87,94h0Z"/><path d="M109,80.6l-8.58,4.53L86.81,92.31,83.7,94l4.86,2.79V70.06L87,72.85l8.58-4.54,13.61-7.2,3.11-1.65-4.86-2.79v26.7a3.23,3.23,0,0,0,6.47,0V56.68A3.26,3.26,0,0,0,109,53.88l-8.58,4.54-13.61,7.2L83.7,67.27a3.24,3.24,0,0,0-1.61,2.79V96.75A3.26,3.26,0,0,0,87,99.55L95.53,95l13.61-7.19,3.11-1.65a3.26,3.26,0,0,0,1.16-4.42A3.3,3.3,0,0,0,109,80.6h0Z"/><path d="M109,53.89l-8.58,4.54-13.61,7.2L83.7,67.28H87l-8.59-4.54-13.62-7.2-3.11-1.65v5.58l8.59-4.54,13.62-7.19L87,46.1H83.7l8.58,4.54,13.61,7.2L109,59.49a3.23,3.23,0,0,0,3.25-5.58l-8.68-4.59L90,42.12c-1-.53-2-1.08-3-1.58a3.49,3.49,0,0,0-3.32,0l-0.32.17c-0.52.27-1,.54-1.54,0.82l-13,6.85c-3.42,1.81-6.88,3.57-10.27,5.42l-0.16.09a3.26,3.26,0,0,0,0,5.58L67,64.06l13.62,7.2c1,0.53,2,1.08,3,1.58a3.49,3.49,0,0,0,3.32,0l0.32-.17,1.54-.82,13-6.86c3.42-1.81,6.88-3.57,10.26-5.42l0.16-.09A3.23,3.23,0,0,0,109,53.89h0Z"/><path d="M96.35,47.21l-8.58,4.54-13.61,7.2L71,60.6A3.26,3.26,0,0,0,69.88,65a3.31,3.31,0,0,0,4.42,1.16l8.58-4.54,13.61-7.2,3.11-1.65A3.23,3.23,0,1,0,96.35,47.21Z"/></svg>