<svg id="Capa_1" data-name="Capa 1" xmlns="http://www.w3.org/2000/svg" viewBox="0 0 120 100"><title>CCS-categories-icons-final</title><path d="M8.38,5.47H111.62A8.42,8.42,0,0,1,120,13.85V25.12a8.4,8.4,0,0,1-8.38,8.38l-0.09,57.18a3.85,3.85,0,0,1-3.85,3.85H12.32a3.85,3.85,0,0,1-3.85-3.85L8.38,33.5A8.42,8.42,0,0,1,0,25.12V13.85A8.4,8.4,0,0,1,8.38,5.47h0Zm41,44.5H70.56V33.5H49.43V50Zm25,7.69H45.59a3.85,3.85,0,0,1-3.85-3.85V33.5H16.16V86.84h87.67V33.5H78.25V53.81a3.85,3.85,0,0,1-3.85,3.85h0Zm37.21-44.5H8.38a0.69,0.69,0,0,0-.69.69V25.12a0.7,0.7,0,0,0,.69.69H111.62a0.69,0.69,0,0,0,.69-0.69V13.85A0.7,0.7,0,0,0,111.62,13.16Z"/></svg>