<svg id="category-parafernalia" xmlns="http://www.w3.org/2000/svg" width="55" height="55" viewBox="0 0 55 55">
  <g id="Grupo_226" data-name="Grupo 226" transform="translate(-2373 114)">
    <path id="BG_Copy_6" data-name="BG Copy 6" d="M7.692,0H47.308A7.692,7.692,0,0,1,55,7.692V47.308A7.692,7.692,0,0,1,47.308,55H7.692A7.692,7.692,0,0,1,0,47.308V7.692A7.692,7.692,0,0,1,7.692,0Z" transform="translate(2373 -114)" fill="#86c569"/>
    <g id="Group_2_Copy_3" data-name="Group 2 Copy 3" transform="translate(2383.313 -103.688)">
      <g id="Group" transform="translate(0 0)">
        <path id="Shape" d="M4.288,34.154a4.394,4.394,0,0,1-2.815-1.467A5.523,5.523,0,0,1,.166,30.735a1.687,1.687,0,0,1,.2-1.834L22.895,6.377a2.328,2.328,0,0,1,1.689-.654h.04l1.509-1.51a1.1,1.1,0,0,1,.809-.308,1.893,1.893,0,0,1,.415.049A5.376,5.376,0,0,0,30.922.371.5.5,0,0,1,31.4,0h.03a.5.5,0,0,1,.47.418,2.367,2.367,0,0,0,1.874,1.87.5.5,0,0,1,.413.47.5.5,0,0,1-.369.507,5.394,5.394,0,0,0-3.593,3.593l0,.007a1.216,1.216,0,0,1-.273,1.161L28.439,9.5a2.374,2.374,0,0,1-.654,1.768L15.535,23.514,5.259,33.791A1.318,1.318,0,0,1,4.288,34.154Zm-2.942-4.62a.391.391,0,0,0-.268.074c-.092.092-.118.371.031.788A4.607,4.607,0,0,0,2.18,31.98a3.546,3.546,0,0,0,2.112,1.178.367.367,0,0,0,.258-.075c.223-.224-.027-1.294-1.1-2.37a4.6,4.6,0,0,0-1.582-1.072A1.608,1.608,0,0,0,1.346,29.535ZM11.62,19.26a.388.388,0,0,0-.268.075L2.04,28.647l.047.014c.038.011.077.022.117.037A5.523,5.523,0,0,1,4.155,30,5.265,5.265,0,0,1,5.513,32.12l9.313-9.313c.091-.092.117-.371-.032-.787a4.593,4.593,0,0,0-1.072-1.583,4.617,4.617,0,0,0-1.583-1.072A1.606,1.606,0,0,0,11.62,19.26Zm2.627-2.635a.366.366,0,0,0-.258.075l-1.673,1.673.049.014c.037.011.075.022.113.036A5.527,5.527,0,0,1,14.43,19.73a5.262,5.262,0,0,1,1.357,2.116l1.673-1.673c.092-.093.118-.373-.031-.788A4.585,4.585,0,0,0,16.358,17.8,3.542,3.542,0,0,0,14.247,16.625ZM24.583,6.719a1.346,1.346,0,0,0-.979.365L14.95,15.737a5.269,5.269,0,0,1,2.116,1.356,5.544,5.544,0,0,1,1.306,1.952c.013.036.023.072.033.106l.017.057,8.653-8.652c.65-.651.4-2-.536-2.938A2.894,2.894,0,0,0,24.583,6.719ZM26.944,4.9a.167.167,0,0,0-.1.024L25.8,5.96a4.294,4.294,0,0,1,2.39,2.377l1.051-1.024c.089-.1-.056-.806-.824-1.574A2.51,2.51,0,0,0,26.944,4.9Zm4.474-3.061a6.384,6.384,0,0,1-2.861,2.71,5,5,0,0,1,.572.486,4.917,4.917,0,0,1,.51.606A6.391,6.391,0,0,1,32.332,2.78,3.2,3.2,0,0,1,31.418,1.835Z" transform="translate(0 0)" fill="#fff" stroke="#fff" stroke-miterlimit="10" stroke-width="1"/>
        <path id="Shape-2" data-name="Shape" d="M.194,1.126A.659.659,0,0,0,1.126.194.659.659,0,0,0,.194,1.126Z" transform="translate(14.7 18.167)" fill="#fff"/>
      </g>
    </g>
  </g>
</svg>
