<svg id="Category-flores" xmlns="http://www.w3.org/2000/svg" width="54.331" height="54.331" viewBox="0 0 54.331 54.331">
  <g id="Grupo_7" data-name="Grupo 7">
    <path id="BG_Copy_6" data-name="BG Copy 6" d="M7.6,0H46.732a7.6,7.6,0,0,1,7.6,7.6V46.732a7.6,7.6,0,0,1-7.6,7.6H7.6a7.6,7.6,0,0,1-7.6-7.6V7.6A7.6,7.6,0,0,1,7.6,0Z" fill="#86c569"/>
  </g>
  <g id="Grupo_8" data-name="Grupo 8" transform="translate(5 8)">
    <g id="Group_50" data-name="Group 50" transform="translate(0)">
      <path id="Fill_1" data-name="Fill 1" d="M4.418,30.885h0a2.89,2.89,0,0,1-1.683-.579c-.574-.421-1.167-.856-1.719-1.331a2.2,2.2,0,0,1-.821-1.8c.029-.879-.006-1.717-.044-2.6-.012-.288-.025-.585-.035-.882a8.391,8.391,0,0,0-.058-.842A8.382,8.382,0,0,1,0,22,3.387,3.387,0,0,1,.9,19.85c.156-.179.309-.367.456-.55A7.572,7.572,0,0,1,2.579,18.01a1.643,1.643,0,0,0,.586-1.371,3.954,3.954,0,0,1,.914-1.955l.141-.2A10.23,10.23,0,0,1,5,13.576c.092-.1.188-.2.279-.305a4.323,4.323,0,0,0,.977-2.31c.112-.672.566-.924,1.212-1.1a.7.7,0,0,0,.391-.157c.352-.392.71-.78,1.055-1.155s.7-.764,1.055-1.155A.183.183,0,0,0,10,7.333c.011-.029.021-.053.043-.053.74-.161.9-.69,1.061-1.249.035-.118.07-.239.112-.356A1.705,1.705,0,0,1,11.8,4.93a7.758,7.758,0,0,0,.682-.727,3.979,3.979,0,0,1,1.546-1.27,1.534,1.534,0,0,1,.7-.157c.184.015.369.022.55.022a6.375,6.375,0,0,0,3.554-1.079,5.016,5.016,0,0,0,.985-.931L19.97.622A2.009,2.009,0,0,1,21.355,0a1.352,1.352,0,0,1,.96.387,11.715,11.715,0,0,0,4.143,2.467A2.988,2.988,0,0,1,28.1,5.008a2.546,2.546,0,0,0,.235.47,4.086,4.086,0,0,1,2.618-1.566A5.782,5.782,0,0,0,33.8,2.893a.249.249,0,0,1,.137-.058.246.246,0,0,0,.137-.058,2.113,2.113,0,0,1,1.278-.644,1.313,1.313,0,0,1,.86.421,2.747,2.747,0,0,0,.285.223,2.378,2.378,0,0,0,.129.324,1.2,1.2,0,0,1,.145.459,3.836,3.836,0,0,1-.352,1.135,3.126,3.126,0,0,1-.313.509,3.113,3.113,0,0,0-.312.509,1.918,1.918,0,0,1-.939.779c-.077.039-.156.079-.233.121-.191.1-.392.2-.586.3-.325.161-.66.328-.977.523a12.943,12.943,0,0,0-1.232.88c-.156.121-.317.246-.487.373.335.205.642.4.938.589.324.206.63.4.937.585A1.87,1.87,0,0,1,34.273,12.1a8.549,8.549,0,0,0,.235,3.721,3.619,3.619,0,0,1-.274,3.368,3.4,3.4,0,0,1-.86.822,6.86,6.86,0,0,0-2.228,2.154A10.024,10.024,0,0,1,29.505,24.2,6.437,6.437,0,0,1,27,25.725a2.834,2.834,0,0,0-.782.353,2.392,2.392,0,0,1-1.425.492,2.558,2.558,0,0,1-1.232-.335,2.352,2.352,0,0,0-1.2-.346,3.169,3.169,0,0,0-1.578.5c-.411.215-.828.444-1.231.665s-.821.451-1.231.665l-.045.024a.592.592,0,0,1-.268.094,5.716,5.716,0,0,0-2.958,1.328l-.285.2-.254.177a3.637,3.637,0,0,1-2.076.883l-.094,0a5.432,5.432,0,0,1-.976-.121,6.835,6.835,0,0,0-.782-.114c-.432-.033-.858-.05-1.268-.05a12.815,12.815,0,0,0-3.266.4,10.431,10.431,0,0,1-1.037.27l-.019,0A2.522,2.522,0,0,1,4.418,30.885ZM3.2,18.519l-.1.073a.488.488,0,0,0-.173.162c-.218.3-.439.61-.653.912s-.424.6-.636.889a1.182,1.182,0,0,0-.157.392,26.786,26.786,0,0,0-.391,5.287,3.876,3.876,0,0,0,2.814,3.25,1.813,1.813,0,0,0,.411.042,5.76,5.76,0,0,0,.928-.105c.12-.02.231-.039.341-.055a7.581,7.581,0,0,0,.782-.117,7.584,7.584,0,0,1,.782-.117c.446-.047.912-.052,1.363-.057.3,0,.607-.006.9-.022a6.066,6.066,0,0,0,.788-.069,5.872,5.872,0,0,1,.754-.067,2.222,2.222,0,0,1,.3.018,4.657,4.657,0,0,0,.719.058,5.049,5.049,0,0,0,2.72-.88l-.284-.027c-.3-.029-.532-.052-.771-.052-.322-.013-.655-.035-.976-.056-.519-.034-1.056-.069-1.579-.069-.144,0-.284,0-.416.008a2.459,2.459,0,0,1-1.485-.431,6.226,6.226,0,0,0-.879-.525c-.2-.1-.4-.212-.606-.337a.945.945,0,0,1-.275-.259c-.04-.049-.078-.094-.116-.132a1.842,1.842,0,0,0,.2-.1.822.822,0,0,1,.339-.136A.18.18,0,0,1,7.894,26a2.225,2.225,0,0,1,.782.431,3.327,3.327,0,0,0,2.166.791,4.166,4.166,0,0,0,.609-.047,3.632,3.632,0,0,1,.519-.034c.275,0,.563.023.84.045.12.01.24.019.36.027.254,0,.5.02.743.039s.489.039.743.039a2.569,2.569,0,0,0,.469-.059,2.571,2.571,0,0,1,.469-.059l.157,0a8.23,8.23,0,0,0,3.087-.786c.585-.239,1.157-.532,1.71-.815.446-.228.907-.464,1.377-.674l.149-.065a1.67,1.67,0,0,1,.641-.192.7.7,0,0,1,.617.453.215.215,0,0,0,.148.087.52.52,0,0,1,.086.03,2.3,2.3,0,0,0,.858.162,2.975,2.975,0,0,0,.94-.162c.3-.119.606-.239.907-.356s.6-.232.891-.35c.175-.073.352-.136.524-.2a5.7,5.7,0,0,0,.844-.351A2.981,2.981,0,0,0,29.7,22.438c.074-.156.15-.318.232-.473a5.453,5.453,0,0,1,2.383-2.624A2.186,2.186,0,0,0,33.687,16.6a9.925,9.925,0,0,1-.352-3.564,4.088,4.088,0,0,0-.046-.89c-.011-.094-.023-.191-.033-.284a.464.464,0,0,0-.234-.392c-.547-.235-1.131-.43-1.6-.587a2.939,2.939,0,0,0-.432.626l0-.012c-.116-.348-.192-.578-.27-.771a6.615,6.615,0,0,0-3.165-3.29.756.756,0,0,1-.391-.391c-.138-.414-.235-.8-.338-1.212-.042-.166-.085-.338-.131-.512l-.028-.093c-.146-.483-.284-.937-.87-1.121A7.2,7.2,0,0,1,23.61,2.879c-.306-.223-.622-.453-.944-.652-.292-.18-.574-.389-.846-.59-.207-.153-.4-.3-.6-.429-.171.137-.327.267-.478.393-.2.163-.38.316-.577.469A6.568,6.568,0,0,1,16.03,3.853c-.144,0-.291-.006-.437-.019a3.941,3.941,0,0,0-.4-.022,1.631,1.631,0,0,0-.734.139l-.3.158c-1.087.569-2.211,1.156-2.318,2.662a.288.288,0,0,1-.02.1.288.288,0,0,0-.02.1c-.114.37-.224.746-.331,1.109a29.942,29.942,0,0,1-1.115,3.316A13.978,13.978,0,0,1,9.3,13.378c-.157.26-.319.53-.468.794a.215.215,0,0,1-.147.087.508.508,0,0,0-.088.031l.171-.567c.482-1.585.981-3.223,1.47-4.8a.779.779,0,0,0-.074-.032.206.206,0,0,1-.082-.046l-.014.014c-.264.264-.538.538-.806.769a7.142,7.142,0,0,1-1.055.744,1.593,1.593,0,0,0-.977,1.175c-.032.333-.077.665-.121.986-.064.469-.13.953-.153,1.442-.039.861-.039,1.679-.039,2.545a2.993,2.993,0,0,1-.039.588c-.029.26-.145.4-.335.4a.614.614,0,0,1-.212-.044L6.316,17.4c-.226-1.019-.459-2.074-.689-3.186-1.1.865-1.8,1.715-1.641,3.055a4.646,4.646,0,0,0,.122.705,3.037,3.037,0,0,1,.113,1.057c-.078.785-.228,1.547-.374,2.284-.072.367-.147.746-.212,1.123,0,.024-.028.048-.075.087s-.073.062-.121.109c-.04-.093-.088-.181-.135-.267a1.068,1.068,0,0,1-.177-.477,10.654,10.654,0,0,1,.043-1.454c.012-.164.025-.334.035-.5Zm27.395-13h0a.2.2,0,0,1,.039.078.2.2,0,0,0,.039.078c-.292.25-.567.5-.858.756-.25.223-.509.454-.784.693.61.489,1.117.957,1.563,1.371a.359.359,0,0,0,.2-.117c.156-.156.3-.314.448-.467a11.128,11.128,0,0,1,.92-.9,4.566,4.566,0,0,1,1.407-.94,2.522,2.522,0,0,0,1.68-2.819c-.184.119-.363.223-.536.325a5.5,5.5,0,0,0-.91.615,2.64,2.64,0,0,1-1.68.744c-.554.039-1.139.078-1.68.078A1.548,1.548,0,0,0,28.88,6.261c.193-.083.387-.169.593-.26.367-.163.747-.332,1.126-.483Z" transform="matrix(-0.966, -0.259, 0.259, -0.966, 35.521, 39.351)" fill="#fff" stroke="#fff" stroke-miterlimit="10" stroke-width="1"/>
      <path id="Fill_4" data-name="Fill 4" d="M8.526,2.036c-.078.039-.2.117-.274.078-.7-.313-1.407-.666-2.11-.979,0-.078.039-.157.039-.274C6.962.744,7.744.666,8.486.548c0-.039.039-.078.039-.117a2.615,2.615,0,0,0-.7-.274C7.353.078,6.884.039,6.376,0a.927.927,0,0,0-.469.117C5.438.509,4.969.9,4.539,1.332a2.3,2.3,0,0,1-2.657.783A4.922,4.922,0,0,0,.358,2c-.117,0-.274.2-.352.352-.039.039.117.274.234.313.9.235,1.8.431,2.736.587a.638.638,0,0,0,.469-.078c.743-.587,1.485-1.214,2.149-1.723.821.47,1.563.94,2.306,1.332a1.317,1.317,0,0,0,.782.078,11.719,11.719,0,0,0,1.876-.627,1.89,1.89,0,0,0,.625-.509.856.856,0,0,0-.117-.2c-.9.2-1.72.352-2.54.509" transform="matrix(-0.966, -0.259, 0.259, -0.966, 29.96, 14.806)" fill="#fff" stroke="#fff" stroke-miterlimit="10" stroke-width="1"/>
      <path id="Fill_6" data-name="Fill 6" d="M3.556,5.6c.274-.47.274-.47-.078-1.253-.313-.666-.469-1.41-1.251-1.762A3.011,3.011,0,0,1,.586.47,1.639,1.639,0,0,0,.274,0,1.092,1.092,0,0,0,0,.509,4.453,4.453,0,0,0,.547,2.7,8.827,8.827,0,0,0,2.7,4.739a8.926,8.926,0,0,1,.86.862" transform="matrix(-0.966, -0.259, 0.259, -0.966, 15.466, 25.112)" fill="#fff" stroke="#fff" stroke-miterlimit="10" stroke-width="1"/>
      <path id="Fill_8" data-name="Fill 8" d="M.985,6.7A5.061,5.061,0,0,1,1.61,4.308c.586-1.1,1.211-2.193,1.876-3.25A6.148,6.148,0,0,1,4.463,0C3.368,0,2.743.744,2.157,1.723,1.532,2.741,1.219,3.916.242,4.7a.748.748,0,0,0-.234.627,9.7,9.7,0,0,0,.43,1.41.454.454,0,0,0,.313.235c.078,0,.234-.2.234-.274" transform="matrix(-0.966, -0.259, 0.259, -0.966, 26.689, 28.525)" fill="#fff" stroke="#fff" stroke-miterlimit="10" stroke-width="1"/>
      <path id="Fill_10" data-name="Fill 10" d="M.313,1.787a4.06,4.06,0,0,1,2.11-.47c1.172-.039,2.345,0,3.517,0v.039c.078,0,.156.039.234,0,.156-.078.352-.157.508-.235C6.526,1,6.409.847,6.253.807,5.862.729,5.432.807,5.08.729,4.377.612,3.674.416,2.97.259,2.54.181,1.993-.132,1.72.063A9.962,9.962,0,0,0,.039,1.552C0,1.552,0,1.669,0,1.747a.462.462,0,0,0,.313.039" transform="matrix(-0.966, -0.259, 0.259, -0.966, 20.869, 30.614)" fill="#fff" stroke="#fff" stroke-miterlimit="10" stroke-width="1"/>
      <path id="Fill_12" data-name="Fill 12" d="M.712.352C.633.2.477.117.36,0,.282.117.2.274.125.392c-.313.548.039.979.2,1.449.313.94.7,1.841,1.915,1.841.625,0,1.251.039,1.876.078,0-.039.039-.117.039-.157-.352-.2-.664-.431-1.016-.587C1.884,2.506,1.337,1.371.712.352" transform="matrix(-0.966, -0.259, 0.259, -0.966, 27.031, 19.697)" fill="#fff" stroke="#fff" stroke-miterlimit="10" stroke-width="1"/>
      <path id="Fill_14" data-name="Fill 14" d="M2.267,1.338c-.625.94-1.055,2.036-2.188,2.546C0,3.923,0,4.158,0,4.275c.117,0,.274.078.391.039A1.463,1.463,0,0,0,.86,4.04,4.9,4.9,0,0,0,2.345,2.552,6.125,6.125,0,0,1,3.674,1.025c.352-.352.782-.587,1.211-.94C4.142-.307,2.657.751,2.267,1.338" transform="matrix(-0.966, -0.259, 0.259, -0.966, 17.07, 14.595)" fill="#fff" stroke="#fff" stroke-miterlimit="10" stroke-width="1"/>
      <path id="Fill_16" data-name="Fill 16" d="M1.128,3.055a1.264,1.264,0,0,1-.391-.744c0-.627.156-1.292.2-1.919C.933.274.776.117.737,0,.7,0,.62.039.581.039A20.334,20.334,0,0,0,.034,2.115,1.845,1.845,0,0,0,1.05,4.19a10.219,10.219,0,0,0,1.563.431c.039-.039.078-.039.078-.078-.234-.235-.43-.47-.664-.7a8.594,8.594,0,0,1-.9-.783" transform="matrix(-0.966, -0.259, 0.259, -0.966, 33.781, 18.667)" fill="#fff" stroke="#fff" stroke-miterlimit="10" stroke-width="1"/>
      <path id="Fill_18" data-name="Fill 18" d="M.051,3.877c-.117.157,0,.509.039.783a2.666,2.666,0,0,0,.469-.47A5.1,5.1,0,0,0,.95,3.6a1.027,1.027,0,0,0,.2-.666C1.067,2.389.95,1.8.832,1.253.793,1.057.715.862.676.627H.715a1.067,1.067,0,0,0,0-.352C.676.157.559,0,.52,0,.4.039.207.157.207.235.168.7.129,1.214.129,1.684c0,.783.469,1.488-.078,2.193" transform="matrix(-0.966, -0.259, 0.259, -0.966, 8.828, 19.685)" fill="#fff" stroke="#fff" stroke-miterlimit="10" stroke-width="1"/>
      <path id="Fill_20" data-name="Fill 20" d="M.944,1.488a.614.614,0,0,1-.2-.7C.827.548.866.313.944,0A1.309,1.309,0,0,0,.2,1.919c.274.313.547.666.86.979a1.61,1.61,0,0,0,1.524.352.856.856,0,0,0-.117-.2C1.96,2.506,1.452,2,.944,1.488" transform="matrix(-0.966, -0.259, 0.259, -0.966, 38.946, 15.997)" fill="#fff" stroke="#fff" stroke-miterlimit="10" stroke-width="1"/>
      <path id="Fill_22" data-name="Fill 22" d="M3.639.722C2.584.527,1.49.683.552.017c-.039,0-.078-.039-.078,0C.318.135.083.252.005.409-.034.487.161.761.318.84a5.082,5.082,0,0,0,.664.313,4,4,0,0,0,2.345.117A1.706,1.706,0,0,0,3.835.918c-.156-.117-.156-.2-.2-.2" transform="matrix(-0.966, -0.259, 0.259, -0.966, 22.502, 18.483)" fill="#fff" stroke="#fff" stroke-miterlimit="10" stroke-width="1"/>
    </g>
  </g>
</svg>
