<svg id="category-merchandising" xmlns="http://www.w3.org/2000/svg" width="55" height="55" viewBox="0 0 55 55">
  <g id="Grupo_93" data-name="Grupo 93" transform="translate(-2502 114)">
    <g id="Grupo_13" data-name="Grupo 13" transform="translate(2502 -114)">
      <path id="BG_Copy_6" data-name="BG Copy 6" d="M7.692,0H47.308A7.692,7.692,0,0,1,55,7.692V47.308A7.692,7.692,0,0,1,47.308,55H7.692A7.692,7.692,0,0,1,0,47.308V7.692A7.692,7.692,0,0,1,7.692,0Z" fill="#86c569"/>
    </g>
  </g>
  <g id="Grupo_145" data-name="Grupo 145" transform="translate(8 -31.66)">
    <g id="Grupo_145-2" data-name="Grupo 145" transform="translate(0 42.66)">
      <path id="Trazado_46" data-name="Trazado 46" d="M28.333,42.66H24.167a4.167,4.167,0,1,1-8.333,0H11.667L0,49.327l3.334,9.167,5-1.667V75.993H31.667V56.826l5,1.667L40,49.327ZM35.653,56.4l-3.461-1.154L30,54.514V74.326H10V54.514l-2.194.732L4.346,56.4l-2.3-6.322,10.063-5.75h2.3a5.834,5.834,0,0,0,11.182,0h2.3l10.063,5.75Z" transform="translate(0 -42.66)" fill="#fff"/>
    </g>
  </g>
</svg>
