<svg id="category-BHO" xmlns="http://www.w3.org/2000/svg" width="55" height="55" viewBox="0 0 55 55">
  <g id="Grupo_12" data-name="Grupo 12">
    <path id="BG_Copy_6" data-name="BG Copy 6" d="M7.692,0H47.308A7.692,7.692,0,0,1,55,7.692V47.308A7.692,7.692,0,0,1,47.308,55H7.692A7.692,7.692,0,0,1,0,47.308V7.692A7.692,7.692,0,0,1,7.692,0Z" fill="#86c569"/>
  </g>
  <g id="Group_17" data-name="Group 17" transform="translate(7.167 10.313)">
    <path id="Fill_1" data-name="Fill 1" d="M0,2.228A2.219,2.219,0,1,1,2.219,4.457,2.224,2.224,0,0,1,0,2.228" transform="translate(0 8.093)" fill="#fff"/>
    <path id="Stroke_3" data-name="Stroke 3" d="M0,2.228A2.219,2.219,0,1,1,2.219,4.457,2.224,2.224,0,0,1,0,2.228Z" transform="translate(0 8.093)" fill="none"/>
    <path id="Fill_5" data-name="Fill 5" d="M20.629,33.072h0a6.683,6.683,0,0,1-4.735-1.695c-.2-.235-.386-.466-.562-.69-.709-.9-1.269-1.609-2.448-1.609a5.158,5.158,0,0,0-1.72.363,5.922,5.922,0,0,1-1.975.4,2.54,2.54,0,0,1-1.9-.732,4.054,4.054,0,0,1-.916-2.6,1.86,1.86,0,0,0,.086-1.378c-.227-.8-1.024-2.024-3.531-3.313-1.74-.9-2.715-2.051-2.9-3.436a6.019,6.019,0,0,1,1.248-3.967,11.627,11.627,0,0,1,1.535-1.8,2.3,2.3,0,0,0,1.109-2.229,3.539,3.539,0,0,1,.782-2.714,3.9,3.9,0,0,1,1.9-1.391A3.518,3.518,0,0,0,9.471,3.638a5.472,5.472,0,0,1,2.138-2.554A6.663,6.663,0,0,1,15.283,0h.143c1.649.034,2.609,1.007,3.625,2.038a8.218,8.218,0,0,0,2.622,2.009,5.353,5.353,0,0,0,2.112.509,6.422,6.422,0,0,0,.942-.087l.05-.007a7.364,7.364,0,0,1,1.109-.095,10.848,10.848,0,0,1,3.729.853,4.579,4.579,0,0,1,3.025,3.495,8.485,8.485,0,0,1-.218,3.991,6.884,6.884,0,0,1-1.347,2.718c-1.451,1.458-1.11,2.462.818,5.161a3.018,3.018,0,0,1,.613,1.927,3.434,3.434,0,0,1-.529,1.609,5.882,5.882,0,0,1-1.361,1.512,2.715,2.715,0,0,1-1.413.36,6.773,6.773,0,0,1-.775-.056l-.036,0a6.073,6.073,0,0,0-.667-.052c-.9,0-1.509.488-1.786,2.914a4.446,4.446,0,0,1-1.864,3.316A6,6,0,0,1,20.629,33.072ZM11.763,18.334a1.761,1.761,0,0,0-1.256.522,1.791,1.791,0,0,0,0,2.522,1.771,1.771,0,0,0,2.511,0,1.791,1.791,0,0,0,0-2.522A1.76,1.76,0,0,0,11.763,18.334ZM15.426,4.048a2.2,2.2,0,0,0-1.569.653,2.238,2.238,0,0,0,0,3.152,2.212,2.212,0,0,0,3.138,0,2.238,2.238,0,0,0,0-3.152A2.2,2.2,0,0,0,15.426,4.048Z" transform="translate(3.504 0)" fill="#fff"/>
    <path id="Stroke_7" data-name="Stroke 7" d="M20.629,33.072h0a6.683,6.683,0,0,1-4.735-1.695c-.2-.235-.386-.466-.562-.69-.709-.9-1.269-1.609-2.448-1.609a5.158,5.158,0,0,0-1.72.363,5.922,5.922,0,0,1-1.975.4,2.54,2.54,0,0,1-1.9-.732,4.054,4.054,0,0,1-.916-2.6,1.86,1.86,0,0,0,.086-1.378c-.227-.8-1.024-2.024-3.531-3.313-1.74-.9-2.715-2.051-2.9-3.436a6.019,6.019,0,0,1,1.248-3.967,11.627,11.627,0,0,1,1.535-1.8,2.3,2.3,0,0,0,1.109-2.229,3.539,3.539,0,0,1,.782-2.714,3.9,3.9,0,0,1,1.9-1.391A3.518,3.518,0,0,0,9.471,3.638a5.472,5.472,0,0,1,2.138-2.554A6.663,6.663,0,0,1,15.283,0h.143c1.649.034,2.609,1.007,3.625,2.038a8.218,8.218,0,0,0,2.622,2.009,5.353,5.353,0,0,0,2.112.509,6.422,6.422,0,0,0,.942-.087l.05-.007a7.364,7.364,0,0,1,1.109-.095,10.848,10.848,0,0,1,3.729.853,4.579,4.579,0,0,1,3.025,3.495,8.485,8.485,0,0,1-.218,3.991,6.884,6.884,0,0,1-1.347,2.718c-1.451,1.458-1.11,2.462.818,5.161a3.018,3.018,0,0,1,.613,1.927,3.434,3.434,0,0,1-.529,1.609,5.882,5.882,0,0,1-1.361,1.512,2.715,2.715,0,0,1-1.413.36,6.773,6.773,0,0,1-.775-.056l-.036,0a6.073,6.073,0,0,0-.667-.052c-.9,0-1.509.488-1.786,2.914a4.446,4.446,0,0,1-1.864,3.316A6,6,0,0,1,20.629,33.072ZM11.763,18.334a1.761,1.761,0,0,0-1.256.522,1.791,1.791,0,0,0,0,2.522,1.771,1.771,0,0,0,2.511,0,1.791,1.791,0,0,0,0-2.522A1.76,1.76,0,0,0,11.763,18.334ZM15.426,4.048a2.2,2.2,0,0,0-1.569.653,2.238,2.238,0,0,0,0,3.152,2.212,2.212,0,0,0,3.138,0,2.238,2.238,0,0,0,0-3.152A2.2,2.2,0,0,0,15.426,4.048Z" transform="translate(3.504 0)" fill="none"/>
    <path id="Fill_9" data-name="Fill 9" d="M0,2.228A2.219,2.219,0,1,1,2.219,4.457,2.224,2.224,0,0,1,0,2.228" transform="translate(32.229 29.91)" fill="#fff"/>
    <path id="Stroke_11" data-name="Stroke 11" d="M0,2.228A2.219,2.219,0,1,1,2.219,4.457,2.224,2.224,0,0,1,0,2.228Z" transform="translate(32.229 29.91)" fill="none"/>
  </g>
</svg>
