<svg id="category-default" xmlns="http://www.w3.org/2000/svg" width="55" height="55" viewBox="0 0 55 55">
  <g id="Grupo_93" data-name="Grupo 93" transform="translate(-2502 114)">
    <g id="Grupo_13" data-name="Grupo 13" transform="translate(2502 -114)">
      <path id="BG_Copy_6" data-name="BG Copy 6" d="M7.692,0H47.308A7.692,7.692,0,0,1,55,7.692V47.308A7.692,7.692,0,0,1,47.308,55H7.692A7.692,7.692,0,0,1,0,47.308V7.692A7.692,7.692,0,0,1,7.692,0Z" fill="#86c569"/>
    </g>
  </g>
  <g id="Grupo_225" data-name="Grupo 225" transform="translate(250.533 -178)">
    <path id="Trazado_58" data-name="Trazado 58" d="M54.382,9.116a1.013,1.013,0,0,0-.1-.433.946.946,0,0,0-.661-.522L37,.1a.986.986,0,0,0-.857,0L19.355,8.234a.983.983,0,0,0-.555.849v20.46a.973.973,0,0,0,.555.881l16.787,8.136c.008,0,.008,0,.016.008a.29.29,0,0,1,.073.033c.008,0,.016.008.033.008l.073.024c.008,0,.016.008.024.008.024.008.057.008.082.016h.024c.033,0,.073.008.106.008a.465.465,0,0,0,.106-.008h.024a.29.29,0,0,0,.082-.016c.008,0,.016-.008.024-.008l.073-.024c.008,0,.016-.008.033-.008a.29.29,0,0,0,.073-.033c.008,0,.008,0,.016-.008L53.843,30.4a.987.987,0,0,0,.555-.881V9.14C54.382,9.132,54.382,9.124,54.382,9.116ZM36.566,2.065,51.126,9.124l-5.362,2.6L31.2,4.668Zm0,14.118L22.007,9.124l6.953-3.37L43.52,12.813ZM20.759,10.7l14.828,7.19V36.112l-14.828-7.19ZM37.546,36.112V17.889l6.961-3.379v4.766a.979.979,0,1,0,1.959,0V13.555l5.958-2.889V28.89Z" transform="translate(-260 186)" fill="#fff"/>
  </g>
</svg>
