<svg xmlns="http://www.w3.org/2000/svg" width="56.784" height="58.333" viewBox="0 0 56.784 58.333">
  <g id="category-comestibles" transform="translate(0.355 0.355)">
    <g id="Grupo_93" data-name="Grupo 93" transform="translate(-2500.625 115.5)">
      <g id="Grupo_13" data-name="Grupo 13" transform="translate(2502 -114)">
        <path id="BG_Copy_6" data-name="BG Copy 6" d="M7.692,0H47.308A7.692,7.692,0,0,1,55,7.692V47.308A7.692,7.692,0,0,1,47.308,55H7.692A7.692,7.692,0,0,1,0,47.308V7.692A7.692,7.692,0,0,1,7.692,0Z" fill="#86c569"/>
      </g>
    </g>
    <path id="Shape" d="M14.537,45a.5.5,0,0,1-.111-.013.538.538,0,0,1-.407-.483,5.533,5.533,0,0,0-1.778-3.889,3.033,3.033,0,0,0-1.936-.676,5.433,5.433,0,0,0-2.51.742.45.45,0,0,1-.211.051.6.6,0,0,1-.416-.179.475.475,0,0,1-.147-.344,5.7,5.7,0,0,0-.444-2.668,2.245,2.245,0,0,0-1.252-1.155,3.486,3.486,0,0,0-1.265-.207A9.767,9.767,0,0,0,.7,36.922a.416.416,0,0,1-.146.026.577.577,0,0,1-.476-.3.461.461,0,0,1-.02-.475l2.8-4.816h.017a7.925,7.925,0,0,1,2.379-2.6A7.191,7.191,0,0,1,8.206,27.6a8.275,8.275,0,0,1,1.169-.081H9.47a9.029,9.029,0,0,1,1.865.2A8.329,8.329,0,0,1,9.474,23.16a8.18,8.18,0,0,1,1.1-4.9A8.4,8.4,0,0,1,13.651,15.2a8.579,8.579,0,0,1,4.073-1.136l.2,0a8.528,8.528,0,0,1,1.314.1,8.48,8.48,0,0,1-1.663-2.636,6.988,6.988,0,0,1-.459-3.111A7.832,7.832,0,0,1,18.2,5.081L21,.265A.6.6,0,0,1,21.48,0a.5.5,0,0,1,.492.444c.315,2.04.97,3.543,1.844,4.23a2.208,2.208,0,0,0,1.435.494c.063,0,.129,0,.2-.006A5.817,5.817,0,0,0,28,4.219a.46.46,0,0,1,.243-.067.559.559,0,0,1,.564.49c.061,2.041.772,3.3,2.174,3.856a4.084,4.084,0,0,0,1.5.264,6.564,6.564,0,0,0,2.777-.671.412.412,0,0,1,.177-.04.6.6,0,0,1,.484.3.453.453,0,0,1,.03.458l-2.8,4.816a7.881,7.881,0,0,1-2.377,2.6,7.2,7.2,0,0,1-2.958,1.163,8.3,8.3,0,0,1-1.28.1,9.007,9.007,0,0,1-2-.229,8.374,8.374,0,0,1,1.808,4.523,8.146,8.146,0,0,1-1.1,4.848,8.36,8.36,0,0,1-3.158,3.1,8.583,8.583,0,0,1-5.4,1,8.487,8.487,0,0,1,1.745,2.734,7.063,7.063,0,0,1,.466,3.111A7.756,7.756,0,0,1,17.823,39.9l-2.816,4.832A.55.55,0,0,1,14.537,45Zm-4.253-6.075A4.191,4.191,0,0,1,12.9,39.8a5.781,5.781,0,0,1,1.927,3.14L16.9,39.379a6.152,6.152,0,0,0,.543-5.548,7.867,7.867,0,0,0-2.354-3.173,9,9,0,0,1-.444,7.24.546.546,0,0,1-.475.263.5.5,0,0,1-.242-.06.538.538,0,0,1-.206-.708,8.159,8.159,0,0,0,.181-6.9l-3.112,5.353a.55.55,0,0,1-.475.258.507.507,0,0,1-.25-.063.527.527,0,0,1-.241-.32.518.518,0,0,1,.044-.4L13,29.975a8.3,8.3,0,0,0-5.944,3.612.546.546,0,0,1-.5.3.5.5,0,0,1-.248-.064.539.539,0,0,1-.159-.759,9.149,9.149,0,0,1,6.076-4.019,8.357,8.357,0,0,0-2.765-.488H9.392a7.026,7.026,0,0,0-1.021.081,6.28,6.28,0,0,0-4.594,3.238L1.67,35.49a8.612,8.612,0,0,1,2.365-.376,4.611,4.611,0,0,1,1.685.294,3.367,3.367,0,0,1,1.794,1.676A5.765,5.765,0,0,1,8.058,39.4,5.9,5.9,0,0,1,10.284,38.925Zm.227-16.939a7.1,7.1,0,0,0,2.009,5.363,7.618,7.618,0,0,0,5.47,2.357A7.714,7.714,0,0,0,22,28.559Zm2.4-4.979h0A7.353,7.353,0,0,0,11.5,18.781a7.23,7.23,0,0,0-.824,2.083L22.91,27.876A7.378,7.378,0,0,0,24.326,26.1a7.254,7.254,0,0,0,.84-2.1l-12.25-7Zm4.947-1.9h-.106a7.451,7.451,0,0,0-3.952,1.22l11.51,6.557A7.643,7.643,0,0,0,23.078,17.4,7.276,7.276,0,0,0,17.862,15.1Zm11.482-3.969h0a.518.518,0,0,1,.437.282.505.505,0,0,1,.008.515,9.156,9.156,0,0,1-6.026,4,8.438,8.438,0,0,0,2.817.5,6.93,6.93,0,0,0,1.069-.081,6.253,6.253,0,0,0,4.578-3.238L34.3,9.556a6.846,6.846,0,0,1-1.793.25A5.182,5.182,0,0,1,30.6,9.458,4.637,4.637,0,0,1,27.817,5.5a5.983,5.983,0,0,1-2.305.7c-.079,0-.159.007-.238.007a3.388,3.388,0,0,1-2.117-.723,6.142,6.142,0,0,1-1.943-3.5L19.107,5.6a6.148,6.148,0,0,0-.543,5.548,7.841,7.841,0,0,0,2.223,3.042,8.915,8.915,0,0,1,.527-7.11.542.542,0,0,1,.461-.277h.012a.52.52,0,0,1,.44.283.5.5,0,0,1,.008.515,8.06,8.06,0,0,0-.214,6.882l3.112-5.353a.539.539,0,0,1,.458-.261h.019a.521.521,0,0,1,.427.276.509.509,0,0,1,.018.5l-3.129,5.353a8.293,8.293,0,0,0,5.961-3.612A.538.538,0,0,1,29.344,11.134Z" transform="matrix(0.788, 0.616, -0.616, 0.788, 27.705, 0)" fill="#fff" stroke="#fff" stroke-miterlimit="10" stroke-width="0.5"/>
  </g>
</svg>
