<svg id="category-parafernalia" xmlns="http://www.w3.org/2000/svg" width="55" height="55" viewBox="0 0 55 55">
  <g id="Grupo_13" data-name="Grupo 13">
    <path id="BG_Copy_6" data-name="BG Copy 6" d="M7.692,0H47.308A7.692,7.692,0,0,1,55,7.692V47.308A7.692,7.692,0,0,1,47.308,55H7.692A7.692,7.692,0,0,1,0,47.308V7.692A7.692,7.692,0,0,1,7.692,0Z" fill="#86c569"/>
  </g>
  <g id="Group_15" data-name="Group 15" transform="matrix(0.839, 0.545, -0.545, 0.839, 8.371, 10.52)">
    <path id="Shape" d="M46.087,6.954l-9.781-.01-.02,0a.085.085,0,0,1-.025.005.144.144,0,0,1-.033-.005l-.025,0L9.447,6.916h0L2.709,6.909C1.19,6.908,0,5.394,0,3.462A3.97,3.97,0,0,1,.776,1.043,2.464,2.464,0,0,1,2.654.008h.01l.022,0L2.7,0l.013,0,.008,0,.008,0,.009,0h.011l25,1.785h.028l.035,0L38.3,2.54c.031,0,.1,0,.193,0a9.271,9.271,0,0,1,1.434.119l7.5.535a.618.618,0,0,1,.532.513.751.751,0,0,1-.247.755l-1.1.847.06.9a.769.769,0,0,1-.155.523A.555.555,0,0,1,46.087,6.954Zm-2.66-2.665a4.394,4.394,0,0,1,.857,1.28l1.168,0L45.415,5a.758.758,0,0,1,.186-.56Zm-8.76-.625h0a4.876,4.876,0,0,1,1.944,1.9l6.249.007a4.936,4.936,0,0,0-3.1-1.54ZM24.08,2.909h0a6.4,6.4,0,0,1,2.97,2.642l7.993.008a8.729,8.729,0,0,0-3.4-1.667,20.407,20.407,0,0,0-3.955-.728ZM13.312,2.139h0c2.315,1.039,3.805,2.184,4.429,3.4l7.808.008a9.264,9.264,0,0,0-3.593-2.078A22.3,22.3,0,0,0,18.323,2.5ZM5.889,1.61h0A10.425,10.425,0,0,1,9.806,5.534l6.4.006a11.77,11.77,0,0,0-3.786-2.3A29.491,29.491,0,0,0,7.883,1.752Zm-1.583.611h0a4.293,4.293,0,0,1,.223,1.336,4.075,4.075,0,0,1-.51,1.971l4.385,0a12.867,12.867,0,0,0-4.1-3.312ZM2.316,4.868a.417.417,0,0,1,.383.4,2.922,2.922,0,0,0,.613-1.344A.446.446,0,0,1,3,3.477a.447.447,0,0,1,.3-.442A3.749,3.749,0,0,0,2.707,1.7a.429.429,0,0,1-.391.443.428.428,0,0,1-.392-.454,2.167,2.167,0,0,0-.71,1.323.443.443,0,0,1,.321.447A.445.445,0,0,1,1.21,3.9a2.107,2.107,0,0,0,.727,1.343A.412.412,0,0,1,2.316,4.868Z" transform="translate(0 0)" fill="#fff"/>
    <circle id="Oval" cx="0.348" cy="0.348" r="0.348" transform="translate(2.086 3.477)" fill="#fff"/>
    <circle id="Oval-2" data-name="Oval" cx="0.348" cy="0.348" r="0.348" transform="translate(2.086 2.086)" fill="#fff"/>
  </g>
</svg>
