<svg id="category-bebidas" xmlns="http://www.w3.org/2000/svg" width="55" height="55" viewBox="0 0 55 55">
  <g id="Grupo_93" data-name="Grupo 93" transform="translate(-2502 114)">
    <g id="Grupo_13" data-name="Grupo 13" transform="translate(2502 -114)">
      <path id="BG_Copy_6" data-name="BG Copy 6" d="M7.692,0H47.308A7.692,7.692,0,0,1,55,7.692V47.308A7.692,7.692,0,0,1,47.308,55H7.692A7.692,7.692,0,0,1,0,47.308V7.692A7.692,7.692,0,0,1,7.692,0Z" fill="#86c569"/>
    </g>
  </g>
  <g id="Group_12" data-name="Group 12" transform="translate(12.092 8)">
    <path id="Shape" d="M9,40.83H9c-.1,0-.2,0-.3-.01a11.692,11.692,0,0,1-3.24-1.392c-.31-.172-.631-.349-.95-.515l-.082-.048A16.094,16.094,0,0,1,.764,36.2a4.6,4.6,0,0,1-.735-1.971A3.777,3.777,0,0,1,.5,31.876a7.625,7.625,0,0,1,2.17-2.236c.467-.358.88-.7,1.127-.912.129-.108.207-.174.213-.174a64.948,64.948,0,0,1,5.847-12.1l.009-.012a1.67,1.67,0,0,1,.14-.17c.633-.659,1.35-1.375,2.11-2.133,2.44-2.433,5.2-5.191,6.518-7.436a1.614,1.614,0,0,1,.133-1.135,1.911,1.911,0,0,1,.729-.657,1.825,1.825,0,0,1,.414-.954,1.584,1.584,0,0,1,.977-.526,1.391,1.391,0,0,1,.178-.011,1.81,1.81,0,0,1,.915.274L26,6.031a1.844,1.844,0,0,1,.778.838,1.621,1.621,0,0,1,.033,1.118,1.748,1.748,0,0,1-.613.838,1.925,1.925,0,0,1-.2.954,1.685,1.685,0,0,1-.911.691c-1.27,2.27-2.261,6.1-3.135,9.478-.264,1.022-.514,1.987-.757,2.852a1.157,1.157,0,0,1-.083.214,66.9,66.9,0,0,1-4.774,7.347c-.744,1.022-1.587,2.18-2.7,3.8-.1.567-.181,1.142-.249,1.71a7.878,7.878,0,0,1-.844,3.025A4,4,0,0,1,9,40.83ZM6.726,26.681h0c-.172.423-.348.876-.535,1.356s-.382.98-.574,1.455A4,4,0,0,1,4.252,30.8c-.155.106-.316.216-.474.335a6.275,6.275,0,0,0-1.673,1.677,2.152,2.152,0,0,0,.2,2.351,20.423,20.423,0,0,0,2.976,2.029l.154.092a20.243,20.243,0,0,0,3.4,1.677c.071,0,.142.007.212.007a2.08,2.08,0,0,0,1.908-1.01,6.3,6.3,0,0,0,.6-2.3c.023-.2.038-.39.051-.578a4,4,0,0,1,.445-1.839c.512-.762,1.1-1.615,1.706-2.466L6.726,26.681Zm3.743-7.53a59.56,59.56,0,0,0-3.031,5.8l7.4,4.308L15,29.043c1.123-1.564,2.093-2.914,3.486-5.24ZM19.544,8.76a54.032,54.032,0,0,1-6.137,6.752c-.728.717-1.416,1.394-2.012,2.011q1.5.866,3.175,1.849l0,0c1.584.925,3.221,1.882,4.854,2.818.234-.834.474-1.782.728-2.785A54.642,54.642,0,0,1,22.873,10.7Zm1.822-3.272a1,1,0,0,1-.431.773,1.6,1.6,0,0,1-.449.22l-.031.01a1.658,1.658,0,0,1,0,.641l3.362,1.956a1.787,1.787,0,0,1,.563-.312,1.385,1.385,0,0,1-.05-.543.966.966,0,0,1,.447-.756Zm-2.075,9.465a.908.908,0,0,1-.459-.126.955.955,0,0,1-.347-1.282.942.942,0,0,1,.816-.464.954.954,0,0,1,.459.119.932.932,0,0,1,.433.576.951.951,0,0,1-.9,1.178ZM19.646,12a.476.476,0,0,1-.234-.063.487.487,0,0,1-.216-.3.444.444,0,0,1,.051-.339.465.465,0,0,1,.407-.236.472.472,0,0,1,.222.056.483.483,0,0,1,.182.641A.472.472,0,0,1,19.646,12Zm5.326-7.923h0a1.869,1.869,0,0,1-.923-.245,1.907,1.907,0,0,1-.679-2.565A1.856,1.856,0,0,1,25.92.589,1.888,1.888,0,0,1,26.6,3.137,1.884,1.884,0,0,1,24.972,4.073ZM24.806,1.1a.45.45,0,0,0-.393.231.466.466,0,1,0,.845.091.424.424,0,0,0-.216-.256A.454.454,0,0,0,24.806,1.1ZM27.578.94a.529.529,0,0,1-.234-.055.486.486,0,0,1-.216-.3.445.445,0,0,1,.05-.34A.475.475,0,0,1,27.586,0a.427.427,0,0,1,.223.063A.484.484,0,0,1,27.99.7.47.47,0,0,1,27.578.94Z" transform="translate(0.908 0.33)" fill="#fff"/>
  </g>
</svg>
