<svg id="category-extractos" xmlns="http://www.w3.org/2000/svg" width="56.5" height="56.5" viewBox="0 0 56.5 56.5">
  <g id="Grupo_10" data-name="Grupo 10">
    <path id="BG_Copy_6" data-name="BG Copy 6" d="M7.9,0H48.6a7.9,7.9,0,0,1,7.9,7.9V48.6a7.9,7.9,0,0,1-7.9,7.9H7.9A7.9,7.9,0,0,1,0,48.6V7.9A7.9,7.9,0,0,1,7.9,0Z" fill="#86c569"/>
  </g>
  <g id="Group_4" data-name="Group 4" transform="translate(17 10)">
    <path id="Shape" d="M10.929,36.667A10.931,10.931,0,0,1,1.793,31.8,10.626,10.626,0,0,1,.91,21.588L10.22.46a.778.778,0,0,1,1.42,0l9.309,21.128A10.626,10.626,0,0,1,20.065,31.8,10.931,10.931,0,0,1,10.929,36.667Zm0-33.987h0L2.33,22.2a9.124,9.124,0,0,0,.757,8.762,9.445,9.445,0,0,0,15.683,0,9.124,9.124,0,0,0,.758-8.763L10.929,2.68Z" transform="translate(0 0)" fill="#fff" stroke="#fff" stroke-miterlimit="10" stroke-width="0.556"/>
    <path id="Shape-2" data-name="Shape" d="M3.87,4.583A3.85,3.85,0,0,1,0,.764.769.769,0,0,1,.774,0a.769.769,0,0,1,.774.764A2.31,2.31,0,0,0,3.87,3.056a.764.764,0,1,1,0,1.528Z" transform="translate(3.962 26.736)" fill="#fff" stroke="#fff" stroke-miterlimit="10" stroke-width="0.556"/>
  </g>
</svg>
