<svg id="cartel-open" xmlns="http://www.w3.org/2000/svg" width="98.189" height="100" viewBox="0 0 98.189 100">
  <path id="Shape_Copy_11" data-name="Shape Copy 11" d="M16.133,100h0A8.371,8.371,0,0,1,8.01,93.54L.216,59.912a8.345,8.345,0,0,1,6.243-10L59.4,37.631,41.593,20.878a10.908,10.908,0,0,1-2.938,1.142,11.067,11.067,0,0,1-2.484.285c-.217,0-.439-.007-.658-.019L28.7,40.344,20.864,42.16l8.385-22.242A11.149,11.149,0,0,1,33.616.29,11.153,11.153,0,0,1,47,8.635,11.1,11.1,0,0,1,46.183,16l21.1,19.814L78.115,33.3a8.28,8.28,0,0,1,1.875-.216,8.371,8.371,0,0,1,8.122,6.46l7.794,33.627a8.368,8.368,0,0,1-6.264,10L18.007,99.784A8.278,8.278,0,0,1,16.133,100ZM36.145,6.161a5.035,5.035,0,0,0-1.122.127,4.917,4.917,0,0,0-3.092,2.194,4.985,4.985,0,0,0,4.215,7.646A5.034,5.034,0,0,0,37.268,16a4.984,4.984,0,0,0-1.123-9.84Z" transform="translate(0.995 0)" fill="#4f7e3a"/>
  <text id="_13:200:13:200_copy_14" data-name="13:200:13:200 copy 14" transform="translate(0 67.419) rotate(-13)" fill="#fff" font-size="17.91" font-family="Montserrat-Bold, Montserrat" font-weight="700"><tspan x="19.741" y="17">OPEN</tspan></text>
</svg>
