<svg id="recepcion-icon" xmlns="http://www.w3.org/2000/svg" width="16.636" height="16.653" viewBox="0 0 16.636 16.653">
  <path id="Shape" d="M1.664,3.331A1.665,1.665,0,1,0,0,1.663,1.666,1.666,0,0,0,1.664,3.331Z" transform="translate(6.654)" fill="#373a3c"/>
  <path id="Shape-2" data-name="Shape" d="M6.654,1.313A1.321,1.321,0,0,0,5.326,0h-4A1.321,1.321,0,0,0,0,1.313V2.776H6.654V1.313Z" transform="translate(4.991 3.886)" fill="#373a3c"/>
  <path id="Shape-3" data-name="Shape" d="M0,5.75a.353.353,0,0,0,.349.356H14.07a.351.351,0,0,0,.349-.356V0H0Z" transform="translate(1.109 10.547)" fill="#373a3c"/>
  <path id="Shape-4" data-name="Shape" d="M14.907,0H1.729A1.7,1.7,0,0,0,0,1.666v.22a.341.341,0,0,0,.347.334H16.29a.341.341,0,0,0,.347-.334v-.22A1.7,1.7,0,0,0,14.907,0Z" transform="translate(0 7.771)" fill="#373a3c"/>
</svg>
