<svg id="bolsa-icon" xmlns="http://www.w3.org/2000/svg" width="16" height="18" viewBox="0 0 16 18">
  <path id="Shape_Copy" data-name="Shape Copy" d="M3.909,6.682h0a3.876,3.876,0,0,0,.026-.908.021.021,0,0,1-.005.007l-.009.008a.057.057,0,0,0-.014.016.111.111,0,0,0-.009.023.084.084,0,0,1-.014.03H3.875l-.006,0a.489.489,0,0,0-.023.045l-.022.045-.007,0L3.8,5.927a.3.3,0,0,1-.057.11l-.017-.01-.005,0-.006.01L3.7,6.058c-.009.016-.017.032-.027.047a.078.078,0,0,1-.022.024l-.01-.012c0,.007-.005.014-.008.021a.091.091,0,0,1-.037.057l-.025-.022c-.005.01-.01.02-.015.031a.154.154,0,0,1-.059.08l-.013-.013-.01-.011-.012.023a.2.2,0,0,1-.063.081l-.018-.019-.018-.019a.183.183,0,0,1-.093.091L3.259,6.39l0-.006a.141.141,0,0,1-.06.061l-.017-.04L3.15,6.43,3.1,6.47l-.009-.011a.06.06,0,0,1-.009-.011L2.9,6.557a1.15,1.15,0,0,1,.113-.177L3,6.372l-.014-.008.063-.076.01-.012L3.04,6.266,3.027,6.26a.208.208,0,0,1,.1-.091L3.1,6.155l-.021-.01a.2.2,0,0,1,.105-.07l-.008-.007-.03-.027a.2.2,0,0,1,.128-.056l-.018-.018-.006-.007A.28.28,0,0,1,3.38,5.9l-.009-.009-.008-.008a.135.135,0,0,1,.076-.045c.006,0,.015-.009.015-.013a.041.041,0,0,0,0-.011c0-.01,0-.013.029-.026a.232.232,0,0,0,.035-.018.213.213,0,0,1,.038-.019.1.1,0,0,0,0-.011.147.147,0,0,1-.03.008l-.021,0a.086.086,0,0,0-.021.013l-.007.005-.024.018c-.035.027-.071.054-.108.079a.046.046,0,0,1-.024.008c-.016,0-.03-.012-.042-.035l0,0a.152.152,0,0,1-.025.018L3.2,5.894c-.039.026-.08.052-.121.074a.044.044,0,0,1-.018,0,.158.158,0,0,1-.055-.014l-.031.018a1.253,1.253,0,0,1-.114.061.262.262,0,0,1-.063.026s-.006,0-.009-.007a.059.059,0,0,0-.015-.017H2.773a.089.089,0,0,0-.032.01l-.01.006a.313.313,0,0,1-.143.049l-.024,0c0-.015,0-.029,0-.049a.588.588,0,0,1-.28.117c0-.025,0-.044-.006-.072A.423.423,0,0,1,2,6.21V6.148c0-.014,0-.029,0-.044L2,6.109a.514.514,0,0,1-.209.061.279.279,0,0,1-.048,0l.025-.078.012-.038a.45.45,0,0,1-.188.042.522.522,0,0,1-.109-.012c.008-.023.014-.041.019-.057L1.506,6h-.02L1.26,5.986l.005-.026.006-.032a2.836,2.836,0,0,1-.449-.08l.427-.113a.105.105,0,0,1-.005-.028.117.117,0,0,0-.006-.032c.041-.009.084-.015.171-.027l.053-.007L1.43,5.577l-.009-.019a.221.221,0,0,1,.086-.016.59.59,0,0,1,.1.012L1.58,5.482a.476.476,0,0,1,.16-.031.345.345,0,0,1,.119.021c0-.04-.005-.073-.009-.11a.294.294,0,0,1,.066-.007.6.6,0,0,1,.153.026l.055.014,0-.025c0-.013,0-.028,0-.045a.21.21,0,0,1,.061-.009.5.5,0,0,1,.156.035l.069.022V5.3a.139.139,0,0,1,.04-.006.258.258,0,0,1,.1.027.509.509,0,0,0,.049.019s0-.01,0-.016,0-.013,0-.015a.118.118,0,0,1,.026,0,.257.257,0,0,1,.043,0c.039.007.079.017.117.027l.048.012.032.005c0-.016,0-.03.008-.048h.01a.6.6,0,0,1,.25.064c0-.013,0-.022,0-.033a.208.208,0,0,1-.069-.016.011.011,0,0,1-.006-.006.032.032,0,0,1,0-.021c0-.007.007-.014,0-.019a.009.009,0,0,0-.007,0c-.105-.021-.213-.04-.323-.059l.028-.065.006-.013a1.046,1.046,0,0,1-.4-.087l.01-.027.018-.052-.018-.006-.03-.009-.088-.021c-.055-.013-.111-.026-.164-.043a.272.272,0,0,1-.1-.048l.017-.023.011-.016C2,4.8,1.968,4.8,1.942,4.8a.3.3,0,0,1-.206-.069l.042-.079.008-.015c-.038-.008-.076-.015-.113-.021A.532.532,0,0,1,1.364,4.5l.041-.062.02-.03-.087-.021a.659.659,0,0,1-.309-.129l.054-.081.04-.06a.605.605,0,0,1-.372-.211L.8,3.86l.039-.034a.473.473,0,0,1-.248-.138l.054-.039L.71,3.605.672,3.578C.545,3.488.487,3.446.434,3.4a.187.187,0,0,0,.032-.039.161.161,0,0,1,.028-.035L0,2.876a4.3,4.3,0,0,1,.67.207l.009-.029L.7,3l.347.151L1.052,3.1c0-.021.009-.045.014-.073a.68.68,0,0,1,.379.248l.009-.048c.009-.046.017-.089.026-.136a.654.654,0,0,1,.313.269l.037-.068c.013-.025.026-.05.042-.076a.629.629,0,0,1,.283.346l.062-.093a.864.864,0,0,1,.292.356l.012-.018.03-.045a.405.405,0,0,1,.191.183l.009.013c.01.015.029.039.041.039a.1.1,0,0,0,.035-.012.028.028,0,0,1,.012,0c.011,0,.025.019.072.08.034.046.065.094.094.141l.043.067c.042,0,.088.012.105.037.042.062.079.128.114.193l.038.068c0,.008.008.015.012.023l.012.024a.112.112,0,0,1,.061-.024.053.053,0,0,1,.048.032c.032.06.059.117.087.178l.019.04a.093.093,0,0,0,.022.028.1.1,0,0,0,.041.025.07.07,0,0,1,.038.026c.01.016.02.034.031.051.034.058.065.113.1.113-.038,0-.077-.088-.114-.172-.011-.025-.022-.049-.032-.071a.159.159,0,0,1-.019-.05L3.6,4.766a.165.165,0,0,0-.029-.052l-.051-.076c-.038-.056-.077-.113-.111-.172A.067.067,0,0,1,3.4,4.408a.106.106,0,0,1,.07-.055l-.013-.02c-.009-.013-.017-.025-.024-.036L3.4,4.23c-.047-.082-.094-.165-.133-.25-.012-.027,0-.07.03-.131l-.026-.054c-.035-.073-.071-.149-.1-.221-.049-.127-.047-.129-.019-.148A.171.171,0,0,0,3.176,3.4c.011-.011,0-.08-.012-.1l-.008-.017a.58.58,0,0,1-.066-.37h.093a.792.792,0,0,0-.1-.145.283.283,0,0,1-.081-.216h.136l0,0a.846.846,0,0,1-.171-.505c.035,0,.068,0,.1,0s.065,0,.1,0l0,0a.734.734,0,0,1-.072-.473l.105.042.107.043a.767.767,0,0,1-.011-.527l.106.043.033.013L3.459,1,3.5.753l.08.022.028.008A4.7,4.7,0,0,1,3.825,0l.148.771a.218.218,0,0,1,.05,0A.238.238,0,0,0,4.089.76c.011.086.018.172.031.4l.075-.029L4.28,1.1a.505.505,0,0,1-.019.322.448.448,0,0,0,.069-.026A.51.51,0,0,1,4.4,1.364a.609.609,0,0,1-.023.466h.207a1,1,0,0,1-.071.443c-.01.033-.021.066-.031.1h.133a.58.58,0,0,1-.079.376c-.018.039-.036.08-.052.122l.057,0,.072.006a.333.333,0,0,1-.062.245.9.9,0,0,0-.043.083H4.57a.3.3,0,0,1-.014.123,2.044,2.044,0,0,1-.067.2c-.011.03-.021.058-.031.086,0,.01-.007.021-.01.032l-.007.024.042.01.059.014a1.136,1.136,0,0,1-.171.448l.045.008.057.01-.034.08c-.04.094-.077.182-.113.272a.01.01,0,0,0,0,.009c0,.005.012.007.022.008s.03,0,.027.019a.33.33,0,0,1-.051.117.432.432,0,0,0-.043.085.185.185,0,0,0-.012.079c0,.011,0,.025,0,.047a.263.263,0,0,1-.019.081A.2.2,0,0,1,4.3,4.915a.328.328,0,0,0,.029-.028.14.14,0,0,0,.019-.041c.013-.034.025-.064.036-.094.018-.047.036-.095.056-.141a.055.055,0,0,1,.051-.037.115.115,0,0,1,.057.02l0-.011c.005-.015.01-.028.016-.04l.033-.07a2.152,2.152,0,0,1,.1-.2c.016-.027.063-.038.1-.044l.037-.068c.027-.05.054-.1.086-.148.044-.067.056-.085.067-.085a.03.03,0,0,1,.012,0,.1.1,0,0,0,.034.01c.016,0,.036-.034.041-.041l.007-.013a.4.4,0,0,1,.178-.2l.019.024.028.036a.85.85,0,0,1,.265-.373l.034.043.035.045A.628.628,0,0,1,5.9,3.1l.04.063c.017.026.031.05.049.076l0-.005a.644.644,0,0,1,.291-.284l.035.129.014.052a.685.685,0,0,1,.361-.274c.013.05.023.088.031.119l.011-.006L7.056,2.8l.026.068.007.018a4.168,4.168,0,0,1,.653-.252l-.461.485a.175.175,0,0,1,.03.033.187.187,0,0,0,.034.037c-.047.044-.1.085-.2.168l-.064.053.035.021.087.054a.473.473,0,0,1-.238.154l.046.034.051.038a.6.6,0,0,1-.356.235l.071.091.034.044a.669.669,0,0,1-.3.15l-.083.026.007.009c.018.024.037.048.061.077a.531.531,0,0,1-.3.139c-.036.008-.073.017-.109.027l.043.066.015.024a.3.3,0,0,1-.2.083.8.8,0,0,0-.08.015l.015.018.015.018a.27.27,0,0,1-.093.054c-.057.022-.117.04-.175.058l-.073.022-.03.011-.016.007.015.034.019.042a1.028,1.028,0,0,1-.4.115c.009.017.016.031.025.048l.014.027-.053.013c-.092.023-.179.045-.266.069a.008.008,0,0,0-.006,0s0,.011.006.018.012.022,0,.028a.31.31,0,0,1-.106.025.379.379,0,0,0-.083.016.174.174,0,0,0-.057.029.238.238,0,0,1,.031-.012l.033-.011.015,0c.019,0,.032.015.036.043l.008,0a.151.151,0,0,1,.025-.009l.042-.013a1.42,1.42,0,0,1,.138-.038h.007a.1.1,0,0,1,.055.027l.06-.014c.03-.007.061-.015.092-.02h.006a.453.453,0,0,1,.051-.007c.009,0,.01,0,.012.009a.058.058,0,0,0,.01.019s.007,0,.015,0l.021,0h.005a.458.458,0,0,1,.1-.016.158.158,0,0,1,.065.013l-.005.028,0,.017a.7.7,0,0,1,.212-.043.376.376,0,0,1,.07.007l-.009.043,0,.022A.461.461,0,0,1,5.9,5.344a.325.325,0,0,1,.085.011c-.005.019-.01.035-.016.052l-.013.042.021,0a.785.785,0,0,1,.111-.011.276.276,0,0,1,.122.026l-.04.058-.025.037a.456.456,0,0,1,.072-.006.426.426,0,0,1,.2.053L6.4,5.623l-.027.039.116.04.1.035-.017.033-.009.017a2.539,2.539,0,0,1,.382.184l-.413,0a.1.1,0,0,1,0,.024.108.108,0,0,0,0,.032c-.046,0-.093-.009-.207-.024a.249.249,0,0,0,0,.035c0,.016.006.031.008.049H6.308a.336.336,0,0,1-.145-.043l0,.02,0,.051H6.125a.355.355,0,0,1-.21-.061c-.006.032-.012.06-.018.09l0,.011A.411.411,0,0,1,5.7,6.083l-.047-.026-.008.035-.006.029H5.637a.329.329,0,0,1-.183-.077L5.4,6.008l0,.013c0,.017-.009.033-.015.049H5.375a.183.183,0,0,1-.115-.054c-.013-.01-.025-.02-.038-.029s0,.024,0,.028A.155.155,0,0,1,5.158,6c-.038-.018-.071-.037-.1-.056l-.038-.022-.009,0-.019-.008-.007.015-.015.031a.6.6,0,0,1-.214-.126c-.007.015-.012.026-.02.047l-.066-.042-.1-.064h0c-.008,0-.01,0-.011.01s0,.011-.009.011a.169.169,0,0,1-.057-.036.231.231,0,0,0-.042-.03.1.1,0,0,0-.039-.013l-.024,0c-.016,0-.047-.012-.047-.023v.032s0,0,.009,0l.006,0c.01,0,.014.016.018.028l.024.007c.017.005.034.01.051.017l.005,0c.026.01.026.01.024.016a.027.027,0,0,0,0,.011s.01.008.015.01a.135.135,0,0,1,.075.042l-.016.016h.007a.283.283,0,0,1,.124.057l-.012.012-.013.013a.2.2,0,0,1,.128.056l-.019.017-.018.016H4.75a.2.2,0,0,1,.1.069l-.021.01L4.8,6.137a.211.211,0,0,1,.1.091l-.021.009-.014.006.027.033.045.055-.014.008-.01.006a1.374,1.374,0,0,1,.113.177L4.85,6.414a.045.045,0,0,1-.008.011.046.046,0,0,0-.01.013l-.026-.019-.058-.046-.005.013-.011.027a.151.151,0,0,1-.061-.062l-.01.019-.007.013a.182.182,0,0,1-.093-.092l-.019.019-.018.018a.191.191,0,0,1-.062-.079L4.45,6.227l-.011.011-.012.013a.154.154,0,0,1-.059-.081c0-.01-.009-.021-.015-.031l-.01.008-.016.014a.091.091,0,0,1-.037-.056c0-.007,0-.014-.008-.021l-.006.007,0,0a.063.063,0,0,1-.021-.022c-.011-.017-.019-.033-.028-.049L4.212,6,4.2,5.991,4.19,6,4.181,6a.281.281,0,0,1-.057-.11l-.015.011-.007,0-.017-.035c-.009-.019-.017-.036-.026-.053a3.189,3.189,0,0,1-.03.654A1.13,1.13,0,0,1,3.909,6.682Z" transform="translate(4.129 7.714)"/>
  <path id="Shape" d="M15.557,18H.475a.512.512,0,0,1-.4-.115.516.516,0,0,1-.06-.416q.179-1.351.356-2.7.151-1.151.3-2.3L1.024,9.8,1.376,7.14q.079-.59.156-1.178c.052-.394.1-.785.156-1.178a.359.359,0,0,1,.42-.37H4.595c0-.121,0-.239,0-.354,0-.23,0-.446,0-.665A3.4,3.4,0,0,1,8.025,0H8.1A3.4,3.4,0,0,1,11.4,3.292c0,.243,0,.482,0,.735,0,.128,0,.257,0,.387h2.486c.273,0,.382.1.418.373q.283,2.145.565,4.288l.011.086q.288,2.187.576,4.375.205,1.556.415,3.112l.118.882a.424.424,0,0,1-.068.348A.465.465,0,0,1,15.557,18ZM1.087,15.632c-.095,0-.139.05-.153.174-.033.3-.073.6-.111.891V16.7q-.021.161-.042.321c-.018.135-.023.2.009.239s.1.04.236.04H14.972c.134,0,.2,0,.233-.04s.026-.116.009-.239-.031-.218-.047-.326c-.039-.258-.079-.524-.093-.789-.014-.239-.112-.279-.326-.279-1.835,0-3.778,0-6.3,0H1.162l-.042,0ZM2.526,5.1c-.125,0-.168.039-.183.168-.033.3-.074.6-.113.887-.019.139-.037.277-.055.416q-.15,1.13-.3,2.262v.007q-.118.881-.236,1.76c-.214,1.6-.388,2.924-.546,4.158-.015.116-.025.233-.034.347,0,.048-.008.095-.012.142H14.98v-.068a.8.8,0,0,0,0-.116c-.127-.969-.255-1.935-.375-2.834q-.134-.985-.266-1.973l-.1-.756q-.087-.658-.173-1.318l-.006-.047q-.089-.683-.179-1.365-.041-.311-.084-.621c-.04-.291-.081-.592-.119-.888-.014-.1-.031-.158-.147-.158l-.784,0c-.385,0-.784,0-1.176.005a.182.182,0,0,0-.126.115c-.018.486-.018.972-.017,1.487v.232h.25c.038,0,.075,0,.111,0a.343.343,0,0,1,.319.36.323.323,0,0,1-.322.35c-.347,0-.721,0-1.143,0l-1.418,0h-.23a.318.318,0,0,1-.322-.326.353.353,0,0,1,.086-.271.405.405,0,0,1,.3-.111h.072A.23.23,0,0,0,9.3,6.9a.287.287,0,0,0,.053-.215c-.012-.4-.012-.829,0-1.38a.211.211,0,0,0-.041-.159A.222.222,0,0,0,9.149,5.1c-.382,0-.769.005-1.15.005s-.767,0-1.15-.005a.212.212,0,0,0-.158.042.2.2,0,0,0-.038.151c.007.3.006.606,0,.9q0,.175,0,.35c0,.367,0,.367.354.4a.343.343,0,0,1,.326.371A.322.322,0,0,1,7,7.654l-1.385,0-1.385,0A.319.319,0,0,1,3.9,7.314a.344.344,0,0,1,.329-.371c.031,0,.064,0,.1,0s.065,0,.1,0l.031,0c.094,0,.133-.047.133-.158,0-.509,0-1.022,0-1.527,0-.116-.043-.158-.165-.158l-.948,0ZM8.036.678h0a2.493,2.493,0,0,0-.262.014,2.719,2.719,0,0,0-2.492,2.7c-.007,1.118,0,2.255,0,3.354,0,.047,0,.095.006.14,0,.02,0,.039,0,.058h.656V3.461a2.1,2.1,0,0,1,.021-.36A2.057,2.057,0,0,1,8.012,1.352c.063,0,.127,0,.191.008A2.054,2.054,0,0,1,10.05,3.443c0,.728,0,1.466,0,2.181q0,.545,0,1.087c0,.07,0,.148,0,.231h.656c0-.026,0-.049.005-.072s.006-.071.006-.106V5.974c0-.863,0-1.754,0-2.629a2.429,2.429,0,0,0-.057-.5A2.722,2.722,0,0,0,8.036.679ZM8.014,2.032a1.347,1.347,0,0,0-1.365,1.2,6.338,6.338,0,0,0-.013.8c0,.121.006.246.006.371H9.366q0-.178,0-.352c0-.234,0-.454,0-.679A1.357,1.357,0,0,0,8.083,2.034Z" transform="translate(0 0)"/>
</svg>
