<svg id="exclamation-triangle" xmlns="http://www.w3.org/2000/svg" width="71.001" height="63" viewBox="0 0 71.001 63">
  <path id="Mask" d="M65.076,63H5.924A5.91,5.91,0,0,1,.8,54.142L30.375,2.951a5.926,5.926,0,0,1,10.25,0L70.2,54.142A5.91,5.91,0,0,1,65.076,63ZM35.5,43.558a5.661,5.661,0,1,0,5.671,5.66A5.671,5.671,0,0,0,35.5,43.558Zm-3.906-21.9a1.478,1.478,0,0,0-1.477,1.558l.914,16.734a1.479,1.479,0,0,0,1.477,1.4h5.984a1.479,1.479,0,0,0,1.477-1.4l.914-16.734a1.478,1.478,0,0,0-1.477-1.558Z" transform="translate(0.001)" fill="#d9534f"/>
</svg>
